%FSDAX24Y24*%
%MOIN*%
%SFA1B1*%

%IPPOS*%
%ADD10R,0.039400X0.043300*%
%ADD11O,0.023600X0.086600*%
%ADD12R,0.043300X0.039400*%
%ADD13R,0.051200X0.059100*%
%ADD14R,0.059100X0.051200*%
%ADD15R,0.031500X0.031500*%
%ADD16R,0.023600X0.019700*%
%ADD17O,0.070900X0.011800*%
%ADD18O,0.011800X0.070900*%
%ADD19R,0.043300X0.025600*%
%ADD20R,0.023600X0.059100*%
%ADD21O,0.086600X0.023600*%
%ADD31C,0.019700*%
%ADD32C,0.059100*%
%ADD33R,0.059100X0.059100*%
%ADD34R,0.053100X0.053100*%
%ADD35C,0.053100*%
%ADD36R,0.059100X0.059100*%
%ADD37C,0.063000*%
%ADD38R,0.063000X0.063000*%
%ADD39C,0.118100*%
%ADD40C,0.098400*%
%ADD41C,0.060000*%
%ADD42R,0.066900X0.066900*%
%ADD43C,0.066900*%
%ADD44O,0.047200X0.098400*%
%ADD45R,0.047200X0.098400*%
%LNde-120824-1*%
%LPD*%
G54D10*
X022400Y076235D03*
Y075565D03*
X023400Y076235D03*
Y075565D03*
X024400Y076185D03*
Y075515D03*
X011750Y033135D03*
Y032465D03*
X017000Y029815D03*
Y030485D03*
X015600Y023285D03*
Y022615D03*
X016200Y023285D03*
Y022615D03*
X015600Y020050D03*
Y020719D03*
X016200Y020015D03*
Y020685D03*
X032200Y036665D03*
Y037335D03*
X031546D03*
Y036665D03*
X021400Y029535D03*
Y028865D03*
G54D11*
X021500Y021255D03*
X022000D03*
X022500D03*
X023000D03*
X023500D03*
X024000D03*
X024500D03*
X021500Y023145D03*
X022000D03*
X022500D03*
X023000D03*
X023500D03*
X024000D03*
X024500D03*
X034450Y037945D03*
X033950D03*
X033450D03*
X032950D03*
X034450Y036055D03*
X033950D03*
X033450D03*
X032950D03*
X012450Y031105D03*
X012950D03*
X013450D03*
X013950D03*
X014450D03*
X014950D03*
X015450D03*
X012450Y032995D03*
X012950D03*
X013450D03*
X013950D03*
X014450D03*
X014950D03*
X015450D03*
G54D12*
X020785Y023250D03*
X020115D03*
X023400Y031400D03*
X022731D03*
X021365Y030600D03*
X022035D03*
X020065Y028200D03*
X020735D03*
X032235Y038000D03*
X031565D03*
X034165Y039000D03*
X034835D03*
X033200D03*
X032531D03*
X032235Y036000D03*
X031565D03*
X017965Y031750D03*
X018635D03*
X017965Y031150D03*
X018635D03*
X015631Y021350D03*
X016300D03*
X014865Y057500D03*
X015535D03*
X014831Y045400D03*
X015500D03*
X020715Y057500D03*
X021385D03*
X020865Y045400D03*
X021535D03*
X024600Y057500D03*
X023931D03*
X024435Y045400D03*
X023765D03*
X030735Y057500D03*
X030065D03*
X030735Y045400D03*
X030065D03*
G54D13*
X021326Y031300D03*
X022074D03*
X020126Y027500D03*
X020874D03*
X013826Y062500D03*
X014574D03*
X013826Y050700D03*
X014574D03*
X016926Y064700D03*
X017674D03*
X018426D03*
X019174D03*
X019926D03*
X020674D03*
X016926Y052700D03*
X017674D03*
X018426D03*
X019174D03*
X019926D03*
X020674D03*
X027026Y062500D03*
X027774D03*
X028626D03*
X029374D03*
X026576Y050300D03*
X027324D03*
X028226D03*
X028974D03*
X032774Y062600D03*
X032026D03*
X031274D03*
X030526D03*
X032774Y050600D03*
X032026D03*
X031274D03*
X030526D03*
G54D14*
X014900Y023298D03*
Y022550D03*
X015400Y062526D03*
Y063274D03*
X014600Y063352D03*
Y064100D03*
X015400Y050726D03*
Y051474D03*
X014600Y051526D03*
Y052274D03*
X029400Y063476D03*
Y064224D03*
X029450Y051426D03*
Y052174D03*
X030500Y063476D03*
Y064224D03*
Y051426D03*
Y052174D03*
G54D15*
X018500Y073505D03*
Y074095D03*
X020657Y073505D03*
Y074095D03*
X022814Y073505D03*
Y074095D03*
X024971Y073505D03*
Y074095D03*
X027129Y073505D03*
Y074095D03*
X029286Y073505D03*
Y074095D03*
X031443Y073505D03*
Y074095D03*
X033600Y073505D03*
Y074095D03*
X012900Y073505D03*
Y074095D03*
G54D16*
X019903Y026800D03*
X020297D03*
X015703Y021950D03*
X016097D03*
G54D17*
X026294Y026017D03*
Y026214D03*
Y026411D03*
Y026608D03*
Y026805D03*
Y027002D03*
Y027198D03*
Y027395D03*
Y027592D03*
Y027789D03*
Y027986D03*
Y028183D03*
X023106D03*
Y027986D03*
Y027789D03*
Y027592D03*
Y027395D03*
Y027198D03*
Y027002D03*
Y026805D03*
Y026608D03*
Y026411D03*
Y026214D03*
Y026017D03*
G54D18*
X025783Y028694D03*
X025586D03*
X025389D03*
X025192D03*
X024995D03*
X024798D03*
X024602D03*
X024405D03*
X024208D03*
X024011D03*
X023814D03*
X023617D03*
Y025506D03*
X023814D03*
X024011D03*
X024208D03*
X024405D03*
X024602D03*
X024798D03*
X024995D03*
X025192D03*
X025389D03*
X025586D03*
X025783D03*
G54D19*
X017700Y029750D03*
Y030498D03*
X018645D03*
Y030124D03*
Y029750D03*
G54D20*
X020400Y029674D03*
X020774Y028926D03*
X020026D03*
G54D21*
X012855Y021800D03*
Y021300D03*
Y020800D03*
Y020300D03*
X014745Y021800D03*
Y021300D03*
Y020800D03*
Y020300D03*
G54D31*
X035591Y078148D03*
Y078446D03*
Y078745D03*
Y077850D03*
Y079341D03*
Y079043D03*
Y044098D03*
Y043800D03*
X035200Y043465D03*
X035591Y044993D03*
Y044695D03*
Y044396D03*
Y050659D03*
Y050958D03*
Y051256D03*
Y051554D03*
Y047975D03*
Y048273D03*
Y048572D03*
Y049466D03*
Y049168D03*
Y048870D03*
Y050361D03*
Y050063D03*
Y049765D03*
Y047081D03*
Y047379D03*
Y047677D03*
Y046186D03*
Y046484D03*
Y046782D03*
Y045888D03*
Y045589D03*
Y045291D03*
Y051852D03*
Y052150D03*
Y052449D03*
Y053343D03*
Y053045D03*
Y052747D03*
Y054238D03*
Y053940D03*
Y053642D03*
Y056326D03*
Y056624D03*
Y056922D03*
Y055431D03*
Y055729D03*
Y056027D03*
Y055133D03*
Y054835D03*
Y054536D03*
Y059010D03*
Y059308D03*
Y059606D03*
Y058115D03*
Y058413D03*
Y058712D03*
Y057817D03*
Y057519D03*
Y057220D03*
Y065273D03*
Y065571D03*
Y065869D03*
Y066764D03*
Y066465D03*
Y066167D03*
Y067658D03*
Y067360D03*
Y067062D03*
Y062588D03*
Y062887D03*
Y063185D03*
Y064080D03*
Y063781D03*
Y063483D03*
Y064974D03*
Y064676D03*
Y064378D03*
Y061694D03*
Y061992D03*
Y062290D03*
Y060799D03*
Y061097D03*
Y061396D03*
Y060501D03*
Y060203D03*
Y059904D03*
Y070641D03*
Y070939D03*
Y071237D03*
Y072132D03*
Y071834D03*
Y071535D03*
Y069746D03*
Y070044D03*
Y070342D03*
Y068851D03*
Y069150D03*
Y069448D03*
Y068553D03*
Y068255D03*
Y067957D03*
Y076605D03*
Y076904D03*
Y077202D03*
Y077500D03*
Y073921D03*
Y074219D03*
Y074518D03*
Y075412D03*
Y075114D03*
Y074816D03*
Y076307D03*
Y076009D03*
Y075711D03*
Y073027D03*
Y073325D03*
Y073623D03*
Y072430D03*
Y072728D03*
X010200Y067874D03*
X010509D03*
X010819D03*
X011746D03*
X011437D03*
X011128D03*
X012674D03*
X012365D03*
X012056D03*
X014839D03*
X015148D03*
X015457D03*
X013911D03*
X014220D03*
X014530D03*
X013602D03*
X013293D03*
X012983D03*
X017622D03*
X017931D03*
X018241D03*
X016694D03*
X017004D03*
X017313D03*
X016385D03*
X016076D03*
X015767D03*
X024117D03*
X024426D03*
X024735D03*
X025663D03*
X025354D03*
X025044D03*
X026591D03*
X026281D03*
X025972D03*
X021333D03*
X021643D03*
X021952D03*
X022880D03*
X022570D03*
X022261D03*
X023807D03*
X023498D03*
X023189D03*
X020406D03*
X020715D03*
X021024D03*
X019478D03*
X019787D03*
X020096D03*
X019169D03*
X018859D03*
X018550D03*
X032467D03*
X032776D03*
X033085D03*
X034013D03*
X033704D03*
X033394D03*
X034941D03*
X034631D03*
X034322D03*
X029683D03*
X029993D03*
X030302D03*
X031230D03*
X030920D03*
X030611D03*
X032157D03*
X031848D03*
X031539D03*
X028756D03*
X029065D03*
X029374D03*
X027828D03*
X028137D03*
X028446D03*
X027518D03*
X027209D03*
X026900D03*
X035950D03*
X036250D03*
X036550D03*
X035250D03*
X010200Y055669D03*
X010516D03*
X010833D03*
X011782D03*
X011466D03*
X011149D03*
X012732D03*
X012415D03*
X012099D03*
X014947D03*
X015263D03*
X015580D03*
X013997D03*
X014314D03*
X014630D03*
X013681D03*
X013365D03*
X013048D03*
X017795D03*
X018111D03*
X018428D03*
X016846D03*
X017162D03*
X017478D03*
X016529D03*
X016213D03*
X015896D03*
X024441D03*
X024757D03*
X025073D03*
X026023D03*
X025706D03*
X025390D03*
X026972D03*
X026656D03*
X026339D03*
X021592D03*
X021909D03*
X022225D03*
X023175D03*
X022858D03*
X022542D03*
X024124D03*
X023808D03*
X023491D03*
X020643D03*
X020959D03*
X021276D03*
X019694D03*
X020010D03*
X020327D03*
X019377D03*
X019061D03*
X018744D03*
X032985D03*
X033301D03*
X033618D03*
X034567D03*
X034251D03*
X033934D03*
X030137D03*
X030453D03*
X030770D03*
X031719D03*
X031403D03*
X031086D03*
X032668D03*
X032352D03*
X032035D03*
X029187D03*
X029504D03*
X029820D03*
X028238D03*
X028554D03*
X028871D03*
X027922D03*
X027605D03*
X027289D03*
X035930D03*
X036240D03*
X036550D03*
X035200D03*
X034884D03*
X026149Y043465D03*
X026495D03*
X026842D03*
X027882D03*
X027535D03*
X027189D03*
X028922D03*
X028576D03*
X028229D03*
X029962D03*
X029616D03*
X029269D03*
X018521D03*
X018174D03*
X018868D03*
X021988D03*
X022335D03*
X022682D03*
X020948D03*
X021295D03*
X021641D03*
X025455D03*
X025802D03*
X023375D03*
X023028D03*
X015401D03*
X015747D03*
X016094D03*
X017134D03*
X016787D03*
X016441D03*
X017828D03*
X017481D03*
X013320D03*
X013667D03*
X014014D03*
X014361D03*
X015054D03*
X014707D03*
X012280D03*
X012627D03*
X012974D03*
X011240D03*
X011587D03*
X011934D03*
X010893D03*
X010547D03*
X010200D03*
X019561D03*
X019214D03*
X020601D03*
X020255D03*
X019908D03*
X031349D03*
X031696D03*
X032043D03*
X030309D03*
X030656D03*
X031003D03*
X033430D03*
X033776D03*
X033083D03*
X032736D03*
X032389D03*
X025108D03*
X024068D03*
X024415D03*
X024762D03*
X023722D03*
X034123D03*
X034470D03*
X034816D03*
X036550D03*
X036203D03*
X035856D03*
X035510D03*
G54D32*
X028950Y069250D03*
X029950D03*
X030950D03*
X031950D03*
X032950D03*
X028950Y072250D03*
X029950D03*
X030950D03*
X031950D03*
X035384Y021900D03*
X035368Y026200D03*
X027900Y019843D03*
X026900D03*
X025900D03*
X024900D03*
X023900D03*
X022900D03*
X021900D03*
X020900D03*
X019900D03*
X018900D03*
X017900D03*
X018900Y033622D03*
X019900D03*
X020900D03*
X021900D03*
X022900D03*
X023900D03*
X024900D03*
X025900D03*
X026900D03*
X027900D03*
X028900D03*
X020050Y024750D03*
X021050D03*
X028300Y029600D03*
Y027600D03*
Y026600D03*
Y025600D03*
Y024600D03*
Y023600D03*
Y022600D03*
Y021600D03*
Y028600D03*
X027900Y017100D03*
X026900D03*
X025900D03*
X024900D03*
X023900D03*
X022900D03*
X021900D03*
X020900D03*
X019900D03*
X018900D03*
X017900D03*
X018900Y036378D03*
X019900D03*
X020900D03*
X021900D03*
X022900D03*
X023900D03*
X024900D03*
X025900D03*
X026900D03*
X027900D03*
X028900D03*
X018300Y056600D03*
X019300D03*
X020300D03*
X021300D03*
X022300D03*
X023300D03*
X024300D03*
X025300D03*
X026300D03*
X027300D03*
X028300D03*
X020400Y077150D03*
X022400D03*
X023400D03*
X024400D03*
X025400D03*
X026400D03*
X027400D03*
X028400D03*
X021400D03*
X018300Y063500D03*
X019300D03*
X020300D03*
X021300D03*
X022300D03*
X023300D03*
X024300D03*
X025300D03*
X026300D03*
X027300D03*
X028300D03*
X018300Y044500D03*
X019300D03*
X020300D03*
X021300D03*
X022300D03*
X023300D03*
X024300D03*
X025300D03*
X026300D03*
X027300D03*
X028300D03*
X018300Y051300D03*
X019300D03*
X020300D03*
X021300D03*
X022300D03*
X023300D03*
X024300D03*
X025300D03*
X026300D03*
X027300D03*
X028300D03*
X036100Y029500D03*
Y030500D03*
Y031500D03*
Y032500D03*
Y033500D03*
X033100Y029500D03*
Y030500D03*
Y031500D03*
Y032500D03*
G54D33*
X032950Y072250D03*
X028300Y030600D03*
G54D34*
X030806Y022300D03*
G54D35*
X031594Y022300D03*
G54D36*
X033416Y021900D03*
X033400Y026200D03*
X028900Y019843D03*
X017900Y033622D03*
X022050Y024750D03*
X028900Y017100D03*
X017900Y036378D03*
X017300Y056600D03*
X019400Y077150D03*
X017300Y063500D03*
Y044500D03*
Y051300D03*
X033100Y033500D03*
G54D37*
X011200Y063800D03*
X012200D03*
X011200Y051669D03*
X012200D03*
X011200Y066200D03*
X012200D03*
X011200Y054100D03*
X012200D03*
X015391Y066200D03*
X016391D03*
X015440Y054100D03*
X016440D03*
X019582Y066200D03*
X020582D03*
X019680Y054100D03*
X020680D03*
X026018Y066031D03*
X025018D03*
X025920Y053931D03*
X024920D03*
X030209Y066031D03*
X029209D03*
X030160Y053931D03*
X029160D03*
X034400Y066031D03*
X033400D03*
X034400Y053931D03*
X033400D03*
X034400Y063631D03*
X033400D03*
X034400Y051500D03*
X033400D03*
G54D38*
X013200Y063800D03*
Y051669D03*
Y066200D03*
Y054100D03*
X017391Y066200D03*
X017440Y054100D03*
X021582Y066200D03*
X021680Y054100D03*
X024018Y066031D03*
X023920Y053931D03*
X028209Y066031D03*
X028160Y053931D03*
X032400Y066031D03*
Y053931D03*
Y063631D03*
Y051500D03*
G54D39*
X018286Y028176D03*
Y025224D03*
X011987Y028413D03*
X011514Y024987D03*
G54D40*
X032516Y041100D03*
X034484D03*
X024200Y012400D03*
X026200D03*
X028200D03*
X018300D03*
X020300D03*
X022300D03*
X012400D03*
X014400D03*
X016400D03*
Y041100D03*
X014400D03*
X012400D03*
X034469Y012400D03*
X032500D03*
X022300Y041100D03*
X020300D03*
X018300D03*
X026168D03*
X024200D03*
G54D41*
X014814Y074736D03*
X016586D03*
X014814Y072964D03*
X016586D03*
X014814Y077986D03*
X016586D03*
X014814Y076214D03*
X016586D03*
X014814Y071486D03*
X016586D03*
X014814Y069714D03*
X016586D03*
G54D42*
X031400Y025000D03*
G54D43*
X031400Y026000D03*
Y027000D03*
G54D44*
X012700Y061400D03*
X011700D03*
X010700D03*
X012700Y058400D03*
X011700D03*
X012700Y049300D03*
X011700D03*
X010700D03*
X012700Y046300D03*
X011700D03*
X015871Y061400D03*
X014871D03*
X013871D03*
X015871Y058400D03*
X014871D03*
X015871Y049300D03*
X014871D03*
X013871D03*
X015871Y046300D03*
X014871D03*
X019043Y061400D03*
X018043D03*
X017043D03*
X019043Y058400D03*
X018043D03*
X019043Y049300D03*
X018043D03*
X017043D03*
X019043Y046300D03*
X018043D03*
X022214Y061400D03*
X021214D03*
X020214D03*
X022214Y058400D03*
X021214D03*
X022214Y049300D03*
X021214D03*
X020214D03*
X022214Y046300D03*
X021214D03*
X025386Y061400D03*
X024386D03*
X023386D03*
X025386Y058400D03*
X024386D03*
X025386Y049300D03*
X024386D03*
X023386D03*
X025386Y046300D03*
X024386D03*
X028557Y061400D03*
X027557D03*
X026557D03*
X028557Y058400D03*
X027557D03*
X028557Y049300D03*
X027557D03*
X026557D03*
X028557Y046300D03*
X027557D03*
X031729Y061400D03*
X030729D03*
X029729D03*
X031729Y058400D03*
X030729D03*
X031729Y049300D03*
X030729D03*
X029729D03*
X031729Y046300D03*
X030729D03*
X034900Y061400D03*
X033900D03*
X032900D03*
X034900Y058400D03*
X033900D03*
X034900Y049300D03*
X033900D03*
X032900D03*
X034900Y046300D03*
X033900D03*
G54D45*
X010700Y058400D03*
Y046300D03*
X013871Y058400D03*
Y046300D03*
X017043Y058400D03*
Y046300D03*
X020214Y058400D03*
Y046300D03*
X023386Y058400D03*
Y046300D03*
X026557Y058400D03*
Y046300D03*
X029729Y058400D03*
Y046300D03*
X032900Y058400D03*
Y046300D03*
M02*