%FSDAX24Y24*%
%MOIN*%
%SFA1B1*%

%IPPOS*%
%ADD9500C,0.010000*%
%ADD9501C,0.023600*%
%ADD9502C,0.028000*%
%ADD9503C,0.030000*%
%ADD9504C,0.031500*%
%ADD9505C,0.035400*%
%ADD9506C,0.039400*%
%ADD9507C,0.043300*%
%ADD9508C,0.059100*%
%ADD9509C,0.019700*%
%LNde-120824-1*%
%LPD*%
G54D9500*
X035250Y016594D03*
X024750Y020550D03*
X023500D03*
X023000D03*
X022000D03*
X021500D03*
X021200Y023250D03*
X021450Y026050D03*
X021750Y026700D03*
X022075Y027025D03*
X022400Y027300D03*
X021750Y027850D03*
X022075Y028200D03*
X022400Y028550D03*
X021400Y028350D03*
X020950Y029650D03*
X019250Y030600D03*
Y031150D03*
X017350Y031200D03*
X016400Y029800D03*
X015950Y025750D03*
X016850Y022600D03*
X016800Y021300D03*
X019450Y026800D03*
Y027900D03*
X020700Y026800D03*
X023850Y026550D03*
X024450Y026300D03*
X024950D03*
X025400D03*
X025150Y027200D03*
X025500Y027900D03*
X026950Y027800D03*
X027300Y027400D03*
X027600Y027100D03*
Y026650D03*
X027300Y026275D03*
X027000Y025900D03*
X026600Y025250D03*
X024000Y023950D03*
X023850Y027600D03*
X026050Y029350D03*
X026550D03*
X027000Y029000D03*
X014950Y030350D03*
X013450D03*
X015000Y026300D03*
X015200Y020000D03*
X015450Y034050D03*
X013950D03*
X012150Y033150D03*
X022450Y032050D03*
X032100Y035350D03*
X033450Y035050D03*
X034450D03*
X031650Y038700D03*
X029300Y075100D03*
X026400Y073500D03*
X025600D03*
X021250D03*
X032900D03*
G54D9501*
X010700Y046300D03*
X011700D03*
X012700D03*
X013871D03*
X014871D03*
X015871D03*
X017043D03*
X018043D03*
X019043D03*
X020214D03*
X021214D03*
X022214D03*
X023386D03*
X024386D03*
X025386D03*
X026557D03*
X027557D03*
X028557D03*
X029729D03*
X030729D03*
X031729D03*
X032900D03*
X033900D03*
X034900D03*
Y049300D03*
X033900D03*
X032900D03*
X031729D03*
Y058400D03*
X032900D03*
X033900D03*
X034900D03*
Y061400D03*
X033900D03*
X032900D03*
X031729D03*
X030729D03*
X029729D03*
X028557D03*
X027557D03*
X026557D03*
X025386D03*
X024386D03*
X023386D03*
X022214D03*
X021214D03*
X020214D03*
X019043D03*
X018043D03*
X017043D03*
X015871D03*
Y058400D03*
X017043D03*
X018043D03*
X019043D03*
X020214D03*
X021214D03*
X022214D03*
X023386D03*
X024386D03*
X025386D03*
X026557D03*
X027557D03*
X028557D03*
X029729D03*
X030729D03*
Y049300D03*
X029729D03*
X028557D03*
X027557D03*
X026557D03*
X025386D03*
X024386D03*
X023386D03*
X022214D03*
X021214D03*
X020214D03*
X019043D03*
X018043D03*
X017043D03*
X015871D03*
X014871D03*
X013871D03*
X012700D03*
X011700D03*
X010700D03*
Y058400D03*
X011700D03*
X012700D03*
X013871D03*
X014871D03*
Y061400D03*
X013871D03*
X012700D03*
X011700D03*
X010700D03*
G54D9502*
X031925Y015900D03*
X032800D03*
Y016800D03*
X031925D03*
Y017700D03*
X032800D03*
Y018600D03*
X031925D03*
X031050D03*
Y017700D03*
Y016800D03*
Y015900D03*
X013500Y022500D03*
X012950D03*
X012300D03*
G54D9503*
X014814Y069714D03*
Y071486D03*
Y072964D03*
Y074736D03*
Y076214D03*
Y077986D03*
X016586D03*
Y076214D03*
Y074736D03*
Y072964D03*
Y071486D03*
Y069714D03*
G54D9504*
X031594Y022300D03*
X030806D03*
G54D9505*
X033416Y021900D03*
X035384D03*
X035368Y026200D03*
X033400D03*
X033100Y029500D03*
Y030500D03*
X036100D03*
Y029500D03*
X028300Y029600D03*
Y030600D03*
Y028600D03*
Y027600D03*
Y026600D03*
Y025600D03*
Y024600D03*
Y023600D03*
Y022600D03*
Y021600D03*
X027900Y019843D03*
X028900D03*
X026900D03*
X025900D03*
X024900D03*
X023900D03*
X022900D03*
X021900D03*
X020900D03*
X019900D03*
X018900D03*
X017900D03*
Y017100D03*
X018900D03*
X019900D03*
X020900D03*
X021900D03*
X022900D03*
X023900D03*
X024900D03*
X025900D03*
X026900D03*
X027900D03*
X028900D03*
X022050Y024750D03*
X021050D03*
X020050D03*
X019900Y033622D03*
X018900D03*
X017900D03*
Y036378D03*
X018900D03*
X019900D03*
X020900D03*
X021900D03*
X022900D03*
X023900D03*
X024900D03*
X025900D03*
X026900D03*
X027900D03*
X028900D03*
Y033622D03*
X027900D03*
X026900D03*
X025900D03*
X024900D03*
X023900D03*
X022900D03*
X021900D03*
X020900D03*
X021300Y044500D03*
X020300D03*
X019300D03*
X018300D03*
X017300D03*
X022300D03*
X023300D03*
X024300D03*
X025300D03*
X026300D03*
X027300D03*
X028300D03*
X033100Y033500D03*
Y032500D03*
Y031500D03*
X036100D03*
Y032500D03*
Y033500D03*
X028300Y051300D03*
X027300D03*
X026300D03*
X025300D03*
X024300D03*
X023300D03*
X022300D03*
X021300D03*
X020300D03*
X019300D03*
X018300D03*
X017300D03*
Y056600D03*
X018300D03*
X019300D03*
X020300D03*
X021300D03*
X022300D03*
X023300D03*
X024300D03*
X025300D03*
X026300D03*
X027300D03*
X028300D03*
Y063500D03*
X027300D03*
X026300D03*
X025300D03*
X024300D03*
X023300D03*
X022300D03*
X021300D03*
X020300D03*
X019300D03*
X018300D03*
X017300D03*
X019400Y077150D03*
X020400D03*
X021400D03*
X022400D03*
X023400D03*
X024400D03*
X025400D03*
X026400D03*
X027400D03*
X028400D03*
X028950Y072250D03*
X029950D03*
X030950D03*
Y069250D03*
X029950D03*
X028950D03*
X031950D03*
X032950D03*
Y072250D03*
X031950D03*
G54D9506*
X012400Y012400D03*
X014400D03*
X016400D03*
X018300D03*
X020300D03*
X022300D03*
X024200D03*
X026200D03*
X028200D03*
X032500D03*
X034469D03*
X014400Y041100D03*
X012400D03*
X016400D03*
X018300D03*
X020300D03*
X022300D03*
X024200D03*
X026168D03*
X032516D03*
X034484D03*
X034400Y051500D03*
X033400D03*
X032400D03*
Y053931D03*
X033400D03*
X034400D03*
X030160D03*
X029160D03*
X028160D03*
X025920D03*
X024920D03*
X023920D03*
X021680Y054100D03*
X020680D03*
X019680D03*
X017440D03*
X016440D03*
X015440D03*
X013200D03*
X012200D03*
X011200D03*
Y051669D03*
X012200D03*
X013200D03*
Y063800D03*
X012200D03*
X011200D03*
Y066200D03*
X012200D03*
X013200D03*
X015391D03*
X016391D03*
X017391D03*
X019582D03*
X020582D03*
X021582D03*
X024018Y066031D03*
X025018D03*
X026018D03*
X028209D03*
X029209D03*
X030209D03*
X032400D03*
X033400D03*
X034400D03*
Y063631D03*
X033400D03*
X032400D03*
G54D9507*
X031400Y025000D03*
Y026000D03*
Y027000D03*
G54D9508*
X018286Y025224D03*
Y028176D03*
X011987Y028413D03*
X011514Y024987D03*
G54D9509*
X010200Y043465D03*
X010547D03*
X010893D03*
X011240D03*
X011587D03*
X011934D03*
X012280D03*
X012627D03*
X012974D03*
X013320D03*
X013667D03*
X014014D03*
X014361D03*
X014707D03*
X015054D03*
X015401D03*
X015747D03*
X016094D03*
X016441D03*
X016787D03*
X017134D03*
X017481D03*
X017828D03*
X018174D03*
X018521D03*
X018868D03*
X019214D03*
X019561D03*
X019908D03*
X020255D03*
X020601D03*
X020948D03*
X021295D03*
X021641D03*
X021988D03*
X022335D03*
X022682D03*
X023028D03*
X023375D03*
X023722D03*
X024068D03*
X024415D03*
X024762D03*
X025108D03*
X025455D03*
X025802D03*
X026149D03*
X026495D03*
X026842D03*
X027189D03*
X027535D03*
X027882D03*
X028229D03*
X028576D03*
X028922D03*
X029269D03*
X029616D03*
X029962D03*
X030309D03*
X030656D03*
X031003D03*
X031349D03*
X031696D03*
X032043D03*
X032389D03*
X032736D03*
X033083D03*
X033430D03*
X033776D03*
X034123D03*
X034470D03*
X034816D03*
X035200D03*
X035510D03*
X035856D03*
X036203D03*
X036550D03*
X035591Y043800D03*
Y044098D03*
Y044396D03*
Y044695D03*
Y044993D03*
Y045291D03*
Y045589D03*
Y045888D03*
Y046186D03*
Y046484D03*
Y046782D03*
Y047081D03*
Y047379D03*
Y047677D03*
Y047975D03*
Y048273D03*
Y048572D03*
Y048870D03*
Y049168D03*
Y049466D03*
Y049765D03*
Y050063D03*
Y050361D03*
Y050659D03*
Y050958D03*
Y051256D03*
Y051554D03*
Y051852D03*
Y052150D03*
Y052449D03*
Y052747D03*
Y053045D03*
Y053343D03*
Y053642D03*
Y053940D03*
Y054238D03*
Y054536D03*
Y054835D03*
Y055133D03*
Y055431D03*
Y055729D03*
Y056027D03*
Y056326D03*
Y056624D03*
Y056922D03*
Y057220D03*
Y057519D03*
Y057817D03*
Y058115D03*
Y058413D03*
Y058712D03*
Y059010D03*
Y059308D03*
Y059606D03*
Y059904D03*
Y060203D03*
Y060501D03*
Y060799D03*
Y061097D03*
Y061396D03*
Y061694D03*
Y061992D03*
Y062290D03*
X035930Y055669D03*
X036240D03*
X036550D03*
X035200D03*
X034884D03*
X034567D03*
X034251D03*
X033934D03*
X033618D03*
X033301D03*
X032985D03*
X032668D03*
X032352D03*
X032035D03*
X031719D03*
X031403D03*
X031086D03*
X030770D03*
X030453D03*
X030137D03*
X029820D03*
X029504D03*
X029187D03*
X028871D03*
X028554D03*
X028238D03*
X027922D03*
X027605D03*
X027289D03*
X026972D03*
X026656D03*
X026339D03*
X026023D03*
X025706D03*
X025390D03*
X025073D03*
X024757D03*
X024441D03*
X024124D03*
X023808D03*
X023491D03*
X023175D03*
X022858D03*
X022542D03*
X022225D03*
X021909D03*
X021592D03*
X021276D03*
X020959D03*
X020643D03*
X020327D03*
X020010D03*
X019694D03*
X019377D03*
X019061D03*
X018744D03*
X018428D03*
X018111D03*
X017795D03*
X017478D03*
X017162D03*
X016846D03*
X016529D03*
X016213D03*
X015896D03*
X015580D03*
X015263D03*
X014947D03*
X014630D03*
X014314D03*
X013997D03*
X013681D03*
X013365D03*
X013048D03*
X012732D03*
X012415D03*
X012099D03*
X011782D03*
X011466D03*
X011149D03*
X010833D03*
X010516D03*
X010200D03*
Y067874D03*
X010509D03*
X010819D03*
X011128D03*
X011437D03*
X011746D03*
X012056D03*
X012365D03*
X012674D03*
X012983D03*
X013293D03*
X013602D03*
X013911D03*
X014220D03*
X014530D03*
X014839D03*
X015148D03*
X015457D03*
X015767D03*
X016076D03*
X016385D03*
X016694D03*
X017004D03*
X017313D03*
X017622D03*
X017931D03*
X018241D03*
X018550D03*
X018859D03*
X019169D03*
X019478D03*
X019787D03*
X020096D03*
X020406D03*
X020715D03*
X021024D03*
X021333D03*
X021643D03*
X021952D03*
X022261D03*
X022570D03*
X022880D03*
X023189D03*
X023498D03*
X023807D03*
X024117D03*
X024426D03*
X024735D03*
X025044D03*
X025354D03*
X025663D03*
X025972D03*
X026281D03*
X026591D03*
X026900D03*
X027209D03*
X027518D03*
X027828D03*
X028137D03*
X028446D03*
X028756D03*
X029065D03*
X029374D03*
X029683D03*
X029993D03*
X030302D03*
X030611D03*
X030920D03*
X031230D03*
X031539D03*
X031848D03*
X032157D03*
X032467D03*
X032776D03*
X033085D03*
X033394D03*
X033704D03*
X034013D03*
X034322D03*
X034631D03*
X034941D03*
X035250D03*
X035591Y067957D03*
Y067658D03*
Y067360D03*
Y067062D03*
Y066764D03*
Y066465D03*
Y066167D03*
Y065869D03*
Y065571D03*
Y065273D03*
Y064974D03*
Y064676D03*
Y064378D03*
Y064080D03*
Y063781D03*
Y063483D03*
Y063185D03*
Y062887D03*
Y062588D03*
X035950Y067874D03*
X036250D03*
X036550D03*
X035591Y068255D03*
Y068553D03*
Y068851D03*
Y069150D03*
Y069448D03*
Y069746D03*
Y070044D03*
Y070342D03*
Y070641D03*
Y070939D03*
Y071237D03*
Y071535D03*
Y071834D03*
Y072132D03*
Y072430D03*
Y072728D03*
Y073027D03*
Y073325D03*
Y073623D03*
Y073921D03*
Y074219D03*
Y074518D03*
Y074816D03*
Y075114D03*
Y075412D03*
Y075711D03*
Y076009D03*
Y076307D03*
Y076605D03*
Y076904D03*
Y077202D03*
Y077500D03*
Y077850D03*
Y078148D03*
Y078446D03*
Y078745D03*
Y079043D03*
Y079341D03*
M02*