%FSDAX24Y24*%
%MOIN*%
%SFA1B1*%

%IPPOS*%
%ADD10R,0.039400X0.043300*%
%ADD11O,0.023600X0.086600*%
%ADD12R,0.043300X0.039400*%
%ADD13R,0.051200X0.059100*%
%ADD14R,0.059100X0.051200*%
%ADD15R,0.031500X0.031500*%
%ADD16R,0.023600X0.019700*%
%ADD17O,0.070900X0.011800*%
%ADD18O,0.011800X0.070900*%
%ADD19R,0.043300X0.025600*%
%ADD20R,0.023600X0.059100*%
%ADD21O,0.086600X0.023600*%
%LNde-120824-1*%
%LPD*%
G54D10*
X022400Y076235D03*
Y075565D03*
X023400Y076235D03*
Y075565D03*
X024400Y076185D03*
Y075515D03*
X011750Y033135D03*
Y032465D03*
X017000Y029815D03*
Y030485D03*
X015600Y023285D03*
Y022615D03*
X016200Y023285D03*
Y022615D03*
X015600Y020050D03*
Y020719D03*
X016200Y020015D03*
Y020685D03*
X032200Y036665D03*
Y037335D03*
X031546D03*
Y036665D03*
X021400Y029535D03*
Y028865D03*
G54D11*
X021500Y021255D03*
X022000D03*
X022500D03*
X023000D03*
X023500D03*
X024000D03*
X024500D03*
X021500Y023145D03*
X022000D03*
X022500D03*
X023000D03*
X023500D03*
X024000D03*
X024500D03*
X034450Y037945D03*
X033950D03*
X033450D03*
X032950D03*
X034450Y036055D03*
X033950D03*
X033450D03*
X032950D03*
X012450Y031105D03*
X012950D03*
X013450D03*
X013950D03*
X014450D03*
X014950D03*
X015450D03*
X012450Y032995D03*
X012950D03*
X013450D03*
X013950D03*
X014450D03*
X014950D03*
X015450D03*
G54D12*
X020785Y023250D03*
X020115D03*
X023400Y031400D03*
X022731D03*
X021365Y030600D03*
X022035D03*
X020065Y028200D03*
X020735D03*
X032235Y038000D03*
X031565D03*
X034165Y039000D03*
X034835D03*
X033200D03*
X032531D03*
X032235Y036000D03*
X031565D03*
X017965Y031750D03*
X018635D03*
X017965Y031150D03*
X018635D03*
X015631Y021350D03*
X016300D03*
X014865Y057500D03*
X015535D03*
X014831Y045400D03*
X015500D03*
X020715Y057500D03*
X021385D03*
X020865Y045400D03*
X021535D03*
X024600Y057500D03*
X023931D03*
X024435Y045400D03*
X023765D03*
X030735Y057500D03*
X030065D03*
X030735Y045400D03*
X030065D03*
G54D13*
X021326Y031300D03*
X022074D03*
X020126Y027500D03*
X020874D03*
X013826Y062500D03*
X014574D03*
X013826Y050700D03*
X014574D03*
X016926Y064700D03*
X017674D03*
X018426D03*
X019174D03*
X019926D03*
X020674D03*
X016926Y052700D03*
X017674D03*
X018426D03*
X019174D03*
X019926D03*
X020674D03*
X027026Y062500D03*
X027774D03*
X028626D03*
X029374D03*
X026576Y050300D03*
X027324D03*
X028226D03*
X028974D03*
X032774Y062600D03*
X032026D03*
X031274D03*
X030526D03*
X032774Y050600D03*
X032026D03*
X031274D03*
X030526D03*
G54D14*
X014900Y023298D03*
Y022550D03*
X015400Y062526D03*
Y063274D03*
X014600Y063352D03*
Y064100D03*
X015400Y050726D03*
Y051474D03*
X014600Y051526D03*
Y052274D03*
X029400Y063476D03*
Y064224D03*
X029450Y051426D03*
Y052174D03*
X030500Y063476D03*
Y064224D03*
Y051426D03*
Y052174D03*
G54D15*
X018500Y073505D03*
Y074095D03*
X020657Y073505D03*
Y074095D03*
X022814Y073505D03*
Y074095D03*
X024971Y073505D03*
Y074095D03*
X027129Y073505D03*
Y074095D03*
X029286Y073505D03*
Y074095D03*
X031443Y073505D03*
Y074095D03*
X033600Y073505D03*
Y074095D03*
X012900Y073505D03*
Y074095D03*
G54D16*
X019903Y026800D03*
X020297D03*
X015703Y021950D03*
X016097D03*
G54D17*
X026294Y026017D03*
Y026214D03*
Y026411D03*
Y026608D03*
Y026805D03*
Y027002D03*
Y027198D03*
Y027395D03*
Y027592D03*
Y027789D03*
Y027986D03*
Y028183D03*
X023106D03*
Y027986D03*
Y027789D03*
Y027592D03*
Y027395D03*
Y027198D03*
Y027002D03*
Y026805D03*
Y026608D03*
Y026411D03*
Y026214D03*
Y026017D03*
G54D18*
X025783Y028694D03*
X025586D03*
X025389D03*
X025192D03*
X024995D03*
X024798D03*
X024602D03*
X024405D03*
X024208D03*
X024011D03*
X023814D03*
X023617D03*
Y025506D03*
X023814D03*
X024011D03*
X024208D03*
X024405D03*
X024602D03*
X024798D03*
X024995D03*
X025192D03*
X025389D03*
X025586D03*
X025783D03*
G54D19*
X017700Y029750D03*
Y030498D03*
X018645D03*
Y030124D03*
Y029750D03*
G54D20*
X020400Y029674D03*
X020774Y028926D03*
X020026D03*
G54D21*
X012855Y021800D03*
Y021300D03*
Y020800D03*
Y020300D03*
X014745Y021800D03*
Y021300D03*
Y020800D03*
Y020300D03*
M02*