%FSDAX24Y24*%
%MOIN*%
%SFA1B1*%

%IPPOS*%
%ADD10R,0.039400X0.043300*%
%ADD12R,0.043300X0.039400*%
%ADD13R,0.051200X0.059100*%
%ADD49R,0.021700X0.057100*%
%ADD50R,0.051200X0.023600*%
%ADD51R,0.061000X0.043300*%
%ADD52R,0.061000X0.043300*%
%ADD53R,0.061000X0.135800*%
%LNde-120824-1*%
%LPD*%
G54D10*
X035300Y018300D03*
Y017631D03*
X015000Y025735D03*
Y025065D03*
X015600D03*
Y025735D03*
G54D12*
X033835Y013400D03*
X033165D03*
X034735Y026200D03*
X034065D03*
X016035Y073800D03*
X015365D03*
X016035Y077100D03*
X015365D03*
X016035Y070600D03*
X015365D03*
G54D13*
X011852Y064800D03*
X012600D03*
X011852Y052500D03*
X012600D03*
X011826Y067100D03*
X012574D03*
X011876Y054950D03*
X012624D03*
X016026Y067100D03*
X016774D03*
X016026Y055000D03*
X016774D03*
X020226Y067100D03*
X020974D03*
X020326Y055000D03*
X021074D03*
X025374Y067100D03*
X024626D03*
X025274Y055000D03*
X024526D03*
X029574Y067100D03*
X028826D03*
X029474Y055000D03*
X028726D03*
X033874Y067100D03*
X033126D03*
X033774Y055000D03*
X033026D03*
X033774Y064800D03*
X033026D03*
X033774Y052500D03*
X033026D03*
G54D49*
X018800Y026237D03*
Y027163D03*
G54D50*
X016387Y025026D03*
Y025774D03*
X017213Y025400D03*
G54D51*
X034329Y018406D03*
G54D52*
X034329Y017500D03*
Y016594D03*
G54D53*
X031671Y017500D03*
M02*