%FSDAX24Y24*%
%MOIN*%
%SFA1B1*%

%IPPOS*%
%ADD22C,0.010000*%
%ADD54C,0.023600*%
%ADD55C,0.009800*%
%ADD56C,0.007900*%
%ADD57C,0.001000*%
%ADD58C,0.008000*%
%LNde-120824-1*%
%LPD*%
G54D22*
X016232Y073850D02*
D01*
X016230Y073887*
X016226Y073924*
X016220Y073960*
X016211Y073996*
X016199Y074031*
X016186Y074066*
X016169Y074099*
X016151Y074131*
X016130Y074162*
X016107Y074191*
X016082Y074219*
X016055Y074245*
X016027Y074269*
X015997Y074291*
X015966Y074310*
X015933Y074328*
X015899Y074343*
X015864Y074355*
X015828Y074366*
X015792Y074373*
X015755Y074379*
X015718Y074381*
X015681*
X015644Y074379*
X015607Y074373*
X015571Y074366*
X015535Y074355*
X015500Y074343*
X015466Y074328*
X015434Y074310*
X015402Y074291*
X015372Y074269*
X015344Y074245*
X015317Y074219*
X015292Y074191*
X015269Y074162*
X015248Y074131*
X015230Y074099*
X015213Y074066*
X015200Y074031*
X015188Y073996*
X015179Y073960*
X015173Y073924*
X015169Y073887*
X015168Y073850*
X015169Y073812*
X015173Y073775*
X015179Y073739*
X015188Y073703*
X015200Y073668*
X015213Y073633*
X015230Y073600*
X015248Y073568*
X015269Y073537*
X015292Y073508*
X015317Y073480*
X015344Y073454*
X015372Y073430*
X015402Y073408*
X015434Y073389*
X015466Y073371*
X015500Y073356*
X015535Y073344*
X015571Y073333*
X015607Y073326*
X015644Y073320*
X015681Y073318*
X015718*
X015755Y073320*
X015792Y073326*
X015828Y073333*
X015864Y073344*
X015899Y073356*
X015933Y073371*
X015966Y073389*
X015997Y073408*
X016027Y073430*
X016055Y073454*
X016082Y073480*
X016107Y073508*
X016130Y073537*
X016151Y073568*
X016169Y073600*
X016186Y073633*
X016199Y073668*
X016211Y073703*
X016220Y073739*
X016226Y073775*
X016230Y073812*
X016232Y073850*
Y077100D02*
D01*
X016230Y077137*
X016226Y077174*
X016220Y077210*
X016211Y077246*
X016199Y077281*
X016186Y077316*
X016169Y077349*
X016151Y077381*
X016130Y077412*
X016107Y077441*
X016082Y077469*
X016055Y077495*
X016027Y077519*
X015997Y077541*
X015966Y077560*
X015933Y077578*
X015899Y077593*
X015864Y077605*
X015828Y077616*
X015792Y077623*
X015755Y077629*
X015718Y077631*
X015681*
X015644Y077629*
X015607Y077623*
X015571Y077616*
X015535Y077605*
X015500Y077593*
X015466Y077578*
X015434Y077560*
X015402Y077541*
X015372Y077519*
X015344Y077495*
X015317Y077469*
X015292Y077441*
X015269Y077412*
X015248Y077381*
X015230Y077349*
X015213Y077316*
X015200Y077281*
X015188Y077246*
X015179Y077210*
X015173Y077174*
X015169Y077137*
X015168Y077100*
X015169Y077062*
X015173Y077025*
X015179Y076989*
X015188Y076953*
X015200Y076918*
X015213Y076883*
X015230Y076850*
X015248Y076818*
X015269Y076787*
X015292Y076758*
X015317Y076730*
X015344Y076704*
X015372Y076680*
X015402Y076658*
X015434Y076639*
X015466Y076621*
X015500Y076606*
X015535Y076594*
X015571Y076583*
X015607Y076576*
X015644Y076570*
X015681Y076568*
X015718*
X015755Y076570*
X015792Y076576*
X015828Y076583*
X015864Y076594*
X015899Y076606*
X015933Y076621*
X015966Y076639*
X015997Y076658*
X016027Y076680*
X016055Y076704*
X016082Y076730*
X016107Y076758*
X016130Y076787*
X016151Y076818*
X016169Y076850*
X016186Y076883*
X016199Y076918*
X016211Y076953*
X016220Y076989*
X016226Y077025*
X016230Y077062*
X016232Y077100*
Y070600D02*
D01*
X016230Y070637*
X016226Y070674*
X016220Y070710*
X016211Y070746*
X016199Y070781*
X016186Y070816*
X016169Y070849*
X016151Y070881*
X016130Y070912*
X016107Y070941*
X016082Y070969*
X016055Y070995*
X016027Y071019*
X015997Y071041*
X015966Y071060*
X015933Y071078*
X015899Y071093*
X015864Y071105*
X015828Y071116*
X015792Y071123*
X015755Y071129*
X015718Y071131*
X015681*
X015644Y071129*
X015607Y071123*
X015571Y071116*
X015535Y071105*
X015500Y071093*
X015466Y071078*
X015434Y071060*
X015402Y071041*
X015372Y071019*
X015344Y070995*
X015317Y070969*
X015292Y070941*
X015269Y070912*
X015248Y070881*
X015230Y070849*
X015213Y070816*
X015200Y070781*
X015188Y070746*
X015179Y070710*
X015173Y070674*
X015169Y070637*
X015168Y070600*
X015169Y070562*
X015173Y070525*
X015179Y070489*
X015188Y070453*
X015200Y070418*
X015213Y070383*
X015230Y070350*
X015248Y070318*
X015269Y070287*
X015292Y070258*
X015317Y070230*
X015344Y070204*
X015372Y070180*
X015402Y070158*
X015434Y070139*
X015466Y070121*
X015500Y070106*
X015535Y070094*
X015571Y070083*
X015607Y070076*
X015644Y070070*
X015681Y070068*
X015718*
X015755Y070070*
X015792Y070076*
X015828Y070083*
X015864Y070094*
X015899Y070106*
X015933Y070121*
X015966Y070139*
X015997Y070158*
X016027Y070180*
X016055Y070204*
X016082Y070230*
X016107Y070258*
X016130Y070287*
X016151Y070318*
X016169Y070350*
X016186Y070383*
X016199Y070418*
X016211Y070453*
X016220Y070489*
X016226Y070525*
X016230Y070562*
X016232Y070600*
X010412Y029121D02*
X019388D01*
X010412Y024279D02*
Y029121D01*
X019388Y024279D02*
Y029121D01*
X010412Y024279D02*
X019388D01*
X031532Y039475D02*
X035468D01*
Y042675*
X031532Y039475D02*
Y042675D01*
X035468*
X023247Y010825D02*
X029153D01*
X023247Y013975D02*
X029153D01*
X023247Y010825D02*
Y013975D01*
X029153Y010825D02*
Y013975D01*
X017347Y010825D02*
X023253D01*
X017347Y013975D02*
X023253D01*
X017347Y010825D02*
Y013975D01*
X023253Y010825D02*
Y013975D01*
X011447Y010825D02*
X017353D01*
X011447Y013975D02*
X017353D01*
X011447Y010825D02*
Y013975D01*
X017353Y010825D02*
Y013975D01*
X011447Y042675D02*
X017353D01*
X011447Y039525D02*
X017353D01*
Y042675*
X011447Y039525D02*
Y042675D01*
X031516Y014025D02*
X035453D01*
X031516Y010825D02*
Y014025D01*
X035453Y010825D02*
Y014025D01*
X031516Y010825D02*
X035453D01*
X017347Y042675D02*
X023253D01*
X017347Y039525D02*
X023253D01*
Y042675*
X017347Y039525D02*
Y042675D01*
X023216Y042725D02*
X027153D01*
X023216Y039525D02*
Y042725D01*
X027153Y039525D02*
Y042725D01*
X023216Y039525D02*
X027153D01*
X016800Y072800D02*
Y074950D01*
X014550D02*
X016800D01*
X014550Y072800D02*
Y074950D01*
Y072800D02*
X016800D01*
Y076050D02*
Y078200D01*
X014550D02*
X016800D01*
X014550Y076050D02*
Y078200D01*
Y076050D02*
X016800D01*
Y069550D02*
Y071700D01*
X014550D02*
X016800D01*
X014550Y069550D02*
Y071700D01*
Y069550D02*
X016800D01*
X023600Y070250D02*
Y070650D01*
X023800Y070850*
X024000Y070650*
Y070250*
Y070550*
X023600*
X024200Y070850D02*
Y070250D01*
X024500*
X024600Y070350*
Y070750*
X024500Y070850*
X024200*
X024800D02*
Y070250D01*
X025100*
X025199Y070350*
Y070750*
X025100Y070850*
X024800*
X025399Y070250D02*
Y070850D01*
X025699*
X025799Y070750*
Y070550*
X025699Y070450*
X025399*
X025599D02*
X025799Y070250D01*
X026399Y070850D02*
X025999D01*
Y070250*
X026399*
X025999Y070550D02*
X026199D01*
X026999Y070750D02*
X026899Y070850D01*
X026699*
X026599Y070750*
Y070650*
X026699Y070550*
X026899*
X026999Y070450*
Y070350*
X026899Y070250*
X026699*
X026599Y070350*
X027599Y070750D02*
X027499Y070850D01*
X027299*
X027199Y070750*
Y070650*
X027299Y070550*
X027499*
X027599Y070450*
Y070350*
X027499Y070250*
X027299*
X027199Y070350*
X017000Y073600D02*
Y074200D01*
X017200Y074000*
X017400Y074200*
Y073600*
X017600Y074200D02*
Y073800D01*
X017800Y073600*
X018000Y073800*
Y074200*
X017000Y077400D02*
Y076900D01*
X017100Y076800*
X017300*
X017400Y076900*
Y077400*
X017600Y076800D02*
Y077400D01*
X017900*
X018000Y077300*
Y077100*
X017900Y077000*
X017600*
X017000Y071000D02*
Y070400D01*
X017300*
X017400Y070500*
Y070900*
X017300Y071000*
X017000*
X017600Y070400D02*
Y071000D01*
X018000Y070400*
Y071000*
X011200Y072700D02*
Y072100D01*
X011600*
X012200Y072700D02*
X011800D01*
Y072100*
X012200*
X011800Y072400D02*
X012000D01*
X012400Y072100D02*
Y072500D01*
X012600Y072700*
X012799Y072500*
Y072100*
Y072400*
X012400*
X012999Y072100D02*
Y072700D01*
X013299*
X013399Y072600*
Y072400*
X013299Y072300*
X012999*
X013199D02*
X013399Y072100D01*
X013599D02*
Y072700D01*
X013999Y072100*
Y072700*
X018350Y075150D02*
X018150D01*
X018250*
Y074650*
X018150Y074550*
X018050*
X017950Y074650*
X018550Y075050D02*
X018650Y075150D01*
X018850*
X018950Y075050*
Y074650*
X018850Y074550*
X018650*
X018550Y074650*
Y075050*
X020650Y075150D02*
X020450D01*
X020550*
Y074650*
X020450Y074550*
X020350*
X020250Y074650*
X020850Y074550D02*
X021050D01*
X020950*
Y075150*
X020850Y075050*
X022700Y075150D02*
X022500D01*
X022600*
Y074650*
X022500Y074550*
X022400*
X022300Y074650*
X023300Y074550D02*
X022900D01*
X023300Y074950*
Y075050*
X023200Y075150*
X023000*
X022900Y075050*
X024850Y075150D02*
X024650D01*
X024750*
Y074650*
X024650Y074550*
X024550*
X024450Y074650*
X025050Y075050D02*
X025150Y075150D01*
X025350*
X025450Y075050*
Y074950*
X025350Y074850*
X025250*
X025350*
X025450Y074750*
Y074650*
X025350Y074550*
X025150*
X025050Y074650*
X026950Y075150D02*
X026750D01*
X026850*
Y074650*
X026750Y074550*
X026650*
X026550Y074650*
X027450Y074550D02*
Y075150D01*
X027150Y074850*
X027550*
X029150Y075150D02*
X028950D01*
X029050*
Y074650*
X028950Y074550*
X028850*
X028750Y074650*
X029750Y075150D02*
X029350D01*
Y074850*
X029550Y074950*
X029650*
X029750Y074850*
Y074650*
X029650Y074550*
X029450*
X029350Y074650*
X031300Y075150D02*
X031100D01*
X031200*
Y074650*
X031100Y074550*
X031000*
X030900Y074650*
X031900Y075150D02*
X031700Y075050D01*
X031500Y074850*
Y074650*
X031600Y074550*
X031800*
X031900Y074650*
Y074750*
X031800Y074850*
X031500*
X033600Y075200D02*
X033400D01*
X033500*
Y074700*
X033400Y074600*
X033300*
X033200Y074700*
X033800Y075200D02*
X034200D01*
Y075100*
X033800Y074700*
Y074600*
X024000Y015300D02*
X024200D01*
X024100*
Y015700*
X024000*
X024500Y015300D02*
Y015900D01*
X024700Y015700*
X024900Y015900*
Y015300*
X025500Y015900D02*
X025100D01*
Y015300*
X025500*
X025100Y015600D02*
X025300D01*
X025699Y015900D02*
Y015300D01*
X025999*
X026099Y015400*
Y015800*
X025999Y015900*
X025699*
X026299D02*
X026499D01*
X026399*
Y015300*
X026299*
X026499*
X026799D02*
Y015700D01*
X026999Y015900*
X027199Y015700*
Y015300*
Y015600*
X026799*
X011350Y014850D02*
Y014550D01*
X011450Y014450*
X011550Y014550*
X011650Y014450*
X011750Y014550*
Y014850*
X011950D02*
Y014550D01*
X012050Y014450*
X012150Y014550*
X012250Y014450*
X012350Y014550*
Y014850*
X012550D02*
Y014550D01*
X012650Y014450*
X012750Y014550*
X012850Y014450*
X012949Y014550*
Y014850*
X013149Y014450D02*
Y014550D01*
X013249*
Y014450*
X013149*
X013649D02*
X013849D01*
X013749*
Y014850*
X013649*
X014149Y014450D02*
Y014850D01*
X014249*
X014349Y014750*
Y014450*
Y014750*
X014449Y014850*
X014549Y014750*
Y014450*
X015049D02*
X014849D01*
X014749Y014550*
Y014750*
X014849Y014850*
X015049*
X015149Y014750*
Y014650*
X014749*
X015749Y015050D02*
Y014450D01*
X015449*
X015349Y014550*
Y014750*
X015449Y014850*
X015749*
X015949Y014450D02*
X016148D01*
X016048*
Y014850*
X015949*
X016548D02*
X016748D01*
X016848Y014750*
Y014450*
X016548*
X016448Y014550*
X016548Y014650*
X016848*
X017048Y014450D02*
Y014550D01*
X017148*
Y014450*
X017048*
X017548Y015050D02*
Y014450D01*
X017848*
X017948Y014550*
Y014650*
Y014750*
X017848Y014850*
X017548*
X018248D02*
X018448D01*
X018548Y014750*
Y014450*
X018248*
X018148Y014550*
X018248Y014650*
X018548*
X011450Y038700D02*
Y038100D01*
X011750*
X011850Y038200*
Y038600*
X011750Y038700*
X011450*
X012450D02*
X012050D01*
Y038100*
X012450*
X012050Y038400D02*
X012250D01*
X012650D02*
X013049D01*
X013249Y038100D02*
X013449D01*
X013349*
Y038700*
X013249Y038600*
X014149Y038100D02*
X013749D01*
X014149Y038500*
Y038600*
X014049Y038700*
X013849*
X013749Y038600*
X014349D02*
X014449Y038700D01*
X014649*
X014749Y038600*
Y038200*
X014649Y038100*
X014449*
X014349Y038200*
Y038600*
X014949D02*
X015049Y038700D01*
X015249*
X015349Y038600*
Y038500*
X015249Y038400*
X015349Y038300*
Y038200*
X015249Y038100*
X015049*
X014949Y038200*
Y038300*
X015049Y038400*
X014949Y038500*
Y038600*
X015049Y038400D02*
X015249D01*
X015949Y038100D02*
X015549D01*
X015949Y038500*
Y038600*
X015849Y038700*
X015649*
X015549Y038600*
X016448Y038100D02*
Y038700D01*
X016148Y038400*
X016548*
X011450Y037150D02*
Y037550D01*
X011650Y037750*
X011850Y037550*
Y037150*
Y037450*
X011450*
X012050Y037750D02*
Y037250D01*
X012150Y037150*
X012350*
X012450Y037250*
Y037750*
X013049Y037650D02*
X012950Y037750D01*
X012750*
X012650Y037650*
Y037250*
X012750Y037150*
X012950*
X013049Y037250*
Y037450*
X012850*
X013249Y037150D02*
Y037250D01*
X013349*
Y037150*
X013249*
X014749D02*
X014349D01*
X014749Y037550*
Y037650*
X014649Y037750*
X014449*
X014349Y037650*
X014949D02*
X015049Y037750D01*
X015249*
X015349Y037650*
Y037250*
X015249Y037150*
X015049*
X014949Y037250*
Y037650*
X015949Y037150D02*
X015549D01*
X015949Y037550*
Y037650*
X015849Y037750*
X015649*
X015549Y037650*
X016448Y037150D02*
Y037750D01*
X016148Y037450*
X016548*
X016748Y037150D02*
Y037250D01*
X016848*
Y037150*
X016748*
X022550Y014900D02*
X022450Y015000D01*
X022250*
X022150Y014900*
Y014800*
X022250Y014700*
X022450*
X022550Y014600*
Y014500*
X022450Y014400*
X022250*
X022150Y014500*
X022850Y014800D02*
X023050D01*
X023150Y014700*
Y014400*
X022850*
X022750Y014500*
X022850Y014600*
X023150*
X023350Y014800D02*
Y014400D01*
Y014600*
X023450Y014700*
X023550Y014800*
X023650*
X024049D02*
X024249D01*
X024349Y014700*
Y014400*
X024049*
X023949Y014500*
X024049Y014600*
X024349*
X024549Y014200D02*
X024649D01*
X024749Y014300*
Y014800*
X025449Y014400D02*
X025249D01*
X025149Y014500*
Y014700*
X025249Y014800*
X025449*
X025549Y014700*
Y014600*
X025149*
X025749Y014800D02*
X025949Y014400D01*
X026149Y014800*
X026449Y014400D02*
X026649D01*
X026749Y014500*
Y014700*
X026649Y014800*
X026449*
X026349Y014700*
Y014500*
X026449Y014400*
X027548Y015000D02*
Y014400D01*
X027848*
X027948Y014500*
Y014600*
X027848Y014700*
X027548*
X027848*
X027948Y014800*
Y014900*
X027848Y015000*
X027548*
X028148Y014400D02*
X028348D01*
X028248*
Y014800*
X028148*
X028648Y015000D02*
Y014400D01*
Y014700*
X029048*
Y015000*
Y014400*
G54D54*
X033529Y071400D02*
D01*
X033528Y071408*
X033527Y071416*
X033526Y071424*
X033524Y071432*
X033521Y071440*
X033518Y071447*
X033515Y071455*
X033511Y071462*
X033506Y071469*
X033501Y071475*
X033495Y071481*
X033489Y071487*
X033483Y071492*
X033476Y071497*
X033470Y071502*
X033462Y071506*
X033455Y071509*
X033447Y071512*
X033439Y071514*
X033431Y071516*
X033423Y071517*
X033415Y071517*
X033406*
X033398Y071517*
X033390Y071516*
X033382Y071514*
X033374Y071512*
X033366Y071509*
X033359Y071506*
X033352Y071502*
X033345Y071497*
X033338Y071492*
X033332Y071487*
X033326Y071481*
X033320Y071475*
X033315Y071469*
X033310Y071462*
X033306Y071455*
X033303Y071447*
X033300Y071440*
X033297Y071432*
X033295Y071424*
X033294Y071416*
X033293Y071408*
X033293Y071400*
X033293Y071391*
X033294Y071383*
X033295Y071375*
X033297Y071367*
X033300Y071359*
X033303Y071352*
X033306Y071344*
X033310Y071337*
X033315Y071330*
X033320Y071324*
X033326Y071318*
X033332Y071312*
X033338Y071307*
X033345Y071302*
X033352Y071297*
X033359Y071293*
X033366Y071290*
X033374Y071287*
X033382Y071285*
X033390Y071283*
X033398Y071282*
X033406Y071282*
X033415*
X033423Y071282*
X033431Y071283*
X033439Y071285*
X033447Y071287*
X033455Y071290*
X033462Y071293*
X033470Y071297*
X033476Y071302*
X033483Y071307*
X033489Y071312*
X033495Y071318*
X033501Y071324*
X033506Y071330*
X033511Y071337*
X033515Y071344*
X033518Y071352*
X033521Y071359*
X033524Y071367*
X033526Y071375*
X033527Y071383*
X033528Y071391*
X033529Y071400*
X034069Y033961D02*
D01*
X034068Y033969*
X034067Y033977*
X034066Y033985*
X034064Y033993*
X034061Y034001*
X034058Y034008*
X034055Y034016*
X034051Y034023*
X034046Y034030*
X034041Y034036*
X034035Y034042*
X034029Y034048*
X034023Y034053*
X034016Y034058*
X034010Y034063*
X034002Y034067*
X033995Y034070*
X033987Y034073*
X033979Y034075*
X033971Y034077*
X033963Y034078*
X033955Y034078*
X033946*
X033938Y034078*
X033930Y034077*
X033922Y034075*
X033914Y034073*
X033906Y034070*
X033899Y034067*
X033892Y034063*
X033885Y034058*
X033878Y034053*
X033872Y034048*
X033866Y034042*
X033860Y034036*
X033855Y034030*
X033850Y034023*
X033846Y034016*
X033843Y034008*
X033840Y034001*
X033837Y033993*
X033835Y033985*
X033834Y033977*
X033833Y033969*
X033833Y033961*
X033833Y033952*
X033834Y033944*
X033835Y033936*
X033837Y033928*
X033840Y033920*
X033843Y033913*
X033846Y033905*
X033850Y033898*
X033855Y033891*
X033860Y033885*
X033866Y033879*
X033872Y033873*
X033878Y033868*
X033885Y033863*
X033892Y033858*
X033899Y033854*
X033906Y033851*
X033914Y033848*
X033922Y033846*
X033930Y033844*
X033938Y033843*
X033946Y033843*
X033955*
X033963Y033843*
X033971Y033844*
X033979Y033846*
X033987Y033848*
X033995Y033851*
X034002Y033854*
X034010Y033858*
X034016Y033863*
X034023Y033868*
X034029Y033873*
X034035Y033879*
X034041Y033885*
X034046Y033891*
X034051Y033898*
X034055Y033905*
X034058Y033913*
X034061Y033920*
X034064Y033928*
X034066Y033936*
X034067Y033944*
X034068Y033952*
X034069Y033961*
X025507Y026411D02*
D01*
X025506Y026419*
X025505Y026427*
X025504Y026435*
X025502Y026443*
X025499Y026451*
X025496Y026458*
X025493Y026466*
X025489Y026473*
X025484Y026480*
X025479Y026486*
X025473Y026492*
X025467Y026498*
X025461Y026503*
X025454Y026508*
X025448Y026513*
X025440Y026517*
X025433Y026520*
X025425Y026523*
X025417Y026525*
X025409Y026527*
X025401Y026528*
X025393Y026528*
X025384*
X025376Y026528*
X025368Y026527*
X025360Y026525*
X025352Y026523*
X025344Y026520*
X025337Y026517*
X025330Y026513*
X025323Y026508*
X025316Y026503*
X025310Y026498*
X025304Y026492*
X025298Y026486*
X025293Y026480*
X025288Y026473*
X025284Y026466*
X025281Y026458*
X025278Y026451*
X025275Y026443*
X025273Y026435*
X025272Y026427*
X025271Y026419*
X025271Y026411*
X025271Y026402*
X025272Y026394*
X025273Y026386*
X025275Y026378*
X025278Y026370*
X025281Y026363*
X025284Y026355*
X025288Y026348*
X025293Y026341*
X025298Y026335*
X025304Y026329*
X025310Y026323*
X025316Y026318*
X025323Y026313*
X025330Y026308*
X025337Y026304*
X025344Y026301*
X025352Y026298*
X025360Y026296*
X025368Y026294*
X025376Y026293*
X025384Y026293*
X025393*
X025401Y026293*
X025409Y026294*
X025417Y026296*
X025425Y026298*
X025433Y026301*
X025440Y026304*
X025448Y026308*
X025454Y026313*
X025461Y026318*
X025467Y026323*
X025473Y026329*
X025479Y026335*
X025484Y026341*
X025489Y026348*
X025493Y026355*
X025496Y026363*
X025499Y026370*
X025502Y026378*
X025504Y026386*
X025505Y026394*
X025506Y026402*
X025507Y026411*
G54D55*
X033511Y072250D02*
D01*
X033510Y072253*
X033510Y072256*
X033509Y072260*
X033509Y072263*
X033508Y072266*
X033506Y072269*
X033505Y072273*
X033503Y072275*
X033501Y072278*
X033499Y072281*
X033497Y072284*
X033494Y072286*
X033492Y072288*
X033489Y072290*
X033486Y072292*
X033483Y072294*
X033480Y072295*
X033477Y072296*
X033473Y072297*
X033470Y072298*
X033467Y072298*
X033463Y072298*
X033460*
X033456Y072298*
X033453Y072298*
X033450Y072297*
X033446Y072296*
X033443Y072295*
X033440Y072294*
X033437Y072292*
X033434Y072290*
X033431Y072288*
X033429Y072286*
X033426Y072284*
X033424Y072281*
X033422Y072278*
X033420Y072275*
X033418Y072273*
X033417Y072269*
X033415Y072266*
X033414Y072263*
X033414Y072260*
X033413Y072256*
X033413Y072253*
X033413Y072250*
X033413Y072246*
X033413Y072243*
X033414Y072239*
X033414Y072236*
X033415Y072233*
X033417Y072230*
X033418Y072226*
X033420Y072224*
X033422Y072221*
X033424Y072218*
X033426Y072215*
X033429Y072213*
X033431Y072211*
X033434Y072209*
X033437Y072207*
X033440Y072205*
X033443Y072204*
X033446Y072203*
X033450Y072202*
X033453Y072201*
X033456Y072201*
X033460Y072201*
X033463*
X033467Y072201*
X033470Y072201*
X033473Y072202*
X033477Y072203*
X033480Y072204*
X033483Y072205*
X033486Y072207*
X033489Y072209*
X033492Y072211*
X033494Y072213*
X033497Y072215*
X033499Y072218*
X033501Y072221*
X033503Y072224*
X033505Y072226*
X033506Y072230*
X033508Y072233*
X033509Y072236*
X033509Y072239*
X033510Y072243*
X033510Y072246*
X033511Y072250*
X021215Y021255D02*
D01*
X021214Y021258*
X021214Y021261*
X021213Y021265*
X021213Y021268*
X021212Y021271*
X021210Y021274*
X021209Y021278*
X021207Y021280*
X021205Y021283*
X021203Y021286*
X021201Y021289*
X021198Y021291*
X021196Y021293*
X021193Y021295*
X021190Y021297*
X021187Y021299*
X021184Y021300*
X021181Y021301*
X021177Y021302*
X021174Y021303*
X021171Y021303*
X021167Y021303*
X021164*
X021160Y021303*
X021157Y021303*
X021154Y021302*
X021150Y021301*
X021147Y021300*
X021144Y021299*
X021141Y021297*
X021138Y021295*
X021135Y021293*
X021133Y021291*
X021130Y021289*
X021128Y021286*
X021126Y021283*
X021124Y021280*
X021122Y021278*
X021121Y021274*
X021119Y021271*
X021118Y021268*
X021118Y021265*
X021117Y021261*
X021117Y021258*
X021117Y021255*
X021117Y021251*
X021117Y021248*
X021118Y021244*
X021118Y021241*
X021119Y021238*
X021121Y021235*
X021122Y021231*
X021124Y021229*
X021126Y021226*
X021128Y021223*
X021130Y021220*
X021133Y021218*
X021135Y021216*
X021138Y021214*
X021141Y021212*
X021144Y021210*
X021147Y021209*
X021150Y021208*
X021154Y021207*
X021157Y021206*
X021160Y021206*
X021164Y021206*
X021167*
X021171Y021206*
X021174Y021206*
X021177Y021207*
X021181Y021208*
X021184Y021209*
X021187Y021210*
X021190Y021212*
X021193Y021214*
X021196Y021216*
X021198Y021218*
X021201Y021220*
X021203Y021223*
X021205Y021226*
X021207Y021229*
X021209Y021231*
X021210Y021235*
X021212Y021238*
X021213Y021241*
X021213Y021244*
X021214Y021248*
X021214Y021251*
X021215Y021255*
X014533Y063800D02*
D01*
X014532Y063803*
X014532Y063806*
X014531Y063810*
X014531Y063813*
X014530Y063816*
X014528Y063819*
X014527Y063823*
X014525Y063825*
X014523Y063828*
X014521Y063831*
X014519Y063834*
X014516Y063836*
X014514Y063838*
X014511Y063840*
X014508Y063842*
X014505Y063844*
X014502Y063845*
X014499Y063846*
X014495Y063847*
X014492Y063848*
X014489Y063848*
X014485Y063848*
X014482*
X014478Y063848*
X014475Y063848*
X014472Y063847*
X014468Y063846*
X014465Y063845*
X014462Y063844*
X014459Y063842*
X014456Y063840*
X014453Y063838*
X014451Y063836*
X014448Y063834*
X014446Y063831*
X014444Y063828*
X014442Y063825*
X014440Y063823*
X014439Y063819*
X014437Y063816*
X014436Y063813*
X014436Y063810*
X014435Y063806*
X014435Y063803*
X014435Y063800*
X014435Y063796*
X014435Y063793*
X014436Y063789*
X014436Y063786*
X014437Y063783*
X014439Y063780*
X014440Y063776*
X014442Y063774*
X014444Y063771*
X014446Y063768*
X014448Y063765*
X014451Y063763*
X014453Y063761*
X014456Y063759*
X014459Y063757*
X014462Y063755*
X014465Y063754*
X014468Y063753*
X014472Y063752*
X014475Y063751*
X014478Y063751*
X014482Y063751*
X014485*
X014489Y063751*
X014492Y063751*
X014495Y063752*
X014499Y063753*
X014502Y063754*
X014505Y063755*
X014508Y063757*
X014511Y063759*
X014514Y063761*
X014516Y063763*
X014519Y063765*
X014521Y063768*
X014523Y063771*
X014525Y063774*
X014527Y063776*
X014528Y063780*
X014530Y063783*
X014531Y063786*
X014531Y063789*
X014532Y063793*
X014532Y063796*
X014533Y063800*
Y051669D02*
D01*
X014532Y051672*
X014532Y051675*
X014531Y051679*
X014531Y051682*
X014530Y051685*
X014528Y051688*
X014527Y051692*
X014525Y051694*
X014523Y051697*
X014521Y051700*
X014519Y051703*
X014516Y051705*
X014514Y051707*
X014511Y051709*
X014508Y051711*
X014505Y051713*
X014502Y051714*
X014499Y051715*
X014495Y051716*
X014492Y051717*
X014489Y051717*
X014485Y051717*
X014482*
X014478Y051717*
X014475Y051717*
X014472Y051716*
X014468Y051715*
X014465Y051714*
X014462Y051713*
X014459Y051711*
X014456Y051709*
X014453Y051707*
X014451Y051705*
X014448Y051703*
X014446Y051700*
X014444Y051697*
X014442Y051694*
X014440Y051692*
X014439Y051688*
X014437Y051685*
X014436Y051682*
X014436Y051679*
X014435Y051675*
X014435Y051672*
X014435Y051669*
X014435Y051665*
X014435Y051662*
X014436Y051658*
X014436Y051655*
X014437Y051652*
X014439Y051649*
X014440Y051645*
X014442Y051643*
X014444Y051640*
X014446Y051637*
X014448Y051634*
X014451Y051632*
X014453Y051630*
X014456Y051628*
X014459Y051626*
X014462Y051624*
X014465Y051623*
X014468Y051622*
X014472Y051621*
X014475Y051620*
X014478Y051620*
X014482Y051620*
X014485*
X014489Y051620*
X014492Y051620*
X014495Y051621*
X014499Y051622*
X014502Y051623*
X014505Y051624*
X014508Y051626*
X014511Y051628*
X014514Y051630*
X014516Y051632*
X014519Y051634*
X014521Y051637*
X014523Y051640*
X014525Y051643*
X014527Y051645*
X014528Y051649*
X014530Y051652*
X014531Y051655*
X014531Y051658*
X014532Y051662*
X014532Y051665*
X014533Y051669*
Y066200D02*
D01*
X014532Y066203*
X014532Y066206*
X014531Y066210*
X014531Y066213*
X014530Y066216*
X014528Y066219*
X014527Y066223*
X014525Y066225*
X014523Y066228*
X014521Y066231*
X014519Y066234*
X014516Y066236*
X014514Y066238*
X014511Y066240*
X014508Y066242*
X014505Y066244*
X014502Y066245*
X014499Y066246*
X014495Y066247*
X014492Y066248*
X014489Y066248*
X014485Y066248*
X014482*
X014478Y066248*
X014475Y066248*
X014472Y066247*
X014468Y066246*
X014465Y066245*
X014462Y066244*
X014459Y066242*
X014456Y066240*
X014453Y066238*
X014451Y066236*
X014448Y066234*
X014446Y066231*
X014444Y066228*
X014442Y066225*
X014440Y066223*
X014439Y066219*
X014437Y066216*
X014436Y066213*
X014436Y066210*
X014435Y066206*
X014435Y066203*
X014435Y066200*
X014435Y066196*
X014435Y066193*
X014436Y066189*
X014436Y066186*
X014437Y066183*
X014439Y066180*
X014440Y066176*
X014442Y066174*
X014444Y066171*
X014446Y066168*
X014448Y066165*
X014451Y066163*
X014453Y066161*
X014456Y066159*
X014459Y066157*
X014462Y066155*
X014465Y066154*
X014468Y066153*
X014472Y066152*
X014475Y066151*
X014478Y066151*
X014482Y066151*
X014485*
X014489Y066151*
X014492Y066151*
X014495Y066152*
X014499Y066153*
X014502Y066154*
X014505Y066155*
X014508Y066157*
X014511Y066159*
X014514Y066161*
X014516Y066163*
X014519Y066165*
X014521Y066168*
X014523Y066171*
X014525Y066174*
X014527Y066176*
X014528Y066180*
X014530Y066183*
X014531Y066186*
X014531Y066189*
X014532Y066193*
X014532Y066196*
X014533Y066200*
Y054100D02*
D01*
X014532Y054103*
X014532Y054106*
X014531Y054110*
X014531Y054113*
X014530Y054116*
X014528Y054119*
X014527Y054123*
X014525Y054125*
X014523Y054128*
X014521Y054131*
X014519Y054134*
X014516Y054136*
X014514Y054138*
X014511Y054140*
X014508Y054142*
X014505Y054144*
X014502Y054145*
X014499Y054146*
X014495Y054147*
X014492Y054148*
X014489Y054148*
X014485Y054148*
X014482*
X014478Y054148*
X014475Y054148*
X014472Y054147*
X014468Y054146*
X014465Y054145*
X014462Y054144*
X014459Y054142*
X014456Y054140*
X014453Y054138*
X014451Y054136*
X014448Y054134*
X014446Y054131*
X014444Y054128*
X014442Y054125*
X014440Y054123*
X014439Y054119*
X014437Y054116*
X014436Y054113*
X014436Y054110*
X014435Y054106*
X014435Y054103*
X014435Y054100*
X014435Y054096*
X014435Y054093*
X014436Y054089*
X014436Y054086*
X014437Y054083*
X014439Y054080*
X014440Y054076*
X014442Y054074*
X014444Y054071*
X014446Y054068*
X014448Y054065*
X014451Y054063*
X014453Y054061*
X014456Y054059*
X014459Y054057*
X014462Y054055*
X014465Y054054*
X014468Y054053*
X014472Y054052*
X014475Y054051*
X014478Y054051*
X014482Y054051*
X014485*
X014489Y054051*
X014492Y054051*
X014495Y054052*
X014499Y054053*
X014502Y054054*
X014505Y054055*
X014508Y054057*
X014511Y054059*
X014514Y054061*
X014516Y054063*
X014519Y054065*
X014521Y054068*
X014523Y054071*
X014525Y054074*
X014527Y054076*
X014528Y054080*
X014530Y054083*
X014531Y054086*
X014531Y054089*
X014532Y054093*
X014532Y054096*
X014533Y054100*
X018723Y066200D02*
D01*
X018722Y066203*
X018722Y066206*
X018721Y066210*
X018721Y066213*
X018720Y066216*
X018718Y066219*
X018717Y066223*
X018715Y066225*
X018713Y066228*
X018711Y066231*
X018709Y066234*
X018706Y066236*
X018704Y066238*
X018701Y066240*
X018698Y066242*
X018695Y066244*
X018692Y066245*
X018689Y066246*
X018685Y066247*
X018682Y066248*
X018679Y066248*
X018675Y066248*
X018672*
X018668Y066248*
X018665Y066248*
X018662Y066247*
X018658Y066246*
X018655Y066245*
X018652Y066244*
X018649Y066242*
X018646Y066240*
X018643Y066238*
X018641Y066236*
X018638Y066234*
X018636Y066231*
X018634Y066228*
X018632Y066225*
X018630Y066223*
X018629Y066219*
X018627Y066216*
X018626Y066213*
X018626Y066210*
X018625Y066206*
X018625Y066203*
X018625Y066200*
X018625Y066196*
X018625Y066193*
X018626Y066189*
X018626Y066186*
X018627Y066183*
X018629Y066180*
X018630Y066176*
X018632Y066174*
X018634Y066171*
X018636Y066168*
X018638Y066165*
X018641Y066163*
X018643Y066161*
X018646Y066159*
X018649Y066157*
X018652Y066155*
X018655Y066154*
X018658Y066153*
X018662Y066152*
X018665Y066151*
X018668Y066151*
X018672Y066151*
X018675*
X018679Y066151*
X018682Y066151*
X018685Y066152*
X018689Y066153*
X018692Y066154*
X018695Y066155*
X018698Y066157*
X018701Y066159*
X018704Y066161*
X018706Y066163*
X018709Y066165*
X018711Y066168*
X018713Y066171*
X018715Y066174*
X018717Y066176*
X018718Y066180*
X018720Y066183*
X018721Y066186*
X018721Y066189*
X018722Y066193*
X018722Y066196*
X018723Y066200*
X018773Y054100D02*
D01*
X018772Y054103*
X018772Y054106*
X018771Y054110*
X018771Y054113*
X018770Y054116*
X018768Y054119*
X018767Y054123*
X018765Y054125*
X018763Y054128*
X018761Y054131*
X018759Y054134*
X018756Y054136*
X018754Y054138*
X018751Y054140*
X018748Y054142*
X018745Y054144*
X018742Y054145*
X018739Y054146*
X018735Y054147*
X018732Y054148*
X018729Y054148*
X018725Y054148*
X018722*
X018718Y054148*
X018715Y054148*
X018712Y054147*
X018708Y054146*
X018705Y054145*
X018702Y054144*
X018699Y054142*
X018696Y054140*
X018693Y054138*
X018691Y054136*
X018688Y054134*
X018686Y054131*
X018684Y054128*
X018682Y054125*
X018680Y054123*
X018679Y054119*
X018677Y054116*
X018676Y054113*
X018676Y054110*
X018675Y054106*
X018675Y054103*
X018675Y054100*
X018675Y054096*
X018675Y054093*
X018676Y054089*
X018676Y054086*
X018677Y054083*
X018679Y054080*
X018680Y054076*
X018682Y054074*
X018684Y054071*
X018686Y054068*
X018688Y054065*
X018691Y054063*
X018693Y054061*
X018696Y054059*
X018699Y054057*
X018702Y054055*
X018705Y054054*
X018708Y054053*
X018712Y054052*
X018715Y054051*
X018718Y054051*
X018722Y054051*
X018725*
X018729Y054051*
X018732Y054051*
X018735Y054052*
X018739Y054053*
X018742Y054054*
X018745Y054055*
X018748Y054057*
X018751Y054059*
X018754Y054061*
X018756Y054063*
X018759Y054065*
X018761Y054068*
X018763Y054071*
X018765Y054074*
X018767Y054076*
X018768Y054080*
X018770Y054083*
X018771Y054086*
X018771Y054089*
X018772Y054093*
X018772Y054096*
X018773Y054100*
X022914Y066200D02*
D01*
X022913Y066203*
X022913Y066206*
X022912Y066210*
X022912Y066213*
X022911Y066216*
X022909Y066219*
X022908Y066223*
X022906Y066225*
X022904Y066228*
X022902Y066231*
X022900Y066234*
X022897Y066236*
X022895Y066238*
X022892Y066240*
X022889Y066242*
X022886Y066244*
X022883Y066245*
X022880Y066246*
X022876Y066247*
X022873Y066248*
X022870Y066248*
X022866Y066248*
X022863*
X022859Y066248*
X022856Y066248*
X022853Y066247*
X022849Y066246*
X022846Y066245*
X022843Y066244*
X022840Y066242*
X022837Y066240*
X022834Y066238*
X022832Y066236*
X022829Y066234*
X022827Y066231*
X022825Y066228*
X022823Y066225*
X022821Y066223*
X022820Y066219*
X022818Y066216*
X022817Y066213*
X022817Y066210*
X022816Y066206*
X022816Y066203*
X022816Y066200*
X022816Y066196*
X022816Y066193*
X022817Y066189*
X022817Y066186*
X022818Y066183*
X022820Y066180*
X022821Y066176*
X022823Y066174*
X022825Y066171*
X022827Y066168*
X022829Y066165*
X022832Y066163*
X022834Y066161*
X022837Y066159*
X022840Y066157*
X022843Y066155*
X022846Y066154*
X022849Y066153*
X022853Y066152*
X022856Y066151*
X022859Y066151*
X022863Y066151*
X022866*
X022870Y066151*
X022873Y066151*
X022876Y066152*
X022880Y066153*
X022883Y066154*
X022886Y066155*
X022889Y066157*
X022892Y066159*
X022895Y066161*
X022897Y066163*
X022900Y066165*
X022902Y066168*
X022904Y066171*
X022906Y066174*
X022908Y066176*
X022909Y066180*
X022911Y066183*
X022912Y066186*
X022912Y066189*
X022913Y066193*
X022913Y066196*
X022914Y066200*
X023013Y054100D02*
D01*
X023012Y054103*
X023012Y054106*
X023011Y054110*
X023011Y054113*
X023010Y054116*
X023008Y054119*
X023007Y054123*
X023005Y054125*
X023003Y054128*
X023001Y054131*
X022999Y054134*
X022996Y054136*
X022994Y054138*
X022991Y054140*
X022988Y054142*
X022985Y054144*
X022982Y054145*
X022979Y054146*
X022975Y054147*
X022972Y054148*
X022969Y054148*
X022965Y054148*
X022962*
X022958Y054148*
X022955Y054148*
X022952Y054147*
X022948Y054146*
X022945Y054145*
X022942Y054144*
X022939Y054142*
X022936Y054140*
X022933Y054138*
X022931Y054136*
X022928Y054134*
X022926Y054131*
X022924Y054128*
X022922Y054125*
X022920Y054123*
X022919Y054119*
X022917Y054116*
X022916Y054113*
X022916Y054110*
X022915Y054106*
X022915Y054103*
X022915Y054100*
X022915Y054096*
X022915Y054093*
X022916Y054089*
X022916Y054086*
X022917Y054083*
X022919Y054080*
X022920Y054076*
X022922Y054074*
X022924Y054071*
X022926Y054068*
X022928Y054065*
X022931Y054063*
X022933Y054061*
X022936Y054059*
X022939Y054057*
X022942Y054055*
X022945Y054054*
X022948Y054053*
X022952Y054052*
X022955Y054051*
X022958Y054051*
X022962Y054051*
X022965*
X022969Y054051*
X022972Y054051*
X022975Y054052*
X022979Y054053*
X022982Y054054*
X022985Y054055*
X022988Y054057*
X022991Y054059*
X022994Y054061*
X022996Y054063*
X022999Y054065*
X023001Y054068*
X023003Y054071*
X023005Y054074*
X023007Y054076*
X023008Y054080*
X023010Y054083*
X023011Y054086*
X023011Y054089*
X023012Y054093*
X023012Y054096*
X023013Y054100*
X022784Y066031D02*
D01*
X022783Y066034*
X022783Y066037*
X022782Y066041*
X022782Y066044*
X022781Y066047*
X022779Y066050*
X022778Y066054*
X022776Y066056*
X022774Y066059*
X022772Y066062*
X022770Y066065*
X022767Y066067*
X022765Y066069*
X022762Y066071*
X022759Y066073*
X022756Y066075*
X022753Y066076*
X022750Y066077*
X022746Y066078*
X022743Y066079*
X022740Y066079*
X022736Y066079*
X022733*
X022729Y066079*
X022726Y066079*
X022723Y066078*
X022719Y066077*
X022716Y066076*
X022713Y066075*
X022710Y066073*
X022707Y066071*
X022704Y066069*
X022702Y066067*
X022699Y066065*
X022697Y066062*
X022695Y066059*
X022693Y066056*
X022691Y066054*
X022690Y066050*
X022688Y066047*
X022687Y066044*
X022687Y066041*
X022686Y066037*
X022686Y066034*
X022686Y066031*
X022686Y066027*
X022686Y066024*
X022687Y066020*
X022687Y066017*
X022688Y066014*
X022690Y066011*
X022691Y066007*
X022693Y066005*
X022695Y066002*
X022697Y065999*
X022699Y065996*
X022702Y065994*
X022704Y065992*
X022707Y065990*
X022710Y065988*
X022713Y065986*
X022716Y065985*
X022719Y065984*
X022723Y065983*
X022726Y065982*
X022729Y065982*
X022733Y065982*
X022736*
X022740Y065982*
X022743Y065982*
X022746Y065983*
X022750Y065984*
X022753Y065985*
X022756Y065986*
X022759Y065988*
X022762Y065990*
X022765Y065992*
X022767Y065994*
X022770Y065996*
X022772Y065999*
X022774Y066002*
X022776Y066005*
X022778Y066007*
X022779Y066011*
X022781Y066014*
X022782Y066017*
X022782Y066020*
X022783Y066024*
X022783Y066027*
X022784Y066031*
X022686Y053931D02*
D01*
X022685Y053934*
X022685Y053937*
X022684Y053941*
X022684Y053944*
X022683Y053947*
X022681Y053950*
X022680Y053954*
X022678Y053956*
X022676Y053959*
X022674Y053962*
X022672Y053965*
X022669Y053967*
X022667Y053969*
X022664Y053971*
X022661Y053973*
X022658Y053975*
X022655Y053976*
X022652Y053977*
X022648Y053978*
X022645Y053979*
X022642Y053979*
X022638Y053979*
X022635*
X022631Y053979*
X022628Y053979*
X022625Y053978*
X022621Y053977*
X022618Y053976*
X022615Y053975*
X022612Y053973*
X022609Y053971*
X022606Y053969*
X022604Y053967*
X022601Y053965*
X022599Y053962*
X022597Y053959*
X022595Y053956*
X022593Y053954*
X022592Y053950*
X022590Y053947*
X022589Y053944*
X022589Y053941*
X022588Y053937*
X022588Y053934*
X022588Y053931*
X022588Y053927*
X022588Y053924*
X022589Y053920*
X022589Y053917*
X022590Y053914*
X022592Y053911*
X022593Y053907*
X022595Y053905*
X022597Y053902*
X022599Y053899*
X022601Y053896*
X022604Y053894*
X022606Y053892*
X022609Y053890*
X022612Y053888*
X022615Y053886*
X022618Y053885*
X022621Y053884*
X022625Y053883*
X022628Y053882*
X022631Y053882*
X022635Y053882*
X022638*
X022642Y053882*
X022645Y053882*
X022648Y053883*
X022652Y053884*
X022655Y053885*
X022658Y053886*
X022661Y053888*
X022664Y053890*
X022667Y053892*
X022669Y053894*
X022672Y053896*
X022674Y053899*
X022676Y053902*
X022678Y053905*
X022680Y053907*
X022681Y053911*
X022683Y053914*
X022684Y053917*
X022684Y053920*
X022685Y053924*
X022685Y053927*
X022686Y053931*
X026975Y066031D02*
D01*
X026974Y066034*
X026974Y066037*
X026973Y066041*
X026973Y066044*
X026972Y066047*
X026970Y066050*
X026969Y066054*
X026967Y066056*
X026965Y066059*
X026963Y066062*
X026961Y066065*
X026958Y066067*
X026956Y066069*
X026953Y066071*
X026950Y066073*
X026947Y066075*
X026944Y066076*
X026941Y066077*
X026937Y066078*
X026934Y066079*
X026931Y066079*
X026927Y066079*
X026924*
X026920Y066079*
X026917Y066079*
X026914Y066078*
X026910Y066077*
X026907Y066076*
X026904Y066075*
X026901Y066073*
X026898Y066071*
X026895Y066069*
X026893Y066067*
X026890Y066065*
X026888Y066062*
X026886Y066059*
X026884Y066056*
X026882Y066054*
X026881Y066050*
X026879Y066047*
X026878Y066044*
X026878Y066041*
X026877Y066037*
X026877Y066034*
X026877Y066031*
X026877Y066027*
X026877Y066024*
X026878Y066020*
X026878Y066017*
X026879Y066014*
X026881Y066011*
X026882Y066007*
X026884Y066005*
X026886Y066002*
X026888Y065999*
X026890Y065996*
X026893Y065994*
X026895Y065992*
X026898Y065990*
X026901Y065988*
X026904Y065986*
X026907Y065985*
X026910Y065984*
X026914Y065983*
X026917Y065982*
X026920Y065982*
X026924Y065982*
X026927*
X026931Y065982*
X026934Y065982*
X026937Y065983*
X026941Y065984*
X026944Y065985*
X026947Y065986*
X026950Y065988*
X026953Y065990*
X026956Y065992*
X026958Y065994*
X026961Y065996*
X026963Y065999*
X026965Y066002*
X026967Y066005*
X026969Y066007*
X026970Y066011*
X026972Y066014*
X026973Y066017*
X026973Y066020*
X026974Y066024*
X026974Y066027*
X026975Y066031*
X026926Y053931D02*
D01*
X026925Y053934*
X026925Y053937*
X026924Y053941*
X026924Y053944*
X026923Y053947*
X026921Y053950*
X026920Y053954*
X026918Y053956*
X026916Y053959*
X026914Y053962*
X026912Y053965*
X026909Y053967*
X026907Y053969*
X026904Y053971*
X026901Y053973*
X026898Y053975*
X026895Y053976*
X026892Y053977*
X026888Y053978*
X026885Y053979*
X026882Y053979*
X026878Y053979*
X026875*
X026871Y053979*
X026868Y053979*
X026865Y053978*
X026861Y053977*
X026858Y053976*
X026855Y053975*
X026852Y053973*
X026849Y053971*
X026846Y053969*
X026844Y053967*
X026841Y053965*
X026839Y053962*
X026837Y053959*
X026835Y053956*
X026833Y053954*
X026832Y053950*
X026830Y053947*
X026829Y053944*
X026829Y053941*
X026828Y053937*
X026828Y053934*
X026828Y053931*
X026828Y053927*
X026828Y053924*
X026829Y053920*
X026829Y053917*
X026830Y053914*
X026832Y053911*
X026833Y053907*
X026835Y053905*
X026837Y053902*
X026839Y053899*
X026841Y053896*
X026844Y053894*
X026846Y053892*
X026849Y053890*
X026852Y053888*
X026855Y053886*
X026858Y053885*
X026861Y053884*
X026865Y053883*
X026868Y053882*
X026871Y053882*
X026875Y053882*
X026878*
X026882Y053882*
X026885Y053882*
X026888Y053883*
X026892Y053884*
X026895Y053885*
X026898Y053886*
X026901Y053888*
X026904Y053890*
X026907Y053892*
X026909Y053894*
X026912Y053896*
X026914Y053899*
X026916Y053902*
X026918Y053905*
X026920Y053907*
X026921Y053911*
X026923Y053914*
X026924Y053917*
X026924Y053920*
X026925Y053924*
X026925Y053927*
X026926Y053931*
X031166Y066031D02*
D01*
X031165Y066034*
X031165Y066037*
X031164Y066041*
X031164Y066044*
X031163Y066047*
X031161Y066050*
X031160Y066054*
X031158Y066056*
X031156Y066059*
X031154Y066062*
X031152Y066065*
X031149Y066067*
X031147Y066069*
X031144Y066071*
X031141Y066073*
X031138Y066075*
X031135Y066076*
X031132Y066077*
X031128Y066078*
X031125Y066079*
X031122Y066079*
X031118Y066079*
X031115*
X031111Y066079*
X031108Y066079*
X031105Y066078*
X031101Y066077*
X031098Y066076*
X031095Y066075*
X031092Y066073*
X031089Y066071*
X031086Y066069*
X031084Y066067*
X031081Y066065*
X031079Y066062*
X031077Y066059*
X031075Y066056*
X031073Y066054*
X031072Y066050*
X031070Y066047*
X031069Y066044*
X031069Y066041*
X031068Y066037*
X031068Y066034*
X031068Y066031*
X031068Y066027*
X031068Y066024*
X031069Y066020*
X031069Y066017*
X031070Y066014*
X031072Y066011*
X031073Y066007*
X031075Y066005*
X031077Y066002*
X031079Y065999*
X031081Y065996*
X031084Y065994*
X031086Y065992*
X031089Y065990*
X031092Y065988*
X031095Y065986*
X031098Y065985*
X031101Y065984*
X031105Y065983*
X031108Y065982*
X031111Y065982*
X031115Y065982*
X031118*
X031122Y065982*
X031125Y065982*
X031128Y065983*
X031132Y065984*
X031135Y065985*
X031138Y065986*
X031141Y065988*
X031144Y065990*
X031147Y065992*
X031149Y065994*
X031152Y065996*
X031154Y065999*
X031156Y066002*
X031158Y066005*
X031160Y066007*
X031161Y066011*
X031163Y066014*
X031164Y066017*
X031164Y066020*
X031165Y066024*
X031165Y066027*
X031166Y066031*
Y053931D02*
D01*
X031165Y053934*
X031165Y053937*
X031164Y053941*
X031164Y053944*
X031163Y053947*
X031161Y053950*
X031160Y053954*
X031158Y053956*
X031156Y053959*
X031154Y053962*
X031152Y053965*
X031149Y053967*
X031147Y053969*
X031144Y053971*
X031141Y053973*
X031138Y053975*
X031135Y053976*
X031132Y053977*
X031128Y053978*
X031125Y053979*
X031122Y053979*
X031118Y053979*
X031115*
X031111Y053979*
X031108Y053979*
X031105Y053978*
X031101Y053977*
X031098Y053976*
X031095Y053975*
X031092Y053973*
X031089Y053971*
X031086Y053969*
X031084Y053967*
X031081Y053965*
X031079Y053962*
X031077Y053959*
X031075Y053956*
X031073Y053954*
X031072Y053950*
X031070Y053947*
X031069Y053944*
X031069Y053941*
X031068Y053937*
X031068Y053934*
X031068Y053931*
X031068Y053927*
X031068Y053924*
X031069Y053920*
X031069Y053917*
X031070Y053914*
X031072Y053911*
X031073Y053907*
X031075Y053905*
X031077Y053902*
X031079Y053899*
X031081Y053896*
X031084Y053894*
X031086Y053892*
X031089Y053890*
X031092Y053888*
X031095Y053886*
X031098Y053885*
X031101Y053884*
X031105Y053883*
X031108Y053882*
X031111Y053882*
X031115Y053882*
X031118*
X031122Y053882*
X031125Y053882*
X031128Y053883*
X031132Y053884*
X031135Y053885*
X031138Y053886*
X031141Y053888*
X031144Y053890*
X031147Y053892*
X031149Y053894*
X031152Y053896*
X031154Y053899*
X031156Y053902*
X031158Y053905*
X031160Y053907*
X031161Y053911*
X031163Y053914*
X031164Y053917*
X031164Y053920*
X031165Y053924*
X031165Y053927*
X031166Y053931*
Y063631D02*
D01*
X031165Y063634*
X031165Y063637*
X031164Y063641*
X031164Y063644*
X031163Y063647*
X031161Y063650*
X031160Y063654*
X031158Y063656*
X031156Y063659*
X031154Y063662*
X031152Y063665*
X031149Y063667*
X031147Y063669*
X031144Y063671*
X031141Y063673*
X031138Y063675*
X031135Y063676*
X031132Y063677*
X031128Y063678*
X031125Y063679*
X031122Y063679*
X031118Y063679*
X031115*
X031111Y063679*
X031108Y063679*
X031105Y063678*
X031101Y063677*
X031098Y063676*
X031095Y063675*
X031092Y063673*
X031089Y063671*
X031086Y063669*
X031084Y063667*
X031081Y063665*
X031079Y063662*
X031077Y063659*
X031075Y063656*
X031073Y063654*
X031072Y063650*
X031070Y063647*
X031069Y063644*
X031069Y063641*
X031068Y063637*
X031068Y063634*
X031068Y063631*
X031068Y063627*
X031068Y063624*
X031069Y063620*
X031069Y063617*
X031070Y063614*
X031072Y063611*
X031073Y063607*
X031075Y063605*
X031077Y063602*
X031079Y063599*
X031081Y063596*
X031084Y063594*
X031086Y063592*
X031089Y063590*
X031092Y063588*
X031095Y063586*
X031098Y063585*
X031101Y063584*
X031105Y063583*
X031108Y063582*
X031111Y063582*
X031115Y063582*
X031118*
X031122Y063582*
X031125Y063582*
X031128Y063583*
X031132Y063584*
X031135Y063585*
X031138Y063586*
X031141Y063588*
X031144Y063590*
X031147Y063592*
X031149Y063594*
X031152Y063596*
X031154Y063599*
X031156Y063602*
X031158Y063605*
X031160Y063607*
X031161Y063611*
X031163Y063614*
X031164Y063617*
X031164Y063620*
X031165Y063624*
X031165Y063627*
X031166Y063631*
Y051500D02*
D01*
X031165Y051503*
X031165Y051506*
X031164Y051510*
X031164Y051513*
X031163Y051516*
X031161Y051519*
X031160Y051523*
X031158Y051525*
X031156Y051528*
X031154Y051531*
X031152Y051534*
X031149Y051536*
X031147Y051538*
X031144Y051540*
X031141Y051542*
X031138Y051544*
X031135Y051545*
X031132Y051546*
X031128Y051547*
X031125Y051548*
X031122Y051548*
X031118Y051548*
X031115*
X031111Y051548*
X031108Y051548*
X031105Y051547*
X031101Y051546*
X031098Y051545*
X031095Y051544*
X031092Y051542*
X031089Y051540*
X031086Y051538*
X031084Y051536*
X031081Y051534*
X031079Y051531*
X031077Y051528*
X031075Y051525*
X031073Y051523*
X031072Y051519*
X031070Y051516*
X031069Y051513*
X031069Y051510*
X031068Y051506*
X031068Y051503*
X031068Y051500*
X031068Y051496*
X031068Y051493*
X031069Y051489*
X031069Y051486*
X031070Y051483*
X031072Y051480*
X031073Y051476*
X031075Y051474*
X031077Y051471*
X031079Y051468*
X031081Y051465*
X031084Y051463*
X031086Y051461*
X031089Y051459*
X031092Y051457*
X031095Y051455*
X031098Y051454*
X031101Y051453*
X031105Y051452*
X031108Y051451*
X031111Y051451*
X031115Y051451*
X031118*
X031122Y051451*
X031125Y051451*
X031128Y051452*
X031132Y051453*
X031135Y051454*
X031138Y051455*
X031141Y051457*
X031144Y051459*
X031147Y051461*
X031149Y051463*
X031152Y051465*
X031154Y051468*
X031156Y051471*
X031158Y051474*
X031160Y051476*
X031161Y051480*
X031163Y051483*
X031164Y051486*
X031164Y051489*
X031165Y051493*
X031165Y051496*
X031166Y051500*
X033149Y034012D02*
D01*
X033148Y034015*
X033148Y034018*
X033147Y034022*
X033147Y034025*
X033146Y034028*
X033144Y034031*
X033143Y034035*
X033141Y034037*
X033139Y034040*
X033137Y034043*
X033135Y034046*
X033132Y034048*
X033130Y034050*
X033127Y034052*
X033124Y034054*
X033121Y034056*
X033118Y034057*
X033115Y034058*
X033111Y034059*
X033108Y034060*
X033105Y034060*
X033101Y034060*
X033098*
X033094Y034060*
X033091Y034060*
X033088Y034059*
X033084Y034058*
X033081Y034057*
X033078Y034056*
X033075Y034054*
X033072Y034052*
X033069Y034050*
X033067Y034048*
X033064Y034046*
X033062Y034043*
X033060Y034040*
X033058Y034037*
X033056Y034035*
X033055Y034031*
X033053Y034028*
X033052Y034025*
X033052Y034022*
X033051Y034018*
X033051Y034015*
X033051Y034012*
X033051Y034008*
X033051Y034005*
X033052Y034001*
X033052Y033998*
X033053Y033995*
X033055Y033992*
X033056Y033988*
X033058Y033986*
X033060Y033983*
X033062Y033980*
X033064Y033977*
X033067Y033975*
X033069Y033973*
X033072Y033971*
X033075Y033969*
X033078Y033967*
X033081Y033966*
X033084Y033965*
X033088Y033964*
X033091Y033963*
X033094Y033963*
X033098Y033963*
X033101*
X033105Y033963*
X033108Y033963*
X033111Y033964*
X033115Y033965*
X033118Y033966*
X033121Y033967*
X033124Y033969*
X033127Y033971*
X033130Y033973*
X033132Y033975*
X033135Y033977*
X033137Y033980*
X033139Y033983*
X033141Y033986*
X033143Y033988*
X033144Y033992*
X033146Y033995*
X033147Y033998*
X033147Y034001*
X033148Y034005*
X033148Y034008*
X033149Y034012*
X026344Y025742D02*
D01*
X026343Y025745*
X026343Y025748*
X026342Y025752*
X026342Y025755*
X026341Y025758*
X026339Y025761*
X026338Y025765*
X026336Y025767*
X026334Y025770*
X026332Y025773*
X026330Y025776*
X026327Y025778*
X026325Y025780*
X026322Y025782*
X026319Y025784*
X026316Y025786*
X026313Y025787*
X026310Y025788*
X026306Y025789*
X026303Y025790*
X026300Y025790*
X026296Y025790*
X026293*
X026289Y025790*
X026286Y025790*
X026283Y025789*
X026279Y025788*
X026276Y025787*
X026273Y025786*
X026270Y025784*
X026267Y025782*
X026264Y025780*
X026262Y025778*
X026259Y025776*
X026257Y025773*
X026255Y025770*
X026253Y025767*
X026251Y025765*
X026250Y025761*
X026248Y025758*
X026247Y025755*
X026247Y025752*
X026246Y025748*
X026246Y025745*
X026246Y025742*
X026246Y025738*
X026246Y025735*
X026247Y025731*
X026247Y025728*
X026248Y025725*
X026250Y025722*
X026251Y025718*
X026253Y025716*
X026255Y025713*
X026257Y025710*
X026259Y025707*
X026262Y025705*
X026264Y025703*
X026267Y025701*
X026270Y025699*
X026273Y025697*
X026276Y025696*
X026279Y025695*
X026283Y025694*
X026286Y025693*
X026289Y025693*
X026293Y025693*
X026296*
X026300Y025693*
X026303Y025693*
X026306Y025694*
X026310Y025695*
X026313Y025696*
X026316Y025697*
X026319Y025699*
X026322Y025701*
X026325Y025703*
X026327Y025705*
X026330Y025707*
X026332Y025710*
X026334Y025713*
X026336Y025716*
X026338Y025718*
X026339Y025722*
X026341Y025725*
X026342Y025728*
X026342Y025731*
X026343Y025735*
X026343Y025738*
X026344Y025742*
X032665Y036055D02*
D01*
X032664Y036058*
X032664Y036061*
X032663Y036065*
X032663Y036068*
X032662Y036071*
X032660Y036074*
X032659Y036078*
X032657Y036080*
X032655Y036083*
X032653Y036086*
X032651Y036089*
X032648Y036091*
X032646Y036093*
X032643Y036095*
X032640Y036097*
X032637Y036099*
X032634Y036100*
X032631Y036101*
X032627Y036102*
X032624Y036103*
X032621Y036103*
X032617Y036103*
X032614*
X032610Y036103*
X032607Y036103*
X032604Y036102*
X032600Y036101*
X032597Y036100*
X032594Y036099*
X032591Y036097*
X032588Y036095*
X032585Y036093*
X032583Y036091*
X032580Y036089*
X032578Y036086*
X032576Y036083*
X032574Y036080*
X032572Y036078*
X032571Y036074*
X032569Y036071*
X032568Y036068*
X032568Y036065*
X032567Y036061*
X032567Y036058*
X032567Y036055*
X032567Y036051*
X032567Y036048*
X032568Y036044*
X032568Y036041*
X032569Y036038*
X032571Y036035*
X032572Y036031*
X032574Y036029*
X032576Y036026*
X032578Y036023*
X032580Y036020*
X032583Y036018*
X032585Y036016*
X032588Y036014*
X032591Y036012*
X032594Y036010*
X032597Y036009*
X032600Y036008*
X032604Y036007*
X032607Y036006*
X032610Y036006*
X032614Y036006*
X032617*
X032621Y036006*
X032624Y036006*
X032627Y036007*
X032631Y036008*
X032634Y036009*
X032637Y036010*
X032640Y036012*
X032643Y036014*
X032646Y036016*
X032648Y036018*
X032651Y036020*
X032653Y036023*
X032655Y036026*
X032657Y036029*
X032659Y036031*
X032660Y036035*
X032662Y036038*
X032663Y036041*
X032663Y036044*
X032664Y036048*
X032664Y036051*
X032665Y036055*
X012165Y031105D02*
D01*
X012164Y031108*
X012164Y031111*
X012163Y031115*
X012163Y031118*
X012162Y031121*
X012160Y031124*
X012159Y031128*
X012157Y031130*
X012155Y031133*
X012153Y031136*
X012151Y031139*
X012148Y031141*
X012146Y031143*
X012143Y031145*
X012140Y031147*
X012137Y031149*
X012134Y031150*
X012131Y031151*
X012127Y031152*
X012124Y031153*
X012121Y031153*
X012117Y031153*
X012114*
X012110Y031153*
X012107Y031153*
X012104Y031152*
X012100Y031151*
X012097Y031150*
X012094Y031149*
X012091Y031147*
X012088Y031145*
X012085Y031143*
X012083Y031141*
X012080Y031139*
X012078Y031136*
X012076Y031133*
X012074Y031130*
X012072Y031128*
X012071Y031124*
X012069Y031121*
X012068Y031118*
X012068Y031115*
X012067Y031111*
X012067Y031108*
X012067Y031105*
X012067Y031101*
X012067Y031098*
X012068Y031094*
X012068Y031091*
X012069Y031088*
X012071Y031085*
X012072Y031081*
X012074Y031079*
X012076Y031076*
X012078Y031073*
X012080Y031070*
X012083Y031068*
X012085Y031066*
X012088Y031064*
X012091Y031062*
X012094Y031060*
X012097Y031059*
X012100Y031058*
X012104Y031057*
X012107Y031056*
X012110Y031056*
X012114Y031056*
X012117*
X012121Y031056*
X012124Y031056*
X012127Y031057*
X012131Y031058*
X012134Y031059*
X012137Y031060*
X012140Y031062*
X012143Y031064*
X012146Y031066*
X012148Y031068*
X012151Y031070*
X012153Y031073*
X012155Y031076*
X012157Y031079*
X012159Y031081*
X012160Y031085*
X012162Y031088*
X012163Y031091*
X012163Y031094*
X012164Y031098*
X012164Y031101*
X012165Y031105*
X018694Y029406D02*
D01*
X018693Y029409*
X018693Y029412*
X018692Y029416*
X018692Y029419*
X018691Y029422*
X018689Y029425*
X018688Y029429*
X018686Y029431*
X018684Y029434*
X018682Y029437*
X018680Y029440*
X018677Y029442*
X018675Y029444*
X018672Y029446*
X018669Y029448*
X018666Y029450*
X018663Y029451*
X018660Y029452*
X018656Y029453*
X018653Y029454*
X018650Y029454*
X018646Y029454*
X018643*
X018639Y029454*
X018636Y029454*
X018633Y029453*
X018629Y029452*
X018626Y029451*
X018623Y029450*
X018620Y029448*
X018617Y029446*
X018614Y029444*
X018612Y029442*
X018609Y029440*
X018607Y029437*
X018605Y029434*
X018603Y029431*
X018601Y029429*
X018600Y029425*
X018598Y029422*
X018597Y029419*
X018597Y029416*
X018596Y029412*
X018596Y029409*
X018596Y029406*
X018596Y029402*
X018596Y029399*
X018597Y029395*
X018597Y029392*
X018598Y029389*
X018600Y029386*
X018601Y029382*
X018603Y029380*
X018605Y029377*
X018607Y029374*
X018609Y029371*
X018612Y029369*
X018614Y029367*
X018617Y029365*
X018620Y029363*
X018623Y029361*
X018626Y029360*
X018629Y029359*
X018633Y029358*
X018636Y029357*
X018639Y029357*
X018643Y029357*
X018646*
X018650Y029357*
X018653Y029357*
X018656Y029358*
X018660Y029359*
X018663Y029360*
X018666Y029361*
X018669Y029363*
X018672Y029365*
X018675Y029367*
X018677Y029369*
X018680Y029371*
X018682Y029374*
X018684Y029377*
X018686Y029380*
X018688Y029382*
X018689Y029386*
X018691Y029389*
X018692Y029392*
X018692Y029395*
X018693Y029399*
X018693Y029402*
X018694Y029406*
X019741Y028926D02*
D01*
X019740Y028929*
X019740Y028932*
X019739Y028936*
X019739Y028939*
X019738Y028942*
X019736Y028945*
X019735Y028949*
X019733Y028951*
X019731Y028954*
X019729Y028957*
X019727Y028960*
X019724Y028962*
X019722Y028964*
X019719Y028966*
X019716Y028968*
X019713Y028970*
X019710Y028971*
X019707Y028972*
X019703Y028973*
X019700Y028974*
X019697Y028974*
X019693Y028974*
X019690*
X019686Y028974*
X019683Y028974*
X019680Y028973*
X019676Y028972*
X019673Y028971*
X019670Y028970*
X019667Y028968*
X019664Y028966*
X019661Y028964*
X019659Y028962*
X019656Y028960*
X019654Y028957*
X019652Y028954*
X019650Y028951*
X019648Y028949*
X019647Y028945*
X019645Y028942*
X019644Y028939*
X019644Y028936*
X019643Y028932*
X019643Y028929*
X019643Y028926*
X019643Y028922*
X019643Y028919*
X019644Y028915*
X019644Y028912*
X019645Y028909*
X019647Y028906*
X019648Y028902*
X019650Y028900*
X019652Y028897*
X019654Y028894*
X019656Y028891*
X019659Y028889*
X019661Y028887*
X019664Y028885*
X019667Y028883*
X019670Y028881*
X019673Y028880*
X019676Y028879*
X019680Y028878*
X019683Y028877*
X019686Y028877*
X019690Y028877*
X019693*
X019697Y028877*
X019700Y028877*
X019703Y028878*
X019707Y028879*
X019710Y028880*
X019713Y028881*
X019716Y028883*
X019719Y028885*
X019722Y028887*
X019724Y028889*
X019727Y028891*
X019729Y028894*
X019731Y028897*
X019733Y028900*
X019735Y028902*
X019736Y028906*
X019738Y028909*
X019739Y028912*
X019739Y028915*
X019740Y028919*
X019740Y028922*
X019741Y028926*
X012904Y022135D02*
D01*
X012903Y022138*
X012903Y022141*
X012902Y022145*
X012902Y022148*
X012901Y022151*
X012899Y022154*
X012898Y022158*
X012896Y022160*
X012894Y022163*
X012892Y022166*
X012890Y022169*
X012887Y022171*
X012885Y022173*
X012882Y022175*
X012879Y022177*
X012876Y022179*
X012873Y022180*
X012870Y022181*
X012866Y022182*
X012863Y022183*
X012860Y022183*
X012856Y022183*
X012853*
X012849Y022183*
X012846Y022183*
X012843Y022182*
X012839Y022181*
X012836Y022180*
X012833Y022179*
X012830Y022177*
X012827Y022175*
X012824Y022173*
X012822Y022171*
X012819Y022169*
X012817Y022166*
X012815Y022163*
X012813Y022160*
X012811Y022158*
X012810Y022154*
X012808Y022151*
X012807Y022148*
X012807Y022145*
X012806Y022141*
X012806Y022138*
X012806Y022135*
X012806Y022131*
X012806Y022128*
X012807Y022124*
X012807Y022121*
X012808Y022118*
X012810Y022115*
X012811Y022111*
X012813Y022109*
X012815Y022106*
X012817Y022103*
X012819Y022100*
X012822Y022098*
X012824Y022096*
X012827Y022094*
X012830Y022092*
X012833Y022090*
X012836Y022089*
X012839Y022088*
X012843Y022087*
X012846Y022086*
X012849Y022086*
X012853Y022086*
X012856*
X012860Y022086*
X012863Y022086*
X012866Y022087*
X012870Y022088*
X012873Y022089*
X012876Y022090*
X012879Y022092*
X012882Y022094*
X012885Y022096*
X012887Y022098*
X012890Y022100*
X012892Y022103*
X012894Y022106*
X012896Y022109*
X012898Y022111*
X012899Y022115*
X012901Y022118*
X012902Y022121*
X012902Y022124*
X012903Y022128*
X012903Y022131*
X012904Y022135*
X031882Y024209D02*
D01*
X031881Y024212*
X031881Y024215*
X031880Y024219*
X031880Y024222*
X031879Y024225*
X031877Y024228*
X031876Y024232*
X031874Y024234*
X031872Y024237*
X031870Y024240*
X031868Y024243*
X031865Y024245*
X031863Y024247*
X031860Y024249*
X031857Y024251*
X031854Y024253*
X031851Y024254*
X031848Y024255*
X031844Y024256*
X031841Y024257*
X031838Y024257*
X031834Y024257*
X031831*
X031827Y024257*
X031824Y024257*
X031821Y024256*
X031817Y024255*
X031814Y024254*
X031811Y024253*
X031808Y024251*
X031805Y024249*
X031802Y024247*
X031800Y024245*
X031797Y024243*
X031795Y024240*
X031793Y024237*
X031791Y024234*
X031789Y024232*
X031788Y024228*
X031786Y024225*
X031785Y024222*
X031785Y024219*
X031784Y024215*
X031784Y024212*
X031784Y024209*
X031784Y024205*
X031784Y024202*
X031785Y024198*
X031785Y024195*
X031786Y024192*
X031788Y024189*
X031789Y024185*
X031791Y024183*
X031793Y024180*
X031795Y024177*
X031797Y024174*
X031800Y024172*
X031802Y024170*
X031805Y024168*
X031808Y024166*
X031811Y024164*
X031814Y024163*
X031817Y024162*
X031821Y024161*
X031824Y024160*
X031827Y024160*
X031831Y024160*
X031834*
X031838Y024160*
X031841Y024160*
X031844Y024161*
X031848Y024162*
X031851Y024163*
X031854Y024164*
X031857Y024166*
X031860Y024168*
X031863Y024170*
X031865Y024172*
X031868Y024174*
X031870Y024177*
X031872Y024180*
X031874Y024183*
X031876Y024185*
X031877Y024189*
X031879Y024192*
X031880Y024195*
X031880Y024198*
X031881Y024202*
X031881Y024205*
X031882Y024209*
G54D56*
X033804Y071000D02*
D01*
X033786Y070999*
X033769Y070997*
X033752Y070994*
X033735Y070990*
X033718Y070984*
X033702Y070978*
X033686Y070970*
X033671Y070962*
X033657Y070952*
X033643Y070941*
X033630Y070929*
X033618Y070917*
X033606Y070903*
X033596Y070889*
X033587Y070875*
X033579Y070859*
X033572Y070843*
X033566Y070827*
X033561Y070810*
X033557Y070793*
X033555Y070776*
X033554Y070758*
Y070741*
X033555Y070723*
X033557Y070706*
X033561Y070689*
X033566Y070672*
X033572Y070656*
X033579Y070640*
X033587Y070625*
X033596Y070610*
X033606Y070596*
X033618Y070582*
X033630Y070570*
X033643Y070558*
X033657Y070547*
X033671Y070537*
X033686Y070529*
X033702Y070521*
X033718Y070515*
X033735Y070509*
X033752Y070505*
X033769Y070502*
X033786Y070500*
X033804Y070500*
X032184Y022300D02*
D01*
X032181Y022368*
X032174Y022436*
X032162Y022504*
X032145Y022571*
X032124Y022636*
X032098Y022700*
X032068Y022761*
X032034Y022821*
X031996Y022878*
X031953Y022932*
X031907Y022983*
X031858Y023031*
X031805Y023075*
X031750Y023115*
X031692Y023152*
X031631Y023184*
X031568Y023212*
X031504Y023235*
X031438Y023254*
X031370Y023269*
X031302Y023278*
X031234Y023283*
X031165*
X031097Y023278*
X031029Y023269*
X030961Y023254*
X030895Y023235*
X030831Y023212*
X030768Y023184*
X030708Y023152*
X030649Y023115*
X030594Y023075*
X030541Y023031*
X030492Y022983*
X030446Y022932*
X030403Y022878*
X030365Y022821*
X030331Y022761*
X030301Y022700*
X030275Y022636*
X030254Y022571*
X030237Y022504*
X030225Y022436*
X030218Y022368*
X030216Y022300*
X030218Y022231*
X030225Y022163*
X030237Y022095*
X030254Y022028*
X030275Y021963*
X030301Y021899*
X030331Y021838*
X030365Y021778*
X030403Y021721*
X030446Y021667*
X030492Y021616*
X030541Y021568*
X030594Y021524*
X030649Y021484*
X030708Y021447*
X030768Y021415*
X030831Y021387*
X030895Y021364*
X030961Y021345*
X031029Y021330*
X031097Y021321*
X031165Y021316*
X031234*
X031302Y021321*
X031370Y021330*
X031438Y021345*
X031504Y021364*
X031568Y021387*
X031631Y021415*
X031692Y021447*
X031750Y021484*
X031805Y021524*
X031858Y021568*
X031907Y021616*
X031953Y021667*
X031996Y021721*
X032034Y021778*
X032068Y021838*
X032098Y021899*
X032124Y021963*
X032145Y022028*
X032162Y022095*
X032174Y022163*
X032181Y022231*
X032184Y022300*
X036369Y021900D02*
D01*
X036364Y022037*
X036349Y022174*
X036325Y022309*
X036292Y022442*
X036250Y022573*
X036198Y022700*
X036138Y022824*
X036069Y022943*
X035992Y023057*
X035908Y023165*
X035816Y023267*
X035717Y023363*
X035612Y023451*
X035501Y023532*
X035384Y023605*
X035263Y023669*
X035137Y023725*
X035008Y023772*
X034876Y023810*
X034741Y023839*
X034605Y023858*
X034468Y023867*
X034331*
X034194Y023858*
X034058Y023839*
X033923Y023810*
X033791Y023772*
X033662Y023725*
X033536Y023669*
X033415Y023605*
X033298Y023532*
X033187Y023451*
X033082Y023363*
X032983Y023267*
X032891Y023165*
X032807Y023057*
X032730Y022943*
X032661Y022824*
X032601Y022700*
X032549Y022573*
X032507Y022442*
X032474Y022309*
X032450Y022174*
X032435Y022037*
X032431Y021900*
X032435Y021762*
X032450Y021625*
X032474Y021490*
X032507Y021357*
X032549Y021226*
X032601Y021099*
X032661Y020975*
X032730Y020856*
X032807Y020742*
X032891Y020634*
X032983Y020532*
X033082Y020436*
X033187Y020348*
X033298Y020267*
X033415Y020194*
X033536Y020130*
X033662Y020074*
X033791Y020027*
X033923Y019989*
X034058Y019960*
X034194Y019941*
X034331Y019932*
X034468*
X034605Y019941*
X034741Y019960*
X034876Y019989*
X035008Y020027*
X035137Y020074*
X035263Y020130*
X035384Y020194*
X035501Y020267*
X035612Y020348*
X035717Y020436*
X035816Y020532*
X035908Y020634*
X035992Y020742*
X036069Y020856*
X036138Y020975*
X036198Y021099*
X036250Y021226*
X036292Y021357*
X036325Y021490*
X036349Y021625*
X036364Y021762*
X036369Y021900*
X036353Y026200D02*
D01*
X036348Y026337*
X036333Y026474*
X036309Y026609*
X036276Y026742*
X036234Y026873*
X036182Y027000*
X036122Y027124*
X036053Y027243*
X035976Y027357*
X035892Y027465*
X035800Y027567*
X035701Y027663*
X035596Y027751*
X035485Y027832*
X035368Y027905*
X035247Y027969*
X035121Y028025*
X034992Y028072*
X034860Y028110*
X034725Y028139*
X034589Y028158*
X034452Y028167*
X034315*
X034178Y028158*
X034042Y028139*
X033907Y028110*
X033775Y028072*
X033646Y028025*
X033520Y027969*
X033399Y027905*
X033282Y027832*
X033171Y027751*
X033066Y027663*
X032967Y027567*
X032875Y027465*
X032791Y027357*
X032714Y027243*
X032645Y027124*
X032585Y027000*
X032533Y026873*
X032491Y026742*
X032458Y026609*
X032434Y026474*
X032419Y026337*
X032415Y026200*
X032419Y026062*
X032434Y025925*
X032458Y025790*
X032491Y025657*
X032533Y025526*
X032585Y025399*
X032645Y025275*
X032714Y025156*
X032791Y025042*
X032875Y024934*
X032967Y024832*
X033066Y024736*
X033171Y024648*
X033282Y024567*
X033399Y024494*
X033520Y024430*
X033646Y024374*
X033775Y024327*
X033907Y024289*
X034042Y024260*
X034178Y024241*
X034315Y024232*
X034452*
X034589Y024241*
X034725Y024260*
X034860Y024289*
X034992Y024327*
X035121Y024374*
X035247Y024430*
X035368Y024494*
X035485Y024567*
X035596Y024648*
X035701Y024736*
X035800Y024832*
X035892Y024934*
X035976Y025042*
X036053Y025156*
X036122Y025275*
X036182Y025399*
X036234Y025526*
X036276Y025657*
X036309Y025790*
X036333Y025925*
X036348Y026062*
X036353Y026200*
X034350Y034354D02*
D01*
X034350Y034336*
X034352Y034319*
X034355Y034302*
X034359Y034285*
X034365Y034268*
X034371Y034252*
X034379Y034236*
X034387Y034221*
X034397Y034207*
X034408Y034193*
X034420Y034180*
X034432Y034168*
X034446Y034156*
X034460Y034146*
X034475Y034137*
X034490Y034129*
X034506Y034122*
X034522Y034116*
X034539Y034111*
X034556Y034107*
X034573Y034105*
X034591Y034104*
X034608*
X034626Y034105*
X034643Y034107*
X034660Y034111*
X034677Y034116*
X034693Y034122*
X034709Y034129*
X034725Y034137*
X034739Y034146*
X034753Y034156*
X034767Y034168*
X034779Y034180*
X034791Y034193*
X034802Y034207*
X034812Y034221*
X034820Y034236*
X034828Y034252*
X034834Y034268*
X034840Y034285*
X034844Y034302*
X034847Y034319*
X034849Y034336*
X034850Y034354*
X010200Y059650D02*
D01*
X010217Y059650*
X010234Y059652*
X010251Y059655*
X010268Y059659*
X010285Y059665*
X010301Y059671*
X010317Y059679*
X010332Y059687*
X010346Y059697*
X010360Y059708*
X010373Y059720*
X010385Y059732*
X010397Y059746*
X010407Y059760*
X010416Y059775*
X010424Y059790*
X010431Y059806*
X010437Y059822*
X010442Y059839*
X010446Y059856*
X010448Y059873*
X010449Y059891*
Y059908*
X010448Y059926*
X010446Y059943*
X010442Y059960*
X010437Y059977*
X010431Y059993*
X010424Y060009*
X010416Y060025*
X010407Y060039*
X010397Y060053*
X010385Y060067*
X010373Y060079*
X010360Y060091*
X010346Y060102*
X010332Y060112*
X010317Y060120*
X010301Y060128*
X010285Y060134*
X010268Y060140*
X010251Y060144*
X010234Y060147*
X010217Y060149*
X010200Y060150*
Y047550D02*
D01*
X010217Y047550*
X010234Y047552*
X010251Y047555*
X010268Y047559*
X010285Y047565*
X010301Y047571*
X010317Y047579*
X010332Y047587*
X010346Y047597*
X010360Y047608*
X010373Y047620*
X010385Y047632*
X010397Y047646*
X010407Y047660*
X010416Y047675*
X010424Y047690*
X010431Y047706*
X010437Y047722*
X010442Y047739*
X010446Y047756*
X010448Y047773*
X010449Y047791*
Y047808*
X010448Y047826*
X010446Y047843*
X010442Y047860*
X010437Y047877*
X010431Y047893*
X010424Y047909*
X010416Y047925*
X010407Y047939*
X010397Y047953*
X010385Y047967*
X010373Y047979*
X010360Y047991*
X010346Y048002*
X010332Y048012*
X010317Y048020*
X010301Y048028*
X010285Y048034*
X010268Y048040*
X010251Y048044*
X010234Y048047*
X010217Y048049*
X010200Y048050*
X013371Y059650D02*
D01*
X013388Y059650*
X013405Y059652*
X013422Y059655*
X013439Y059659*
X013456Y059665*
X013472Y059671*
X013488Y059679*
X013503Y059687*
X013517Y059697*
X013531Y059708*
X013544Y059720*
X013556Y059732*
X013568Y059746*
X013578Y059760*
X013587Y059775*
X013595Y059790*
X013602Y059806*
X013608Y059822*
X013613Y059839*
X013617Y059856*
X013619Y059873*
X013620Y059891*
Y059908*
X013619Y059926*
X013617Y059943*
X013613Y059960*
X013608Y059977*
X013602Y059993*
X013595Y060009*
X013587Y060025*
X013578Y060039*
X013568Y060053*
X013556Y060067*
X013544Y060079*
X013531Y060091*
X013517Y060102*
X013503Y060112*
X013488Y060120*
X013472Y060128*
X013456Y060134*
X013439Y060140*
X013422Y060144*
X013405Y060147*
X013388Y060149*
X013371Y060150*
Y047550D02*
D01*
X013388Y047550*
X013405Y047552*
X013422Y047555*
X013439Y047559*
X013456Y047565*
X013472Y047571*
X013488Y047579*
X013503Y047587*
X013517Y047597*
X013531Y047608*
X013544Y047620*
X013556Y047632*
X013568Y047646*
X013578Y047660*
X013587Y047675*
X013595Y047690*
X013602Y047706*
X013608Y047722*
X013613Y047739*
X013617Y047756*
X013619Y047773*
X013620Y047791*
Y047808*
X013619Y047826*
X013617Y047843*
X013613Y047860*
X013608Y047877*
X013602Y047893*
X013595Y047909*
X013587Y047925*
X013578Y047939*
X013568Y047953*
X013556Y047967*
X013544Y047979*
X013531Y047991*
X013517Y048002*
X013503Y048012*
X013488Y048020*
X013472Y048028*
X013456Y048034*
X013439Y048040*
X013422Y048044*
X013405Y048047*
X013388Y048049*
X013371Y048050*
X016543Y059650D02*
D01*
X016560Y059650*
X016577Y059652*
X016594Y059655*
X016611Y059659*
X016628Y059665*
X016644Y059671*
X016660Y059679*
X016675Y059687*
X016689Y059697*
X016703Y059708*
X016716Y059720*
X016728Y059732*
X016740Y059746*
X016750Y059760*
X016759Y059775*
X016767Y059790*
X016774Y059806*
X016780Y059822*
X016785Y059839*
X016789Y059856*
X016791Y059873*
X016792Y059891*
Y059908*
X016791Y059926*
X016789Y059943*
X016785Y059960*
X016780Y059977*
X016774Y059993*
X016767Y060009*
X016759Y060025*
X016750Y060039*
X016740Y060053*
X016728Y060067*
X016716Y060079*
X016703Y060091*
X016689Y060102*
X016675Y060112*
X016660Y060120*
X016644Y060128*
X016628Y060134*
X016611Y060140*
X016594Y060144*
X016577Y060147*
X016560Y060149*
X016543Y060150*
Y047550D02*
D01*
X016560Y047550*
X016577Y047552*
X016594Y047555*
X016611Y047559*
X016628Y047565*
X016644Y047571*
X016660Y047579*
X016675Y047587*
X016689Y047597*
X016703Y047608*
X016716Y047620*
X016728Y047632*
X016740Y047646*
X016750Y047660*
X016759Y047675*
X016767Y047690*
X016774Y047706*
X016780Y047722*
X016785Y047739*
X016789Y047756*
X016791Y047773*
X016792Y047791*
Y047808*
X016791Y047826*
X016789Y047843*
X016785Y047860*
X016780Y047877*
X016774Y047893*
X016767Y047909*
X016759Y047925*
X016750Y047939*
X016740Y047953*
X016728Y047967*
X016716Y047979*
X016703Y047991*
X016689Y048002*
X016675Y048012*
X016660Y048020*
X016644Y048028*
X016628Y048034*
X016611Y048040*
X016594Y048044*
X016577Y048047*
X016560Y048049*
X016543Y048050*
X019714Y059650D02*
D01*
X019731Y059650*
X019748Y059652*
X019765Y059655*
X019782Y059659*
X019799Y059665*
X019815Y059671*
X019831Y059679*
X019846Y059687*
X019860Y059697*
X019874Y059708*
X019887Y059720*
X019899Y059732*
X019911Y059746*
X019921Y059760*
X019930Y059775*
X019938Y059790*
X019945Y059806*
X019951Y059822*
X019956Y059839*
X019960Y059856*
X019962Y059873*
X019963Y059891*
Y059908*
X019962Y059926*
X019960Y059943*
X019956Y059960*
X019951Y059977*
X019945Y059993*
X019938Y060009*
X019930Y060025*
X019921Y060039*
X019911Y060053*
X019899Y060067*
X019887Y060079*
X019874Y060091*
X019860Y060102*
X019846Y060112*
X019831Y060120*
X019815Y060128*
X019799Y060134*
X019782Y060140*
X019765Y060144*
X019748Y060147*
X019731Y060149*
X019714Y060150*
Y047550D02*
D01*
X019731Y047550*
X019748Y047552*
X019765Y047555*
X019782Y047559*
X019799Y047565*
X019815Y047571*
X019831Y047579*
X019846Y047587*
X019860Y047597*
X019874Y047608*
X019887Y047620*
X019899Y047632*
X019911Y047646*
X019921Y047660*
X019930Y047675*
X019938Y047690*
X019945Y047706*
X019951Y047722*
X019956Y047739*
X019960Y047756*
X019962Y047773*
X019963Y047791*
Y047808*
X019962Y047826*
X019960Y047843*
X019956Y047860*
X019951Y047877*
X019945Y047893*
X019938Y047909*
X019930Y047925*
X019921Y047939*
X019911Y047953*
X019899Y047967*
X019887Y047979*
X019874Y047991*
X019860Y048002*
X019846Y048012*
X019831Y048020*
X019815Y048028*
X019799Y048034*
X019782Y048040*
X019765Y048044*
X019748Y048047*
X019731Y048049*
X019714Y048050*
X022886Y059650D02*
D01*
X022903Y059650*
X022920Y059652*
X022937Y059655*
X022954Y059659*
X022971Y059665*
X022987Y059671*
X023003Y059679*
X023018Y059687*
X023032Y059697*
X023046Y059708*
X023059Y059720*
X023071Y059732*
X023083Y059746*
X023093Y059760*
X023102Y059775*
X023110Y059790*
X023117Y059806*
X023123Y059822*
X023128Y059839*
X023132Y059856*
X023134Y059873*
X023135Y059891*
Y059908*
X023134Y059926*
X023132Y059943*
X023128Y059960*
X023123Y059977*
X023117Y059993*
X023110Y060009*
X023102Y060025*
X023093Y060039*
X023083Y060053*
X023071Y060067*
X023059Y060079*
X023046Y060091*
X023032Y060102*
X023018Y060112*
X023003Y060120*
X022987Y060128*
X022971Y060134*
X022954Y060140*
X022937Y060144*
X022920Y060147*
X022903Y060149*
X022886Y060150*
Y047550D02*
D01*
X022903Y047550*
X022920Y047552*
X022937Y047555*
X022954Y047559*
X022971Y047565*
X022987Y047571*
X023003Y047579*
X023018Y047587*
X023032Y047597*
X023046Y047608*
X023059Y047620*
X023071Y047632*
X023083Y047646*
X023093Y047660*
X023102Y047675*
X023110Y047690*
X023117Y047706*
X023123Y047722*
X023128Y047739*
X023132Y047756*
X023134Y047773*
X023135Y047791*
Y047808*
X023134Y047826*
X023132Y047843*
X023128Y047860*
X023123Y047877*
X023117Y047893*
X023110Y047909*
X023102Y047925*
X023093Y047939*
X023083Y047953*
X023071Y047967*
X023059Y047979*
X023046Y047991*
X023032Y048002*
X023018Y048012*
X023003Y048020*
X022987Y048028*
X022971Y048034*
X022954Y048040*
X022937Y048044*
X022920Y048047*
X022903Y048049*
X022886Y048050*
X026057Y059650D02*
D01*
X026074Y059650*
X026091Y059652*
X026108Y059655*
X026125Y059659*
X026142Y059665*
X026158Y059671*
X026174Y059679*
X026189Y059687*
X026203Y059697*
X026217Y059708*
X026230Y059720*
X026242Y059732*
X026254Y059746*
X026264Y059760*
X026273Y059775*
X026281Y059790*
X026288Y059806*
X026294Y059822*
X026299Y059839*
X026303Y059856*
X026305Y059873*
X026306Y059891*
Y059908*
X026305Y059926*
X026303Y059943*
X026299Y059960*
X026294Y059977*
X026288Y059993*
X026281Y060009*
X026273Y060025*
X026264Y060039*
X026254Y060053*
X026242Y060067*
X026230Y060079*
X026217Y060091*
X026203Y060102*
X026189Y060112*
X026174Y060120*
X026158Y060128*
X026142Y060134*
X026125Y060140*
X026108Y060144*
X026091Y060147*
X026074Y060149*
X026057Y060150*
Y047550D02*
D01*
X026074Y047550*
X026091Y047552*
X026108Y047555*
X026125Y047559*
X026142Y047565*
X026158Y047571*
X026174Y047579*
X026189Y047587*
X026203Y047597*
X026217Y047608*
X026230Y047620*
X026242Y047632*
X026254Y047646*
X026264Y047660*
X026273Y047675*
X026281Y047690*
X026288Y047706*
X026294Y047722*
X026299Y047739*
X026303Y047756*
X026305Y047773*
X026306Y047791*
Y047808*
X026305Y047826*
X026303Y047843*
X026299Y047860*
X026294Y047877*
X026288Y047893*
X026281Y047909*
X026273Y047925*
X026264Y047939*
X026254Y047953*
X026242Y047967*
X026230Y047979*
X026217Y047991*
X026203Y048002*
X026189Y048012*
X026174Y048020*
X026158Y048028*
X026142Y048034*
X026125Y048040*
X026108Y048044*
X026091Y048047*
X026074Y048049*
X026057Y048050*
X029229Y059650D02*
D01*
X029246Y059650*
X029263Y059652*
X029280Y059655*
X029297Y059659*
X029314Y059665*
X029330Y059671*
X029346Y059679*
X029361Y059687*
X029375Y059697*
X029389Y059708*
X029402Y059720*
X029414Y059732*
X029426Y059746*
X029436Y059760*
X029445Y059775*
X029453Y059790*
X029460Y059806*
X029466Y059822*
X029471Y059839*
X029475Y059856*
X029477Y059873*
X029478Y059891*
Y059908*
X029477Y059926*
X029475Y059943*
X029471Y059960*
X029466Y059977*
X029460Y059993*
X029453Y060009*
X029445Y060025*
X029436Y060039*
X029426Y060053*
X029414Y060067*
X029402Y060079*
X029389Y060091*
X029375Y060102*
X029361Y060112*
X029346Y060120*
X029330Y060128*
X029314Y060134*
X029297Y060140*
X029280Y060144*
X029263Y060147*
X029246Y060149*
X029229Y060150*
Y047550D02*
D01*
X029246Y047550*
X029263Y047552*
X029280Y047555*
X029297Y047559*
X029314Y047565*
X029330Y047571*
X029346Y047579*
X029361Y047587*
X029375Y047597*
X029389Y047608*
X029402Y047620*
X029414Y047632*
X029426Y047646*
X029436Y047660*
X029445Y047675*
X029453Y047690*
X029460Y047706*
X029466Y047722*
X029471Y047739*
X029475Y047756*
X029477Y047773*
X029478Y047791*
Y047808*
X029477Y047826*
X029475Y047843*
X029471Y047860*
X029466Y047877*
X029460Y047893*
X029453Y047909*
X029445Y047925*
X029436Y047939*
X029426Y047953*
X029414Y047967*
X029402Y047979*
X029389Y047991*
X029375Y048002*
X029361Y048012*
X029346Y048020*
X029330Y048028*
X029314Y048034*
X029297Y048040*
X029280Y048044*
X029263Y048047*
X029246Y048049*
X029229Y048050*
X032400Y059650D02*
D01*
X032417Y059650*
X032434Y059652*
X032451Y059655*
X032468Y059659*
X032485Y059665*
X032501Y059671*
X032517Y059679*
X032532Y059687*
X032546Y059697*
X032560Y059708*
X032573Y059720*
X032585Y059732*
X032597Y059746*
X032607Y059760*
X032616Y059775*
X032624Y059790*
X032631Y059806*
X032637Y059822*
X032642Y059839*
X032646Y059856*
X032648Y059873*
X032649Y059891*
Y059908*
X032648Y059926*
X032646Y059943*
X032642Y059960*
X032637Y059977*
X032631Y059993*
X032624Y060009*
X032616Y060025*
X032607Y060039*
X032597Y060053*
X032585Y060067*
X032573Y060079*
X032560Y060091*
X032546Y060102*
X032532Y060112*
X032517Y060120*
X032501Y060128*
X032485Y060134*
X032468Y060140*
X032451Y060144*
X032434Y060147*
X032417Y060149*
X032400Y060150*
Y047550D02*
D01*
X032417Y047550*
X032434Y047552*
X032451Y047555*
X032468Y047559*
X032485Y047565*
X032501Y047571*
X032517Y047579*
X032532Y047587*
X032546Y047597*
X032560Y047608*
X032573Y047620*
X032585Y047632*
X032597Y047646*
X032607Y047660*
X032616Y047675*
X032624Y047690*
X032631Y047706*
X032637Y047722*
X032642Y047739*
X032646Y047756*
X032648Y047773*
X032649Y047791*
Y047808*
X032648Y047826*
X032646Y047843*
X032642Y047860*
X032637Y047877*
X032631Y047893*
X032624Y047909*
X032616Y047925*
X032607Y047939*
X032597Y047953*
X032585Y047967*
X032573Y047979*
X032560Y047991*
X032546Y048002*
X032532Y048012*
X032517Y048020*
X032501Y048028*
X032485Y048034*
X032468Y048040*
X032451Y048044*
X032434Y048047*
X032417Y048049*
X032400Y048050*
X028096Y069707D02*
Y071793D01*
X033804Y069707D02*
Y070500D01*
Y071000D02*
Y071793D01*
X028096Y069707D02*
X033804D01*
X028096Y071793D02*
X033804D01*
X021268Y021846D02*
X024732D01*
X021268Y022554D02*
X024732D01*
X021268Y021846D02*
Y022554D01*
X024732Y021846D02*
Y022554D01*
X021119Y023093D02*
Y023407D01*
X011593Y033469D02*
X011907D01*
X020952Y031044D02*
Y031556D01*
X023735Y031243D02*
Y031557D01*
X021031Y030443D02*
Y030757D01*
X019752Y027244D02*
Y027756D01*
X019731Y028043D02*
Y028357D01*
X032569Y037843D02*
Y038157D01*
X016843Y029481D02*
X017157D01*
X014644Y023672D02*
X015156D01*
X015443Y023619D02*
X015757D01*
X016043D02*
X016357D01*
X015443Y019715D02*
X015757D01*
X016043Y019681D02*
X016357D01*
X010172Y062948D02*
X014228D01*
X010172Y062751D02*
X014228D01*
X010172Y064680D02*
X014228D01*
X010172Y062751D02*
Y064680D01*
X014228Y062751D02*
Y064680D01*
X010172Y050817D02*
X014228D01*
X010172Y050620D02*
X014228D01*
X010172Y052549D02*
X014228D01*
X010172Y050620D02*
Y052549D01*
X014228Y050620D02*
Y052549D01*
X010172Y065348D02*
X014228D01*
X010172Y065151D02*
X014228D01*
X010172Y067080D02*
X014228D01*
X010172Y065151D02*
Y067080D01*
X014228Y065151D02*
Y067080D01*
X010172Y053248D02*
X014228D01*
X010172Y053051D02*
X014228D01*
X010172Y054980D02*
X014228D01*
X010172Y053051D02*
Y054980D01*
X014228Y053051D02*
Y054980D01*
X014363Y065348D02*
X018418D01*
X014363Y065151D02*
X018418D01*
X014363Y067080D02*
X018418D01*
X014363Y065151D02*
Y067080D01*
X018418Y065151D02*
Y067080D01*
X014412Y053248D02*
X018468D01*
X014412Y053051D02*
X018468D01*
X014412Y054980D02*
X018468D01*
X014412Y053051D02*
Y054980D01*
X018468Y053051D02*
Y054980D01*
X018554Y065348D02*
X022609D01*
X018554Y065151D02*
X022609D01*
X018554Y067080D02*
X022609D01*
X018554Y065151D02*
Y067080D01*
X022609Y065151D02*
Y067080D01*
X018652Y053248D02*
X022708D01*
X018652Y053051D02*
X022708D01*
X018652Y054980D02*
X022708D01*
X018652Y053051D02*
Y054980D01*
X022708Y053051D02*
Y054980D01*
X022991Y066883D02*
X027046D01*
X022991Y067080D02*
X027046D01*
X022991Y065151D02*
X027046D01*
Y067080*
X022991Y065151D02*
Y067080D01*
X022892Y054783D02*
X026948D01*
X022892Y054980D02*
X026948D01*
X022892Y053051D02*
X026948D01*
Y054980*
X022892Y053051D02*
Y054980D01*
X027182Y066883D02*
X031237D01*
X027182Y067080D02*
X031237D01*
X027182Y065151D02*
X031237D01*
Y067080*
X027182Y065151D02*
Y067080D01*
X027132Y054783D02*
X031188D01*
X027132Y054980D02*
X031188D01*
X027132Y053051D02*
X031188D01*
Y054980*
X027132Y053051D02*
Y054980D01*
X031372Y066883D02*
X035428D01*
X031372Y067080D02*
X035428D01*
X031372Y065151D02*
X035428D01*
Y067080*
X031372Y065151D02*
Y067080D01*
X018185Y073938D02*
Y074410D01*
X018815Y073938D02*
Y074410D01*
X018185D02*
X018815D01*
X018343Y073072D02*
X018657D01*
X018185Y073268D02*
Y073662D01*
X018657Y073072D02*
X018815Y073268D01*
X018185D02*
X018343Y073072D01*
X018815Y073268D02*
Y073662D01*
X020342Y073938D02*
Y074410D01*
X020972Y073938D02*
Y074410D01*
X020342D02*
X020972D01*
X020500Y073072D02*
X020815D01*
X020342Y073268D02*
Y073662D01*
X020815Y073072D02*
X020972Y073268D01*
X020342D02*
X020500Y073072D01*
X020972Y073268D02*
Y073662D01*
X022499Y073938D02*
Y074410D01*
X023129Y073938D02*
Y074410D01*
X022499D02*
X023129D01*
X022657Y073072D02*
X022972D01*
X022499Y073268D02*
Y073662D01*
X022972Y073072D02*
X023129Y073268D01*
X022499D02*
X022657Y073072D01*
X023129Y073268D02*
Y073662D01*
X031372Y054783D02*
X035428D01*
X031372Y054980D02*
X035428D01*
X031372Y053051D02*
X035428D01*
Y054980*
X031372Y053051D02*
Y054980D01*
X024656Y073938D02*
Y074410D01*
X025286Y073938D02*
Y074410D01*
X024656D02*
X025286D01*
X024814Y073072D02*
X025129D01*
X024656Y073268D02*
Y073662D01*
X025129Y073072D02*
X025286Y073268D01*
X024656D02*
X024814Y073072D01*
X025286Y073268D02*
Y073662D01*
X026814Y073938D02*
Y074410D01*
X027444Y073938D02*
Y074410D01*
X026814D02*
X027444D01*
X026971Y073072D02*
X027286D01*
X026814Y073268D02*
Y073662D01*
X027286Y073072D02*
X027444Y073268D01*
X026814D02*
X026971Y073072D01*
X027444Y073268D02*
Y073662D01*
X028971Y073938D02*
Y074410D01*
X029601Y073938D02*
Y074410D01*
X028971D02*
X029601D01*
X029128Y073072D02*
X029443D01*
X028971Y073268D02*
Y073662D01*
X029443Y073072D02*
X029601Y073268D01*
X028971D02*
X029128Y073072D01*
X029601Y073268D02*
Y073662D01*
X031372Y064483D02*
X035428D01*
X031372Y064680D02*
X035428D01*
X031372Y062751D02*
X035428D01*
Y064680*
X031372Y062751D02*
Y064680D01*
X031128Y073938D02*
Y074410D01*
X031758Y073938D02*
Y074410D01*
X031128D02*
X031758D01*
X031285Y073072D02*
X031600D01*
X031128Y073268D02*
Y073662D01*
X031600Y073072D02*
X031758Y073268D01*
X031128D02*
X031285Y073072D01*
X031758Y073268D02*
Y073662D01*
X033285Y073938D02*
Y074410D01*
X033915Y073938D02*
Y074410D01*
X033285D02*
X033915D01*
X033443Y073072D02*
X033757D01*
X033285Y073268D02*
Y073662D01*
X033757Y073072D02*
X033915Y073268D01*
X033285D02*
X033443Y073072D01*
X033915Y073268D02*
Y073662D01*
X012585Y073938D02*
Y074410D01*
X013215Y073938D02*
Y074410D01*
X012585D02*
X013215D01*
X012743Y073072D02*
X013057D01*
X012585Y073268D02*
Y073662D01*
X013057Y073072D02*
X013215Y073268D01*
X012585D02*
X012743Y073072D01*
X013215Y073268D02*
Y073662D01*
X031372Y052352D02*
X035428D01*
X031372Y052549D02*
X035428D01*
X031372Y050620D02*
X035428D01*
Y052549*
X031372Y050620D02*
Y052549D01*
X019667Y026741D02*
Y026859D01*
X015467Y021891D02*
Y022009D01*
X017400Y019343D02*
Y020343D01*
X029400*
Y019343D02*
Y020343D01*
X028650Y019343D02*
X029400D01*
X017400D02*
X028650D01*
X029400Y033122D02*
Y034122D01*
X017400Y033122D02*
X029400D01*
X017400D02*
Y034122D01*
X018150*
X029400*
X022550Y024250D02*
Y025250D01*
X019550Y024250D02*
X022550D01*
X019550D02*
Y025250D01*
X022550*
X027800Y021100D02*
X028800D01*
X027800D02*
Y031100D01*
X028800*
Y030350D02*
Y031100D01*
Y021100D02*
Y030350D01*
X017400Y016600D02*
Y017600D01*
X029400*
Y016600D02*
Y017600D01*
X028650Y016600D02*
X029400D01*
X017400D02*
X028650D01*
X029400Y035878D02*
Y036878D01*
X017400Y035878D02*
X029400D01*
X017400D02*
Y036878D01*
X018150*
X029400*
X028800Y056100D02*
Y057100D01*
X016800Y056100D02*
X028800D01*
X016800D02*
Y057100D01*
X017550*
X028800*
X028900Y076650D02*
Y077650D01*
X018900Y076650D02*
X028900D01*
X018900D02*
Y077650D01*
X019650*
X028900*
X028800Y063000D02*
Y064000D01*
X016800Y063000D02*
X028800D01*
X016800D02*
Y064000D01*
X017550*
X028800*
Y044000D02*
Y045000D01*
X016800Y044000D02*
X028800D01*
X016800D02*
Y045000D01*
X017550*
X028800*
Y050800D02*
Y051800D01*
X016800Y050800D02*
X028800D01*
X016800D02*
Y051800D01*
X017550*
X028800*
X033557Y028646D02*
X035643D01*
X034850Y034354D02*
X035643D01*
X033557D02*
X034350D01*
X035643Y028646D02*
Y034354D01*
X033557Y028646D02*
Y034354D01*
X025783Y026017D02*
Y028183D01*
X023617Y026017D02*
Y028183D01*
Y026017D02*
X025783D01*
X023617Y028183D02*
X025783D01*
X034684Y036646D02*
Y037354D01*
X032716Y036646D02*
Y037354D01*
X034684*
X032716Y036646D02*
X034684D01*
X012218Y031696D02*
X015682D01*
X012218Y032404D02*
X015682D01*
X012218Y031696D02*
Y032404D01*
X015682Y031696D02*
Y032404D01*
X018074Y029514D02*
Y030734D01*
X018271Y029514D02*
Y030734D01*
X018074D02*
X018271D01*
X018074Y029514D02*
X018271D01*
X020676Y029576D02*
X020991D01*
Y029379D02*
Y029576D01*
X019809D02*
X020124D01*
X019809Y029379D02*
Y029576D01*
X013446Y020066D02*
Y022034D01*
X014154Y020066D02*
Y022034D01*
X013446D02*
X014154D01*
X013446Y020066D02*
X014154D01*
X030278Y023953D02*
Y028047D01*
X032089*
Y023953D02*
Y028047D01*
X030278Y023953D02*
X032089D01*
X030475D02*
Y028047D01*
X010200Y059221D02*
X013200D01*
Y060579*
X010200D02*
X013200D01*
X010200Y060150D02*
Y060579D01*
Y059221D02*
Y059650D01*
Y047121D02*
X013200D01*
Y048479*
X010200D02*
X013200D01*
X010200Y048050D02*
Y048479D01*
Y047121D02*
Y047550D01*
X013371Y059221D02*
X016371D01*
Y060579*
X013371D02*
X016371D01*
X013371Y060150D02*
Y060579D01*
Y059221D02*
Y059650D01*
Y047121D02*
X016371D01*
Y048479*
X013371D02*
X016371D01*
X013371Y048050D02*
Y048479D01*
Y047121D02*
Y047550D01*
X016543Y059221D02*
X019543D01*
Y060579*
X016543D02*
X019543D01*
X016543Y060150D02*
Y060579D01*
Y059221D02*
Y059650D01*
Y047121D02*
X019543D01*
Y048479*
X016543D02*
X019543D01*
X016543Y048050D02*
Y048479D01*
Y047121D02*
Y047550D01*
X019714Y059221D02*
X022714D01*
Y060579*
X019714D02*
X022714D01*
X019714Y060150D02*
Y060579D01*
Y059221D02*
Y059650D01*
Y047121D02*
X022714D01*
Y048479*
X019714D02*
X022714D01*
X019714Y048050D02*
Y048479D01*
Y047121D02*
Y047550D01*
X022886Y059221D02*
X025886D01*
Y060579*
X022886D02*
X025886D01*
X022886Y060150D02*
Y060579D01*
Y059221D02*
Y059650D01*
Y047121D02*
X025886D01*
Y048479*
X022886D02*
X025886D01*
X022886Y048050D02*
Y048479D01*
Y047121D02*
Y047550D01*
X026057Y059221D02*
X029057D01*
Y060579*
X026057D02*
X029057D01*
X026057Y060150D02*
Y060579D01*
Y059221D02*
Y059650D01*
Y047121D02*
X029057D01*
Y048479*
X026057D02*
X029057D01*
X026057Y048050D02*
Y048479D01*
Y047121D02*
Y047550D01*
X029229Y059221D02*
X032229D01*
Y060579*
X029229D02*
X032229D01*
X029229Y060150D02*
Y060579D01*
Y059221D02*
Y059650D01*
Y047121D02*
X032229D01*
Y048479*
X029229D02*
X032229D01*
X029229Y048050D02*
Y048479D01*
Y047121D02*
Y047550D01*
X032400Y059221D02*
X035400D01*
Y060579*
X032400D02*
X035400D01*
X032400Y060150D02*
Y060579D01*
Y059221D02*
Y059650D01*
Y047121D02*
X035400D01*
Y048479*
X032400D02*
X035400D01*
X032400Y048050D02*
Y048479D01*
Y047121D02*
Y047550D01*
G54D57*
X029635Y022155D02*
X029835D01*
X029735Y022255D02*
Y022055D01*
X031855Y021755D02*
X032055D01*
X031955Y021855D02*
Y021655D01*
X031839Y026055D02*
X032039D01*
X031939Y026155D02*
Y025955D01*
G54D58*
X011967Y010600D02*
X011833D01*
X011900*
Y010267*
X011833Y010200*
X011767*
X011700Y010267*
X012100Y010533D02*
X012167Y010600D01*
X012300*
X012366Y010533*
Y010467*
X012300Y010400*
X012233*
X012300*
X012366Y010333*
Y010267*
X012300Y010200*
X012167*
X012100Y010267*
X012500Y010600D02*
Y010200D01*
X012700*
X012766Y010267*
Y010533*
X012700Y010600*
X012500*
X012900Y010200D02*
Y010600D01*
X013166Y010200*
Y010600*
X013966D02*
X013833D01*
X013899*
Y010267*
X013833Y010200*
X013766*
X013699Y010267*
X014099Y010533D02*
X014166Y010600D01*
X014299*
X014366Y010533*
Y010467*
X014299Y010400*
X014233*
X014299*
X014366Y010333*
Y010267*
X014299Y010200*
X014166*
X014099Y010267*
X014499Y010600D02*
Y010267D01*
X014566Y010200*
X014699*
X014766Y010267*
Y010600*
X014899Y010200D02*
Y010600D01*
X015099*
X015166Y010533*
Y010400*
X015099Y010333*
X014899*
X015965Y010600D02*
X015832D01*
X015899*
Y010267*
X015832Y010200*
X015765*
X015699Y010267*
X016365Y010200D02*
X016099D01*
X016365Y010467*
Y010533*
X016299Y010600*
X016165*
X016099Y010533*
X016498Y010600D02*
Y010200D01*
X016698*
X016765Y010267*
Y010533*
X016698Y010600*
X016498*
X016898Y010200D02*
Y010600D01*
X017165Y010200*
Y010600*
X017965D02*
X017831D01*
X017898*
Y010267*
X017831Y010200*
X017765*
X017698Y010267*
X018365Y010200D02*
X018098D01*
X018365Y010467*
Y010533*
X018298Y010600*
X018165*
X018098Y010533*
X018498Y010600D02*
Y010267D01*
X018564Y010200*
X018698*
X018764Y010267*
Y010600*
X018898Y010200D02*
Y010600D01*
X019098*
X019164Y010533*
Y010400*
X019098Y010333*
X018898*
X019964Y010600D02*
X019831D01*
X019897*
Y010267*
X019831Y010200*
X019764*
X019697Y010267*
X020097Y010200D02*
X020231D01*
X020164*
Y010600*
X020097Y010533*
X020431Y010600D02*
Y010200D01*
X020630*
X020697Y010267*
Y010533*
X020630Y010600*
X020431*
X020830Y010200D02*
Y010600D01*
X021097Y010200*
Y010600*
X021897D02*
X021763D01*
X021830*
Y010267*
X021763Y010200*
X021697*
X021630Y010267*
X022030Y010200D02*
X022163D01*
X022097*
Y010600*
X022030Y010533*
X022363Y010600D02*
Y010267D01*
X022430Y010200*
X022563*
X022630Y010267*
Y010600*
X022763Y010200D02*
Y010600D01*
X022963*
X023030Y010533*
Y010400*
X022963Y010333*
X022763*
X023829Y010600D02*
X023696D01*
X023763*
Y010267*
X023696Y010200*
X023629*
X023563Y010267*
X023963Y010533D02*
X024029Y010600D01*
X024163*
X024229Y010533*
Y010267*
X024163Y010200*
X024029*
X023963Y010267*
Y010533*
X024363Y010600D02*
Y010200D01*
X024563*
X024629Y010267*
Y010533*
X024563Y010600*
X024363*
X024762Y010200D02*
Y010600D01*
X025029Y010200*
Y010600*
X025829D02*
X025695D01*
X025762*
Y010267*
X025695Y010200*
X025629*
X025562Y010267*
X025962Y010533D02*
X026029Y010600D01*
X026162*
X026229Y010533*
Y010267*
X026162Y010200*
X026029*
X025962Y010267*
Y010533*
X026362Y010600D02*
Y010267D01*
X026429Y010200*
X026562*
X026629Y010267*
Y010600*
X026762Y010200D02*
Y010600D01*
X026962*
X027028Y010533*
Y010400*
X026962Y010333*
X026762*
X027562Y010600D02*
Y010200D01*
X027828*
X027961Y010600D02*
X028095D01*
X028028*
Y010200*
X027961*
X028095*
X028295Y010600D02*
Y010333D01*
X028428Y010200*
X028561Y010333*
Y010600*
X028961D02*
X028695D01*
Y010200*
X028961*
X028695Y010400D02*
X028828D01*
X031750Y010450D02*
X032017D01*
X031883Y010583D02*
Y010317D01*
X032150Y010250D02*
X032283D01*
X032217*
Y010650*
X032150Y010583*
X032750Y010250D02*
X032483D01*
X032750Y010517*
Y010583*
X032683Y010650*
X032550*
X032483Y010583*
X032883Y010650D02*
Y010383D01*
X033016Y010250*
X033150Y010383*
Y010650*
X034349Y010583D02*
X034283Y010650D01*
X034149*
X034083Y010583*
Y010317*
X034149Y010250*
X034283*
X034349Y010317*
Y010450*
X034216*
X034482Y010250D02*
Y010650D01*
X034749Y010250*
Y010650*
X034882D02*
Y010250D01*
X035082*
X035149Y010317*
Y010583*
X035082Y010650*
X034882*
X026783Y042850D02*
X026917D01*
X026850*
Y043183*
X026917Y043250*
X026983*
X027050Y043183*
X026650Y042850D02*
X026384D01*
Y042917*
X026650Y043183*
Y043250*
X026250Y042850D02*
Y043250D01*
X026050*
X025984Y043183*
Y042917*
X026050Y042850*
X026250*
X025850Y043250D02*
Y042850D01*
X025584Y043250*
Y042850*
X024784D02*
X024917D01*
X024851*
Y043183*
X024917Y043250*
X024984*
X025051Y043183*
X024651Y042850D02*
X024384D01*
Y042917*
X024651Y043183*
Y043250*
X024251Y042850D02*
Y043183D01*
X024184Y043250*
X024051*
X023984Y043183*
Y042850*
X023851Y043250D02*
Y042850D01*
X023651*
X023584Y042917*
Y043050*
X023651Y043117*
X023851*
X022785Y042850D02*
X022918D01*
X022851*
Y043183*
X022918Y043250*
X022985*
X023051Y043183*
X022385Y042850D02*
X022518Y042917D01*
X022651Y043050*
Y043183*
X022585Y043250*
X022451*
X022385Y043183*
Y043117*
X022451Y043050*
X022651*
X022252Y042850D02*
Y043250D01*
X022052*
X021985Y043183*
Y042917*
X022052Y042850*
X022252*
X021852Y043250D02*
Y042850D01*
X021585Y043250*
Y042850*
X020785D02*
X020919D01*
X020852*
Y043183*
X020919Y043250*
X020985*
X021052Y043183*
X020385Y042850D02*
X020519Y042917D01*
X020652Y043050*
Y043183*
X020585Y043250*
X020452*
X020385Y043183*
Y043117*
X020452Y043050*
X020652*
X020252Y042850D02*
Y043183D01*
X020186Y043250*
X020052*
X019986Y043183*
Y042850*
X019852Y043250D02*
Y042850D01*
X019652*
X019586Y042917*
Y043050*
X019652Y043117*
X019852*
X018786Y042850D02*
X018919D01*
X018853*
Y043183*
X018919Y043250*
X018986*
X019053Y043183*
X018386Y042850D02*
X018653D01*
Y043050*
X018519Y042983*
X018453*
X018386Y043050*
Y043183*
X018453Y043250*
X018586*
X018653Y043183*
X018253Y042850D02*
Y043250D01*
X018053*
X017986Y043183*
Y042917*
X018053Y042850*
X018253*
X017853Y043250D02*
Y042850D01*
X017586Y043250*
Y042850*
X016787D02*
X016920D01*
X016853*
Y043183*
X016920Y043250*
X016987*
X017053Y043183*
X016387Y042850D02*
X016653D01*
Y043050*
X016520Y042983*
X016453*
X016387Y043050*
Y043183*
X016453Y043250*
X016587*
X016653Y043183*
X016253Y042850D02*
Y043183D01*
X016187Y043250*
X016054*
X015987Y043183*
Y042850*
X015854Y043250D02*
Y042850D01*
X015654*
X015587Y042917*
Y043050*
X015654Y043117*
X015854*
X014787Y042850D02*
X014921D01*
X014854*
Y043183*
X014921Y043250*
X014987*
X015054Y043183*
X014454Y043250D02*
Y042850D01*
X014654Y043050*
X014387*
X014254Y042850D02*
Y043250D01*
X014054*
X013988Y043183*
Y042917*
X014054Y042850*
X014254*
X013854Y043250D02*
Y042850D01*
X013588Y043250*
Y042850*
X012788D02*
X012921D01*
X012855*
Y043183*
X012921Y043250*
X012988*
X013055Y043183*
X012455Y043250D02*
Y042850D01*
X012655Y043050*
X012388*
X012255Y042850D02*
Y043183D01*
X012188Y043250*
X012055*
X011988Y043183*
Y042850*
X011855Y043250D02*
Y042850D01*
X011655*
X011588Y042917*
Y043050*
X011655Y043117*
X011855*
X035150Y043250D02*
Y042983D01*
X035017Y042850*
X034883Y042983*
Y043250*
Y043050*
X035150*
X034350Y043250D02*
Y042850D01*
X034150*
X034084Y042917*
Y043050*
X034150Y043117*
X034350*
X034217D02*
X034084Y043250D01*
X033684Y042917D02*
X033750Y042850D01*
X033884*
X033950Y042917*
Y042983*
X033884Y043050*
X033750*
X033684Y043117*
Y043183*
X033750Y043250*
X033884*
X033950Y043183*
X033351Y043250D02*
Y042850D01*
X033551Y043050*
X033284*
X033151Y042917D02*
X033084Y042850D01*
X032951*
X032884Y042917*
Y042983*
X032951Y043050*
X032884Y043117*
Y043183*
X032951Y043250*
X033084*
X033151Y043183*
Y043117*
X033084Y043050*
X033151Y042983*
Y042917*
X033084Y043050D02*
X032951D01*
X032484Y042850D02*
X032751D01*
Y043050*
X032617Y042983*
X032551*
X032484Y043050*
Y043183*
X032551Y043250*
X032684*
X032751Y043183*
X031951Y042850D02*
Y043250D01*
X031751*
X031684Y043183*
Y043117*
X031751Y043050*
X031951*
X031751*
X031684Y042983*
Y042917*
X031751Y042850*
X031951*
X034900Y029300D02*
X034500D01*
X034300Y029500*
X034500Y029700*
X034900*
X034600*
Y029300*
X034300Y029900D02*
X034900D01*
Y030200*
X034800Y030300*
X034400*
X034300Y030200*
Y029900*
Y030500D02*
X034900D01*
Y030800*
X034800Y030899*
X034400*
X034300Y030800*
Y030500*
X034900Y031099D02*
X034300D01*
Y031399*
X034400Y031499*
X034600*
X034700Y031399*
Y031099*
Y031299D02*
X034900Y031499D01*
X034300Y032099D02*
Y031699D01*
X034900*
Y032099*
X034600Y031699D02*
Y031899D01*
X034400Y032699D02*
X034300Y032599D01*
Y032399*
X034400Y032299*
X034500*
X034600Y032399*
Y032599*
X034700Y032699*
X034800*
X034900Y032599*
Y032399*
X034800Y032299*
X034400Y033299D02*
X034300Y033199D01*
Y032999*
X034400Y032899*
X034500*
X034600Y032999*
Y033199*
X034700Y033299*
X034800*
X034900Y033199*
Y032999*
X034800Y032899*
X032500Y029350D02*
X032287D01*
X032180Y029457*
X032287Y029563*
X032500*
X032340*
Y029350*
X032233Y029670D02*
X032180Y029723D01*
Y029830*
X032233Y029883*
X032447*
X032500Y029830*
Y029723*
X032447Y029670*
X032233*
X032500Y030310D02*
X032287D01*
X032180Y030416*
X032287Y030523*
X032500*
X032340*
Y030310*
X032500Y030630D02*
Y030736D01*
Y030683*
X032180*
X032233Y030630*
X032500Y031216D02*
X032287D01*
X032180Y031323*
X032287Y031429*
X032500*
X032340*
Y031216*
X032500Y031749D02*
Y031536D01*
X032287Y031749*
X032233*
X032180Y031696*
Y031589*
X032233Y031536*
X032500Y032176D02*
X032287D01*
X032180Y032282*
X032287Y032389*
X032500*
X032340*
Y032176*
X032233Y032496D02*
X032180Y032549D01*
Y032656*
X032233Y032709*
X032287*
X032340Y032656*
Y032602*
Y032656*
X032393Y032709*
X032447*
X032500Y032656*
Y032549*
X032447Y032496*
X032500Y033135D02*
X032287D01*
X032180Y033242*
X032287Y033349*
X032500*
X032340*
Y033135*
X032500Y033615D02*
X032180D01*
X032340Y033455*
Y033669*
M02*