%FSDAX24Y24*%
%MOIN*%
%SFA1B1*%

%IPPOS*%
%ADD23C,0.020000*%
%ADD24C,0.050000*%
%ADD25C,0.030000*%
%ADD32C,0.059100*%
%ADD34R,0.053100X0.053100*%
%ADD36R,0.059100X0.059100*%
%ADD37C,0.063000*%
%ADD39C,0.118100*%
%ADD40C,0.098400*%
%ADD42R,0.066900X0.066900*%
%ADD43C,0.066900*%
%ADD44O,0.047200X0.098400*%
%ADD46C,0.030000*%
%ADD48C,0.080000*%
%LNde-120824-1*%
%LPD*%
G54D23*
X025386Y061400D02*
Y062036D01*
X025800Y062450*
X029000*
X029500Y062950*
Y063900*
X028900Y064500D02*
X029500Y063900D01*
X027050Y064500D02*
X028900D01*
X026018Y065532D02*
X027050Y064500D01*
X026018Y065532D02*
Y066031D01*
X018782Y065400D02*
X019582Y066200D01*
X016000Y065400D02*
X018782D01*
X015450Y064850D02*
X016000Y065400D01*
X015450Y063150D02*
Y064850D01*
Y063150D02*
X016200Y062400D01*
X021850*
X022214Y062036*
Y061400D02*
Y062036D01*
X018480Y052900D02*
X019680Y054100D01*
X029050Y050400D02*
X029500Y050850D01*
X025550Y050400D02*
X029050D01*
X025386Y050236D02*
X025550Y050400D01*
X025386Y049300D02*
Y050236D01*
X025920Y053931D02*
X027401Y052450D01*
X029100*
X029500Y052050*
Y050850D02*
Y052050D01*
X016650Y052900D02*
X018480D01*
X016200Y052450D02*
X016650Y052900D01*
X016200Y050750D02*
Y052450D01*
X022214Y049300D02*
Y049986D01*
X016200Y050750D02*
X016550Y050400D01*
X021800*
X022214Y049986*
G54D24*
X031400Y038400D02*
X031700Y038700D01*
X015400Y033150D02*
X017350Y031200D01*
X018900Y029650*
X026300Y025600D02*
Y028100D01*
X024750Y029650D02*
X026300Y028100D01*
X020950Y029650D02*
X024750D01*
X027000Y031750D02*
X029150D01*
X024900Y029650D02*
X027000Y031750D01*
X029150D02*
X029650Y031250D01*
Y024250D02*
Y031250D01*
Y024250D02*
X030806Y023094D01*
Y022300D02*
Y023094D01*
X012150Y033150D02*
X015400D01*
X021200Y022600D02*
X026600D01*
X016850D02*
X021200D01*
Y023250*
X026600Y022600D02*
Y025250D01*
Y025300*
X026300Y025600D02*
X026600Y025300D01*
X020920Y029620D02*
X020950Y029650D01*
X020920Y028270D02*
Y029620D01*
X019450Y026800D02*
X020920Y028270D01*
X018900Y029650D02*
X020950D01*
X031400Y027000D02*
Y038400D01*
G54D25*
X032316Y020800D02*
X033416Y021900D01*
X027250Y020800D02*
X032316D01*
X026600Y021450D02*
X027250Y020800D01*
X019200Y021450D02*
X026600D01*
X018450Y020700D02*
X019200Y021450D01*
X015800Y020700D02*
X018450D01*
X015700Y020800D02*
X015800Y020700D01*
X015700Y020800D02*
Y022950D01*
X016950Y024200*
Y026841*
X018286Y028176*
G54D32*
X027900Y017100D03*
X018900D03*
X017900D03*
X018900Y036378D03*
X027900D03*
X028900D03*
G54D34*
X030806Y022300D03*
G54D36*
X033416Y021900D03*
X028900Y017100D03*
X017900Y036378D03*
G54D37*
X019582Y066200D03*
X019680Y054100D03*
X026018Y066031D03*
X025920Y053931D03*
G54D39*
X018286Y028176D03*
X011514Y024987D03*
G54D40*
X032500Y012400D03*
G54D42*
X031400Y025000D03*
G54D43*
X031400Y027000D03*
G54D44*
X022214Y061400D03*
Y049300D03*
X025386Y061400D03*
Y049300D03*
G54D46*
X017350Y031200D03*
X021200Y023250D03*
X016850Y022600D03*
X026600Y025250D03*
X020950Y029650D03*
X012150Y033150D03*
X019450Y026800D03*
X031650Y038700D03*
G54D48*
X017900Y036378D02*
Y037150D01*
X018750Y038000*
X028100*
X028900Y037200*
Y036378D02*
Y037200D01*
X017900Y016200D02*
Y017100D01*
Y016200D02*
X018500Y015600D01*
X028100*
X028900Y016400*
Y017100*
X033416Y021900D02*
Y022984D01*
X031400Y025000D02*
X033416Y022984D01*
Y021900D02*
X034500Y020816D01*
Y015650D02*
Y020816D01*
X032500Y013650D02*
X034500Y015650D01*
X032500Y012400D02*
Y013650D01*
X027900Y017100D02*
X028900D01*
X027900Y036378D02*
X028900D01*
X017900D02*
X018900D01*
X011478D02*
X017900D01*
X010650Y035550D02*
X011478Y036378D01*
X010650Y025852D02*
Y035550D01*
Y025852D02*
X011514Y024987D01*
X017900Y017100D02*
X018900D01*
X013400D02*
X017900D01*
X010850Y019650D02*
X013400Y017100D01*
X010850Y019650D02*
Y024323D01*
X011514Y024987*
M02*