%FSDAX24Y24*%
%MOIN*%
%SFA1B1*%

%IPPOS*%
%ADD92C,0.003900*%
%LNde-120824-1*%
%LPD*%
G54D92*
X033647Y071675D02*
D01*
X033646Y071688*
X033645Y071702*
X033642Y071715*
X033639Y071729*
X033635Y071742*
X033629Y071755*
X033623Y071767*
X033617Y071779*
X033609Y071790*
X033600Y071801*
X033591Y071811*
X033581Y071821*
X033571Y071830*
X033560Y071838*
X033548Y071845*
X033536Y071852*
X033523Y071857*
X033510Y071862*
X033497Y071866*
X033484Y071869*
X033470Y071870*
X033456Y071871*
X033443*
X033429Y071870*
X033415Y071869*
X033402Y071866*
X033389Y071862*
X033376Y071857*
X033363Y071852*
X033351Y071845*
X033339Y071838*
X033328Y071830*
X033318Y071821*
X033308Y071811*
X033299Y071801*
X033290Y071790*
X033282Y071779*
X033276Y071767*
X033270Y071755*
X033264Y071742*
X033260Y071729*
X033257Y071715*
X033254Y071702*
X033253Y071688*
X033253Y071675*
X033253Y071661*
X033254Y071647*
X033257Y071634*
X033260Y071620*
X033264Y071607*
X033270Y071594*
X033276Y071582*
X033282Y071570*
X033290Y071559*
X033299Y071548*
X033308Y071538*
X033318Y071528*
X033328Y071519*
X033339Y071511*
X033351Y071504*
X033363Y071497*
X033376Y071492*
X033389Y071487*
X033402Y071483*
X033415Y071480*
X033429Y071479*
X033443Y071478*
X033456*
X033470Y071479*
X033484Y071480*
X033497Y071483*
X033510Y071487*
X033523Y071492*
X033536Y071497*
X033548Y071504*
X033560Y071511*
X033571Y071519*
X033581Y071528*
X033591Y071538*
X033600Y071548*
X033609Y071559*
X033617Y071570*
X033623Y071582*
X033629Y071594*
X033635Y071607*
X033639Y071620*
X033642Y071634*
X033645Y071647*
X033646Y071661*
X033647Y071675*
X021848Y021787D02*
D01*
X021847Y021800*
X021846Y021814*
X021843Y021827*
X021840Y021841*
X021836Y021854*
X021830Y021867*
X021824Y021879*
X021818Y021891*
X021810Y021902*
X021801Y021913*
X021792Y021923*
X021782Y021933*
X021772Y021942*
X021761Y021950*
X021749Y021957*
X021737Y021964*
X021724Y021969*
X021711Y021974*
X021698Y021978*
X021685Y021981*
X021671Y021982*
X021657Y021983*
X021644*
X021630Y021982*
X021616Y021981*
X021603Y021978*
X021590Y021974*
X021577Y021969*
X021564Y021964*
X021552Y021957*
X021540Y021950*
X021529Y021942*
X021519Y021933*
X021509Y021923*
X021500Y021913*
X021491Y021902*
X021483Y021891*
X021477Y021879*
X021471Y021867*
X021465Y021854*
X021461Y021841*
X021458Y021827*
X021455Y021814*
X021454Y021800*
X021454Y021787*
X021454Y021773*
X021455Y021759*
X021458Y021746*
X021461Y021732*
X021465Y021719*
X021471Y021706*
X021477Y021694*
X021483Y021682*
X021491Y021671*
X021500Y021660*
X021509Y021650*
X021519Y021640*
X021529Y021631*
X021540Y021623*
X021552Y021616*
X021564Y021609*
X021577Y021604*
X021590Y021599*
X021603Y021595*
X021616Y021592*
X021630Y021591*
X021644Y021590*
X021657*
X021671Y021591*
X021685Y021592*
X021698Y021595*
X021711Y021599*
X021724Y021604*
X021737Y021609*
X021749Y021616*
X021761Y021623*
X021772Y021631*
X021782Y021640*
X021792Y021650*
X021801Y021660*
X021810Y021671*
X021818Y021682*
X021824Y021694*
X021830Y021706*
X021836Y021719*
X021840Y021732*
X021843Y021746*
X021846Y021759*
X021847Y021773*
X021848Y021787*
X033872Y034000D02*
D01*
X033871Y034013*
X033870Y034027*
X033867Y034040*
X033864Y034054*
X033860Y034067*
X033854Y034080*
X033848Y034092*
X033842Y034104*
X033834Y034115*
X033825Y034126*
X033816Y034136*
X033806Y034146*
X033796Y034155*
X033785Y034163*
X033773Y034170*
X033761Y034177*
X033748Y034182*
X033735Y034187*
X033722Y034191*
X033709Y034194*
X033695Y034195*
X033681Y034196*
X033668*
X033654Y034195*
X033640Y034194*
X033627Y034191*
X033614Y034187*
X033601Y034182*
X033588Y034177*
X033576Y034170*
X033564Y034163*
X033553Y034155*
X033543Y034146*
X033533Y034136*
X033524Y034126*
X033515Y034115*
X033507Y034104*
X033501Y034092*
X033495Y034080*
X033489Y034067*
X033485Y034054*
X033482Y034040*
X033479Y034027*
X033478Y034013*
X033478Y034000*
X033478Y033986*
X033479Y033972*
X033482Y033959*
X033485Y033945*
X033489Y033932*
X033495Y033919*
X033501Y033907*
X033507Y033895*
X033515Y033884*
X033524Y033873*
X033533Y033863*
X033543Y033853*
X033553Y033844*
X033564Y033836*
X033576Y033829*
X033588Y033822*
X033601Y033817*
X033614Y033812*
X033627Y033808*
X033640Y033805*
X033654Y033804*
X033668Y033803*
X033681*
X033695Y033804*
X033709Y033805*
X033722Y033808*
X033735Y033812*
X033748Y033817*
X033761Y033822*
X033773Y033829*
X033785Y033836*
X033796Y033844*
X033806Y033853*
X033816Y033863*
X033825Y033873*
X033834Y033884*
X033842Y033895*
X033848Y033907*
X033854Y033919*
X033860Y033932*
X033864Y033945*
X033867Y033959*
X033870Y033972*
X033871Y033986*
X033872Y034000*
X025920Y026076D02*
D01*
X025919Y026089*
X025918Y026103*
X025915Y026116*
X025912Y026130*
X025908Y026143*
X025902Y026156*
X025896Y026168*
X025890Y026180*
X025882Y026191*
X025873Y026202*
X025864Y026212*
X025854Y026222*
X025844Y026231*
X025833Y026239*
X025821Y026246*
X025809Y026253*
X025796Y026258*
X025783Y026263*
X025770Y026267*
X025757Y026270*
X025743Y026271*
X025729Y026272*
X025716*
X025702Y026271*
X025688Y026270*
X025675Y026267*
X025662Y026263*
X025649Y026258*
X025636Y026253*
X025624Y026246*
X025612Y026239*
X025601Y026231*
X025591Y026222*
X025581Y026212*
X025572Y026202*
X025563Y026191*
X025555Y026180*
X025549Y026168*
X025543Y026156*
X025537Y026143*
X025533Y026130*
X025530Y026116*
X025527Y026103*
X025526Y026089*
X025526Y026076*
X025526Y026062*
X025527Y026048*
X025530Y026035*
X025533Y026021*
X025537Y026008*
X025543Y025995*
X025549Y025983*
X025555Y025971*
X025563Y025960*
X025572Y025949*
X025581Y025939*
X025591Y025929*
X025601Y025920*
X025612Y025912*
X025624Y025905*
X025636Y025898*
X025649Y025893*
X025662Y025888*
X025675Y025884*
X025688Y025881*
X025702Y025880*
X025716Y025879*
X025729*
X025743Y025880*
X025757Y025881*
X025770Y025884*
X025783Y025888*
X025796Y025893*
X025809Y025898*
X025821Y025905*
X025833Y025912*
X025844Y025920*
X025854Y025929*
X025864Y025939*
X025873Y025949*
X025882Y025960*
X025890Y025971*
X025896Y025983*
X025902Y025995*
X025908Y026008*
X025912Y026021*
X025915Y026035*
X025918Y026048*
X025919Y026062*
X025920Y026076*
X033287Y036587D02*
D01*
X033286Y036600*
X033285Y036614*
X033282Y036627*
X033279Y036641*
X033275Y036654*
X033269Y036667*
X033263Y036679*
X033257Y036691*
X033249Y036702*
X033240Y036713*
X033231Y036723*
X033221Y036733*
X033211Y036742*
X033200Y036750*
X033188Y036757*
X033176Y036764*
X033163Y036769*
X033150Y036774*
X033137Y036778*
X033124Y036781*
X033110Y036782*
X033096Y036783*
X033083*
X033069Y036782*
X033055Y036781*
X033042Y036778*
X033029Y036774*
X033016Y036769*
X033003Y036764*
X032991Y036757*
X032979Y036750*
X032968Y036742*
X032958Y036733*
X032948Y036723*
X032939Y036713*
X032930Y036702*
X032922Y036691*
X032916Y036679*
X032910Y036667*
X032904Y036654*
X032900Y036641*
X032897Y036627*
X032894Y036614*
X032893Y036600*
X032893Y036587*
X032893Y036573*
X032894Y036559*
X032897Y036546*
X032900Y036532*
X032904Y036519*
X032910Y036506*
X032916Y036494*
X032922Y036482*
X032930Y036471*
X032939Y036460*
X032948Y036450*
X032958Y036440*
X032968Y036431*
X032979Y036423*
X032991Y036416*
X033003Y036409*
X033016Y036404*
X033029Y036399*
X033042Y036395*
X033055Y036392*
X033069Y036391*
X033083Y036390*
X033096*
X033110Y036391*
X033124Y036392*
X033137Y036395*
X033150Y036399*
X033163Y036404*
X033176Y036409*
X033188Y036416*
X033200Y036423*
X033211Y036431*
X033221Y036440*
X033231Y036450*
X033240Y036460*
X033249Y036471*
X033257Y036482*
X033263Y036494*
X033269Y036506*
X033275Y036519*
X033279Y036532*
X033282Y036546*
X033285Y036559*
X033286Y036573*
X033287Y036587*
X012798Y031637D02*
D01*
X012797Y031650*
X012796Y031664*
X012793Y031677*
X012790Y031691*
X012786Y031704*
X012780Y031717*
X012774Y031729*
X012768Y031741*
X012760Y031752*
X012751Y031763*
X012742Y031773*
X012732Y031783*
X012722Y031792*
X012711Y031800*
X012699Y031807*
X012687Y031814*
X012674Y031819*
X012661Y031824*
X012648Y031828*
X012635Y031831*
X012621Y031832*
X012607Y031833*
X012594*
X012580Y031832*
X012566Y031831*
X012553Y031828*
X012540Y031824*
X012527Y031819*
X012514Y031814*
X012502Y031807*
X012490Y031800*
X012479Y031792*
X012469Y031783*
X012459Y031773*
X012450Y031763*
X012441Y031752*
X012433Y031741*
X012427Y031729*
X012421Y031717*
X012415Y031704*
X012411Y031691*
X012408Y031677*
X012405Y031664*
X012404Y031650*
X012404Y031637*
X012404Y031623*
X012405Y031609*
X012408Y031596*
X012411Y031582*
X012415Y031569*
X012421Y031556*
X012427Y031544*
X012433Y031532*
X012441Y031521*
X012450Y031510*
X012459Y031500*
X012469Y031490*
X012479Y031481*
X012490Y031473*
X012502Y031466*
X012514Y031459*
X012527Y031454*
X012540Y031449*
X012553Y031445*
X012566Y031442*
X012580Y031441*
X012594Y031440*
X012607*
X012621Y031441*
X012635Y031442*
X012648Y031445*
X012661Y031449*
X012674Y031454*
X012687Y031459*
X012699Y031466*
X012711Y031473*
X012722Y031481*
X012732Y031490*
X012742Y031500*
X012751Y031510*
X012760Y031521*
X012768Y031532*
X012774Y031544*
X012780Y031556*
X012786Y031569*
X012790Y031582*
X012793Y031596*
X012796Y031609*
X012797Y031623*
X012798Y031637*
X013564Y021680D02*
D01*
X013563Y021693*
X013562Y021707*
X013559Y021720*
X013556Y021734*
X013552Y021747*
X013546Y021760*
X013540Y021772*
X013534Y021784*
X013526Y021795*
X013517Y021806*
X013508Y021816*
X013498Y021826*
X013488Y021835*
X013477Y021843*
X013465Y021850*
X013453Y021857*
X013440Y021862*
X013427Y021867*
X013414Y021871*
X013401Y021874*
X013387Y021875*
X013373Y021876*
X013360*
X013346Y021875*
X013332Y021874*
X013319Y021871*
X013306Y021867*
X013293Y021862*
X013280Y021857*
X013268Y021850*
X013256Y021843*
X013245Y021835*
X013235Y021826*
X013225Y021816*
X013216Y021806*
X013207Y021795*
X013199Y021784*
X013193Y021772*
X013187Y021760*
X013181Y021747*
X013177Y021734*
X013174Y021720*
X013171Y021707*
X013170Y021693*
X013170Y021680*
X013170Y021666*
X013171Y021652*
X013174Y021639*
X013177Y021625*
X013181Y021612*
X013187Y021599*
X013193Y021587*
X013199Y021575*
X013207Y021564*
X013216Y021553*
X013225Y021543*
X013235Y021533*
X013245Y021524*
X013256Y021516*
X013268Y021509*
X013280Y021502*
X013293Y021497*
X013306Y021492*
X013319Y021488*
X013332Y021485*
X013346Y021484*
X013360Y021483*
X013373*
X013387Y021484*
X013401Y021485*
X013414Y021488*
X013427Y021492*
X013440Y021497*
X013453Y021502*
X013465Y021509*
X013477Y021516*
X013488Y021524*
X013498Y021533*
X013508Y021543*
X013517Y021553*
X013526Y021564*
X013534Y021575*
X013540Y021587*
X013546Y021599*
X013552Y021612*
X013556Y021625*
X013559Y021639*
X013562Y021652*
X013563Y021666*
X013564Y021680*
X028096Y069470D02*
Y072030D01*
X033804Y069470D02*
Y072030D01*
X028096Y069470D02*
X033804D01*
X028096Y072030D02*
X033804D01*
X021297Y021432D02*
X024703D01*
X021297Y022968D02*
X024703D01*
X021297Y021432D02*
Y022968D01*
X024703Y021432D02*
Y022968D01*
X010172Y063253D02*
X014228D01*
X010172Y062761D02*
Y064670D01*
X014228Y062761D02*
Y064670D01*
X010172Y062761D02*
X014228D01*
X010172Y064670D02*
X014228D01*
X010172Y051122D02*
X014228D01*
X010172Y050630D02*
Y052539D01*
X014228Y050630D02*
Y052539D01*
X010172Y050630D02*
X014228D01*
X010172Y052539D02*
X014228D01*
X010172Y065653D02*
X014228D01*
X010172Y065161D02*
Y067070D01*
X014228Y065161D02*
Y067070D01*
X010172Y065161D02*
X014228D01*
X010172Y067070D02*
X014228D01*
X010172Y053553D02*
X014228D01*
X010172Y053061D02*
Y054970D01*
X014228Y053061D02*
Y054970D01*
X010172Y053061D02*
X014228D01*
X010172Y054970D02*
X014228D01*
X014363Y065653D02*
X018418D01*
X014363Y065161D02*
Y067070D01*
X018418Y065161D02*
Y067070D01*
X014363Y065161D02*
X018418D01*
X014363Y067070D02*
X018418D01*
X014412Y053553D02*
X018468D01*
X014412Y053061D02*
Y054970D01*
X018468Y053061D02*
Y054970D01*
X014412Y053061D02*
X018468D01*
X014412Y054970D02*
X018468D01*
X018554Y065653D02*
X022609D01*
X018554Y065161D02*
Y067070D01*
X022609Y065161D02*
Y067070D01*
X018554Y065161D02*
X022609D01*
X018554Y067070D02*
X022609D01*
X018652Y053553D02*
X022708D01*
X018652Y053061D02*
Y054970D01*
X022708Y053061D02*
Y054970D01*
X018652Y053061D02*
X022708D01*
X018652Y054970D02*
X022708D01*
X022991Y066578D02*
X027046D01*
Y065161D02*
Y067070D01*
X022991Y065161D02*
Y067070D01*
X027046*
X022991Y065161D02*
X027046D01*
X022892Y054478D02*
X026948D01*
Y053061D02*
Y054970D01*
X022892Y053061D02*
Y054970D01*
X026948*
X022892Y053061D02*
X026948D01*
X027182Y066578D02*
X031237D01*
Y065161D02*
Y067070D01*
X027182Y065161D02*
Y067070D01*
X031237*
X027182Y065161D02*
X031237D01*
X027132Y054478D02*
X031188D01*
Y053061D02*
Y054970D01*
X027132Y053061D02*
Y054970D01*
X031188*
X027132Y053061D02*
X031188D01*
X031372Y066578D02*
X035428D01*
Y065161D02*
Y067070D01*
X031372Y065161D02*
Y067070D01*
X035428*
X031372Y065161D02*
X035428D01*
X031372Y054478D02*
X035428D01*
Y053061D02*
Y054970D01*
X031372Y053061D02*
Y054970D01*
X035428*
X031372Y053061D02*
X035428D01*
X031372Y064178D02*
X035428D01*
Y062761D02*
Y064670D01*
X031372Y062761D02*
Y064670D01*
X035428*
X031372Y062761D02*
X035428D01*
X031372Y052047D02*
X035428D01*
Y050630D02*
Y052539D01*
X031372Y050630D02*
Y052539D01*
X035428*
X031372Y050630D02*
X035428D01*
X019883Y026682D02*
Y026918D01*
X020317Y026682D02*
Y026918D01*
X019883D02*
X020317D01*
X019883Y026682D02*
X020317D01*
X015683Y021832D02*
Y022068D01*
X016117Y021832D02*
Y022068D01*
X015683D02*
X016117D01*
X015683Y021832D02*
X016117D01*
X033320Y028646D02*
X035880D01*
X033320Y034354D02*
X035880D01*
Y028646D02*
Y034354D01*
X033320Y028646D02*
Y034354D01*
X026078Y025722D02*
Y028478D01*
X023322Y025722D02*
Y028478D01*
Y025722D02*
X026078D01*
X023322Y028478D02*
X026078D01*
X034665Y036232D02*
Y037768D01*
X032735Y036232D02*
Y037768D01*
X034665*
X032735Y036232D02*
X034665D01*
X012247Y031282D02*
X015653D01*
X012247Y032818D02*
X015653D01*
X012247Y031282D02*
Y032818D01*
X015653Y031282D02*
Y032818D01*
X017818Y030734D02*
X018527D01*
X017818Y029514D02*
X018527D01*
X017818D02*
Y030734D01*
X018527Y029514D02*
Y030734D01*
X020998Y029024D02*
Y029576D01*
X019802Y029024D02*
Y029576D01*
X020998*
X019802Y029024D02*
X020998D01*
X013013Y020066D02*
Y022034D01*
X014587Y020066D02*
Y022034D01*
X013013D02*
X014587D01*
X013013Y020066D02*
X014587D01*
X030790Y023953D02*
Y028047D01*
X030278D02*
X032089D01*
X030278Y023953D02*
Y028047D01*
Y023953D02*
X032089D01*
Y028047D01*
X016524Y024809D02*
Y025991D01*
X017076Y024809D02*
Y025991D01*
X016524Y024809D02*
X017076D01*
X016524Y025991D02*
X017076D01*
M02*