%FSDAX24Y24*%
%MOIN*%
%SFA1B1*%

%IPPOS*%
%ADD10R,0.039400X0.043300*%
%ADD12R,0.043300X0.039400*%
%ADD13R,0.051200X0.059100*%
%ADD22C,0.010000*%
%ADD23C,0.020000*%
%ADD24C,0.050000*%
%ADD25C,0.030000*%
%ADD26C,0.040000*%
%ADD27C,0.100000*%
%ADD30R,0.325000X0.420000*%
%ADD31C,0.019700*%
%ADD32C,0.059100*%
%ADD33R,0.059100X0.059100*%
%ADD34R,0.053100X0.053100*%
%ADD35C,0.053100*%
%ADD36R,0.059100X0.059100*%
%ADD37C,0.063000*%
%ADD38R,0.063000X0.063000*%
%ADD39C,0.118100*%
%ADD40C,0.098400*%
%ADD41C,0.060000*%
%ADD42R,0.066900X0.066900*%
%ADD43C,0.066900*%
%ADD44O,0.047200X0.098400*%
%ADD45R,0.047200X0.098400*%
%ADD46C,0.030000*%
%ADD47C,0.050000*%
%ADD49R,0.021700X0.057100*%
%ADD50R,0.051200X0.023600*%
%ADD51R,0.061000X0.043300*%
%ADD52R,0.061000X0.043300*%
%ADD53R,0.061000X0.135800*%
%LNde-120824-1*%
%LPD*%
G54D10*
X035300Y018300D03*
Y017631D03*
X015000Y025735D03*
Y025065D03*
X015600D03*
Y025735D03*
G54D12*
X033835Y013400D03*
X033165D03*
X034735Y026200D03*
X034065D03*
X016035Y073800D03*
X015365D03*
X016035Y077100D03*
X015365D03*
X016035Y070600D03*
X015365D03*
G54D13*
X011852Y064800D03*
X012600D03*
X011852Y052500D03*
X012600D03*
X011826Y067100D03*
X012574D03*
X011876Y054950D03*
X012624D03*
X016026Y067100D03*
X016774D03*
X016026Y055000D03*
X016774D03*
X020226Y067100D03*
X020974D03*
X020326Y055000D03*
X021074D03*
X025374Y067100D03*
X024626D03*
X025274Y055000D03*
X024526D03*
X029574Y067100D03*
X028826D03*
X029474Y055000D03*
X028726D03*
X033874Y067100D03*
X033126D03*
X033774Y055000D03*
X033026D03*
X033774Y064800D03*
X033026D03*
X033774Y052500D03*
X033026D03*
G54D22*
X022450Y073000D02*
X026100D01*
X021950Y073500D02*
X022450Y073000D01*
X021250Y073500D02*
X021950D01*
X026400Y073300D02*
Y073350D01*
X032600Y073500D02*
X032900D01*
X032100Y073000D02*
X032600Y073500D01*
X026750Y073000D02*
X032100D01*
X026400Y073350D02*
X026750Y073000D01*
X026400Y073350D02*
Y073500D01*
X026100Y073000D02*
X026400Y073300D01*
X025400Y073700D02*
X025600Y073500D01*
X025400Y073700D02*
Y077150D01*
X026400Y073500D02*
Y077150D01*
X028150Y075100D02*
X029300D01*
X027400Y075850D02*
X028150Y075100D01*
X027400Y075850D02*
Y077150D01*
X022050Y028175D02*
Y031350D01*
X020725Y026775D02*
X021220Y027270D01*
X032100Y035300D02*
X032150Y035350D01*
X026550Y029350D02*
Y031045D01*
X027000Y029000D02*
Y031241D01*
X027300Y028600D02*
X027800Y029100D01*
X026050Y029350D02*
Y030800D01*
X022075Y026630D02*
Y027025D01*
X021750Y026700D02*
X023140Y025310D01*
X021450Y026050D02*
X022145D01*
X022400Y026559D02*
Y027300D01*
X022105Y027760D02*
X022990D01*
X022180Y027580D02*
X022870D01*
X021845Y027500D02*
X022105Y027760D01*
X021400Y027650D02*
Y028350D01*
X021750Y027850D02*
Y031300D01*
X021550Y027500D02*
X021845D01*
X021220Y027270D02*
X021870D01*
X021400Y027650D02*
X021550Y027500D01*
X021870Y027270D02*
X022180Y027580D01*
X025750Y026900D02*
X025850Y027000D01*
X023550Y026900D02*
X025750D01*
X022870Y027580D02*
X023550Y026900D01*
X032909Y035050D02*
X033450D01*
X029899Y032040D02*
X032909Y035050D01*
X034200Y035400D02*
X034450Y035150D01*
X033005Y035400D02*
X034200D01*
X029825Y032220D02*
X033005Y035400D01*
X034450Y035050D02*
Y035150D01*
X027799Y032040D02*
X029899D01*
X027000Y031241D02*
X027799Y032040D01*
X027725Y032220D02*
X029825D01*
X026550Y031045D02*
X027725Y032220D01*
X032100Y034750D02*
Y035300D01*
X029750Y032400D02*
X032100Y034750D01*
X027650Y032400D02*
X029750D01*
X026050Y030800D02*
X027650Y032400D01*
X027300Y027400D02*
Y028600D01*
X023550Y027200D02*
X025150D01*
X025500Y027700D02*
Y027900D01*
Y027700D02*
X025850Y027350D01*
X022990Y027760D02*
X023550Y027200D01*
X025850Y027000D02*
Y027350D01*
X029450Y028300D02*
X030650Y029500D01*
X029450Y026200D02*
Y028300D01*
X028850Y025600D02*
X029450Y026200D01*
X029260Y026510D02*
Y028365D01*
X028850Y026100D02*
X029260Y026510D01*
Y028365D02*
X031395Y030500D01*
X029080Y027380D02*
Y028480D01*
X028800Y027100D02*
X029080Y027380D01*
X028050Y027100D02*
X028800D01*
X029080Y028480D02*
X032100Y031500D01*
X028900Y028555D02*
X032845Y032500D01*
X028900Y028250D02*
Y028555D01*
X028750Y028100D02*
X028900Y028250D01*
X028000Y028100D02*
X028750D01*
X032050Y032950D02*
X032600Y033500D01*
X032050Y031959D02*
Y032950D01*
X029191Y029100D02*
X032050Y031959D01*
X027800Y029100D02*
X029191D01*
X031395Y030500D02*
X033100D01*
X030650Y029500D02*
X033100D01*
X032600Y033500D02*
X033100D01*
X032845Y032500D02*
X033100D01*
X032100Y031500D02*
X033100D01*
X027600Y027700D02*
X028000Y028100D01*
X027600Y027100D02*
Y027700D01*
X027000Y025900D02*
X027800Y025100D01*
X028700*
X028850Y025250*
Y025600*
X027475Y026100D02*
X028850D01*
X027300Y026275D02*
X027475Y026100D01*
X027600Y026650D02*
X028050Y027100D01*
X022025Y028150D02*
X022050Y028175D01*
X019900Y033500D02*
X022050Y031350D01*
X020900Y032877D02*
X022400Y031377D01*
Y028570D02*
Y031377D01*
X020100Y032950D02*
X021750Y031300D01*
X022145Y026050D02*
X022960Y025235D01*
Y023560D02*
Y025235D01*
X021500Y022100D02*
X022960Y023560D01*
X023140Y023440D02*
Y025310D01*
X022000Y022300D02*
X023140Y023440D01*
X022075Y026630D02*
X023320Y025385D01*
Y023365D02*
Y025385D01*
X023000Y023045D02*
X023320Y023365D01*
X023500Y020550D02*
Y025459D01*
X022400Y026559D02*
X023500Y025459D01*
X023000Y020550D02*
X023104D01*
X023000D02*
Y023045D01*
X022000Y020550D02*
Y022300D01*
X021500Y020550D02*
Y022100D01*
X022900Y019300D02*
Y019843D01*
Y019300D02*
X023250Y018950D01*
X025850*
X026400Y019500*
Y021550*
X024000Y023950D02*
X026400Y021550D01*
X015000Y025735D02*
Y026300D01*
X019900Y033500D02*
Y033622D01*
X020900Y032877D02*
Y033622D01*
X018572Y032950D02*
X020100D01*
X017900Y033622D02*
X018572Y032950D01*
X018900Y033622D02*
Y034200D01*
X018650Y034450D02*
X018900Y034200D01*
X016800Y034450D02*
X018650D01*
X015650Y033300D02*
X016800Y034450D01*
X015650Y030250D02*
Y033300D01*
X015300Y029900D02*
X015650Y030250D01*
X013900Y029900D02*
X015300D01*
X013450Y030350D02*
X013900Y029900D01*
X021500Y034700D02*
X021900Y034300D01*
X016750Y034700D02*
X021500D01*
X014950Y032900D02*
X016750Y034700D01*
X014950Y030350D02*
Y032900D01*
X021900Y033622D02*
Y034300D01*
X024080Y034920D02*
X024900Y034100D01*
X016170Y034920D02*
X024080D01*
X015450Y034200D02*
X016170Y034920D01*
X026950Y035100D02*
X027900Y034150D01*
X014750Y035100D02*
X026950D01*
X013950Y034300D02*
X014750Y035100D01*
X015450Y034050D02*
Y034200D01*
X013950Y034050D02*
Y034300D01*
X027900Y033622D02*
Y034150D01*
X024900Y033622D02*
Y034100D01*
X013871Y057779D02*
Y058400D01*
Y057779D02*
X014250Y057400D01*
X018500*
X019300Y056600*
X013871Y045479D02*
Y046300D01*
Y045479D02*
X014150Y045200D01*
X018600*
X019300Y044500*
G54D23*
X016586Y071486D02*
X021400Y076300D01*
Y077150*
X016586Y070600D02*
Y071486D01*
Y069714D02*
Y070600D01*
X016035D02*
X016586D01*
Y074736D02*
X016986D01*
X019400Y077150*
X016586Y073750D02*
Y074736D01*
Y072964D02*
Y073750D01*
X016536Y073800D02*
X016586Y073750D01*
X016035Y073800D02*
X016536D01*
X020400Y077150D02*
Y077750D01*
X020164Y077986D02*
X020400Y077750D01*
X016586Y077986D02*
X020164D01*
X016586Y077100D02*
Y077986D01*
Y076214D02*
Y077100D01*
X016035D02*
X016586D01*
X014814D02*
Y077986D01*
Y076214D02*
Y077100D01*
X015365*
X014814Y073800D02*
Y074736D01*
Y072964D02*
Y073800D01*
X015365*
X014814Y070600D02*
Y071486D01*
Y069714D02*
Y070600D01*
X015365*
X014814Y074736D02*
Y076214D01*
Y071486D02*
Y072964D01*
X015639Y025774D02*
X016387D01*
X018500Y064450D02*
X019450Y063500D01*
X034900Y061400D02*
Y062450D01*
X034400Y062950D02*
X034900Y062450D01*
X034400Y062950D02*
Y063631D01*
X013200Y064450D02*
X018500D01*
X018900Y064900D02*
X020300Y063500D01*
X013200Y063800D02*
Y064350D01*
X019300Y063500D02*
X019450D01*
X019600Y065450D02*
X021300Y063750D01*
X030550Y064750D02*
X031831Y066031D01*
X025850Y064750D02*
X030550D01*
X025300Y064200D02*
X025850Y064750D01*
X027378Y065200D02*
X028209Y066031D01*
X024850Y065200D02*
X027378D01*
X024300Y064650D02*
X024850Y065200D01*
X026300Y063500D02*
Y064000D01*
X026550Y064250*
X030100*
X030719Y063631*
X032400*
X031831Y066031D02*
X032400D01*
X025300Y063500D02*
Y064200D01*
X024300Y063500D02*
Y064650D01*
X023300Y063500D02*
Y065312D01*
X024018Y066031*
X022300Y063500D02*
Y065482D01*
X021582Y066200D02*
X022300Y065482D01*
X034400Y063631D02*
Y064450D01*
X034050Y064800D02*
X034400Y064450D01*
X033774Y064800D02*
X034050D01*
X032400Y063631D02*
Y064500D01*
X032700Y064800*
X033026*
X032400Y066031D02*
Y066800D01*
X032700Y067100*
X033126*
X034400Y066031D02*
Y066800D01*
X034100Y067100D02*
X034400Y066800D01*
X033874Y067100D02*
X034100D01*
X030209Y066031D02*
Y066941D01*
X030050Y067100D02*
X030209Y066941D01*
X029574Y067100D02*
X030050D01*
X028209Y066031D02*
Y066909D01*
X028400Y067100*
X028826*
X026018Y066031D02*
Y066882D01*
X025800Y067100D02*
X026018Y066882D01*
X025374Y067100D02*
X025800D01*
X024018Y066031D02*
Y066918D01*
X024200Y067100*
X024626*
X021582Y066200D02*
Y066818D01*
X021300Y067100D02*
X021582Y066818D01*
X020974Y067100D02*
X021300D01*
X019582Y066200D02*
Y066882D01*
X019800Y067100*
X020226*
X015600D02*
X016026D01*
X015391Y066891D02*
X015600Y067100D01*
X015391Y066200D02*
Y066891D01*
X017391Y066200D02*
Y066709D01*
X017000Y067100D02*
X017391Y066709D01*
X016774Y067100D02*
X017000D01*
X021300Y063500D02*
Y063750D01*
X013200Y066200D02*
Y066850D01*
X012950Y067100D02*
X013200Y066850D01*
X012574Y067100D02*
X012950D01*
X011400D02*
X011826D01*
X011200Y066900D02*
X011400Y067100D01*
X011200Y066200D02*
Y066900D01*
Y063800D02*
Y064450D01*
X011550Y064800*
X011852*
X012850D02*
X013200Y064450D01*
X012600Y064800D02*
X012850D01*
X018286Y028176D02*
X018800Y027662D01*
Y027163D02*
Y027662D01*
X018286Y025224D02*
X018800Y025738D01*
Y026237*
X018109Y025400D02*
X018286Y025224D01*
X017213Y025400D02*
X018109D01*
X015000Y025065D02*
D01*
X015600*
Y025735D02*
X015639Y025774D01*
Y025026D02*
X016387D01*
X015600Y025065D02*
X015639Y025026D01*
X034900Y049300D02*
Y051000D01*
X034400Y051500D02*
X034900Y051000D01*
X033774Y052500D02*
X033900D01*
X034400Y052000*
Y051500D02*
Y052000D01*
X032750Y052500D02*
X033026D01*
X032400Y052150D02*
X032750Y052500D01*
X032400Y051500D02*
Y052150D01*
X033774Y055000D02*
X034100D01*
X034400Y054700*
Y053931D02*
Y054700D01*
X032700Y055000D02*
X033026D01*
X032400Y054700D02*
X032700Y055000D01*
X032400Y053931D02*
Y054700D01*
X029474Y055000D02*
X029800D01*
X030160Y054640*
Y053931D02*
Y054640D01*
X028350Y055000D02*
X028726D01*
X028160Y054810D02*
X028350Y055000D01*
X028160Y053931D02*
Y054810D01*
X025274Y055000D02*
X025650D01*
X025920Y054730*
Y053931D02*
Y054730D01*
X024250Y055000D02*
X024526D01*
X023920Y054670D02*
X024250Y055000D01*
X023920Y053931D02*
Y054670D01*
X021074Y055000D02*
X021350D01*
X021680Y054670*
Y054100D02*
Y054670D01*
X020050Y055000D02*
X020326D01*
X019680Y054630D02*
X020050Y055000D01*
X019680Y054100D02*
Y054630D01*
X015750Y055000D02*
X016026D01*
X015440Y054690D02*
X015750Y055000D01*
X015440Y054100D02*
Y054690D01*
X016774Y055000D02*
X017050D01*
X017440Y054610*
Y054100D02*
Y054610D01*
X011500Y054950D02*
X011876D01*
X011200Y054650D02*
X011500Y054950D01*
X011200Y054100D02*
Y054650D01*
X012624Y054950D02*
X012950D01*
X013200Y054700*
Y054100D02*
Y054700D01*
X011550Y052500D02*
X011852D01*
X011200Y052150D02*
X011550Y052500D01*
X011200Y051669D02*
Y052150D01*
X012600Y052500D02*
X012800D01*
X013200Y051669D02*
Y052100D01*
X019300Y051300D02*
Y051750D01*
X018825Y052225D02*
X019300Y051750D01*
X013075Y052225D02*
X018825D01*
X012800Y052500D02*
X013075Y052225D01*
X013200Y052100*
X020300Y051300D02*
Y052250D01*
X013200Y053900D02*
Y054100D01*
X021300Y051300D02*
Y052700D01*
X020650Y053350D02*
X021300Y052700D01*
X018150Y053350D02*
X020650D01*
X017440Y054060D02*
X018150Y053350D01*
X017440Y054060D02*
Y054100D01*
X013200Y053900D02*
X014300Y052800D01*
X019750*
X020300Y052250*
X013200Y066200D02*
X014500Y064900D01*
X018900*
X017391Y066200D02*
X018141Y065450D01*
X019600*
X022300Y051300D02*
Y053480D01*
X021680Y054100D02*
X022300Y053480D01*
X023300Y051300D02*
Y053311D01*
X023920Y053931*
X024300Y051300D02*
Y052500D01*
X025300Y051300D02*
Y052000D01*
X031069Y052600D02*
X032400Y053931D01*
X026300Y051300D02*
Y051700D01*
X026650Y052050*
X031850*
X032400Y051500*
X025300Y052000D02*
X025900Y052600D01*
X024300Y052500D02*
X025000Y053200D01*
X027429*
X028160Y053931*
X025900Y052600D02*
X031069D01*
G54D24*
X012200Y063300D02*
Y063800D01*
Y063300D02*
X012500Y063000D01*
X014900*
X015400Y063500*
X017300*
X018300*
X035384Y024750D02*
Y026184D01*
Y021900D02*
Y024750D01*
X033100D02*
X035384D01*
X031850Y026000D02*
X033100Y024750D01*
X031400Y026000D02*
X031850D01*
X030450D02*
X031400D01*
X030250Y025800D02*
X030450Y026000D01*
X030250Y024350D02*
Y025800D01*
Y024350D02*
X031594Y023006D01*
Y022300D02*
Y023006D01*
X036100Y032500D02*
Y033500D01*
Y031500D02*
Y032500D01*
Y030500D02*
Y031500D01*
Y029500D02*
Y030500D01*
Y026932D02*
Y029500D01*
X035368Y026200D02*
X036100Y026932D01*
X035368Y026200D02*
X035384Y026184D01*
X036250Y018450D02*
Y021034D01*
Y014181D02*
Y018450D01*
X035384Y021900D02*
X036250Y021034D01*
X034469Y012400D02*
X036250Y014181D01*
X032600Y027000D02*
X033400Y026200D01*
X031400Y027000D02*
X032600D01*
X030806Y019106D02*
Y022300D01*
X030750Y019050D02*
X030806Y019106D01*
X020200Y015100D02*
X021500D01*
X018300Y013200D02*
X020200Y015100D01*
X018300Y012400D02*
Y013200D01*
X022900Y016500D02*
Y017100D01*
X021500Y015100D02*
X022900Y016500D01*
X023900Y016000D02*
Y017100D01*
X020300Y012400D02*
X023900Y016000D01*
X022300Y012600D02*
X024900Y015200D01*
X022300Y012400D02*
Y012600D01*
X024900Y015200D02*
Y017100D01*
X021650Y037750D02*
X022150D01*
X018300Y041100D02*
X021650Y037750D01*
X022150D02*
X022900Y037000D01*
Y036378D02*
Y037000D01*
X023900Y036378D02*
Y037500D01*
X020300Y041100D02*
X023900Y037500D01*
X026900Y036378D02*
Y040368D01*
X026168Y041100D02*
X026900Y040368D01*
X025900Y036378D02*
Y039400D01*
X024200Y041100D02*
X025900Y039400D01*
X024900Y036378D02*
Y038500D01*
X022300Y041100D02*
X024900Y038500D01*
X014850Y050500D02*
X015650Y051300D01*
X012550Y050500D02*
X014850D01*
X012200Y050850D02*
X012550Y050500D01*
X012200Y050850D02*
Y051669D01*
X015650Y051300D02*
X017300D01*
X018300*
G54D25*
X034329Y016594D02*
X035250D01*
X034735Y026200D02*
X035368D01*
X033400D02*
X034065D01*
G54D26*
X036100Y018300D02*
X036250Y018450D01*
X035300Y018300D02*
X036100D01*
X035169Y017500D02*
X035300Y017631D01*
X034329Y017500D02*
X035169D01*
X035194Y018406D02*
X035300Y018300D01*
X034329Y018406D02*
X035194D01*
X032500Y012735D02*
X033165Y013400D01*
X032500Y012400D02*
Y012735D01*
X033835Y013400D02*
X034469Y012766D01*
Y012400D02*
Y012766D01*
X033200Y017500D02*
X034329D01*
G54D27*
X011550Y022500D02*
X012300D01*
X010800Y021750D02*
X011550Y022500D01*
X010800Y011450D02*
Y021750D01*
Y011450D02*
X011400Y010850D01*
X027650*
X028200Y011400*
Y012400*
G54D30*
X032125Y017400D03*
G54D31*
X035591Y078148D03*
Y078446D03*
Y078745D03*
Y077850D03*
Y079341D03*
Y079043D03*
Y044098D03*
Y043800D03*
X035200Y043465D03*
X035591Y044993D03*
Y044695D03*
Y044396D03*
Y050659D03*
Y050958D03*
Y051256D03*
Y051554D03*
Y047975D03*
Y048273D03*
Y048572D03*
Y049466D03*
Y049168D03*
Y048870D03*
Y050361D03*
Y050063D03*
Y049765D03*
Y047081D03*
Y047379D03*
Y047677D03*
Y046186D03*
Y046484D03*
Y046782D03*
Y045888D03*
Y045589D03*
Y045291D03*
Y051852D03*
Y052150D03*
Y052449D03*
Y053343D03*
Y053045D03*
Y052747D03*
Y054238D03*
Y053940D03*
Y053642D03*
Y056326D03*
Y056624D03*
Y056922D03*
Y055431D03*
Y055729D03*
Y056027D03*
Y055133D03*
Y054835D03*
Y054536D03*
Y059010D03*
Y059308D03*
Y059606D03*
Y058115D03*
Y058413D03*
Y058712D03*
Y057817D03*
Y057519D03*
Y057220D03*
Y065273D03*
Y065571D03*
Y065869D03*
Y066764D03*
Y066465D03*
Y066167D03*
Y067658D03*
Y067360D03*
Y067062D03*
Y062588D03*
Y062887D03*
Y063185D03*
Y064080D03*
Y063781D03*
Y063483D03*
Y064974D03*
Y064676D03*
Y064378D03*
Y061694D03*
Y061992D03*
Y062290D03*
Y060799D03*
Y061097D03*
Y061396D03*
Y060501D03*
Y060203D03*
Y059904D03*
Y070641D03*
Y070939D03*
Y071237D03*
Y072132D03*
Y071834D03*
Y071535D03*
Y069746D03*
Y070044D03*
Y070342D03*
Y068851D03*
Y069150D03*
Y069448D03*
Y068553D03*
Y068255D03*
Y067957D03*
Y076605D03*
Y076904D03*
Y077202D03*
Y077500D03*
Y073921D03*
Y074219D03*
Y074518D03*
Y075412D03*
Y075114D03*
Y074816D03*
Y076307D03*
Y076009D03*
Y075711D03*
Y073027D03*
Y073325D03*
Y073623D03*
Y072430D03*
Y072728D03*
X010200Y067874D03*
X010509D03*
X010819D03*
X011746D03*
X011437D03*
X011128D03*
X012674D03*
X012365D03*
X012056D03*
X014839D03*
X015148D03*
X015457D03*
X013911D03*
X014220D03*
X014530D03*
X013602D03*
X013293D03*
X012983D03*
X017622D03*
X017931D03*
X018241D03*
X016694D03*
X017004D03*
X017313D03*
X016385D03*
X016076D03*
X015767D03*
X024117D03*
X024426D03*
X024735D03*
X025663D03*
X025354D03*
X025044D03*
X026591D03*
X026281D03*
X025972D03*
X021333D03*
X021643D03*
X021952D03*
X022880D03*
X022570D03*
X022261D03*
X023807D03*
X023498D03*
X023189D03*
X020406D03*
X020715D03*
X021024D03*
X019478D03*
X019787D03*
X020096D03*
X019169D03*
X018859D03*
X018550D03*
X032467D03*
X032776D03*
X033085D03*
X034013D03*
X033704D03*
X033394D03*
X034941D03*
X034631D03*
X034322D03*
X029683D03*
X029993D03*
X030302D03*
X031230D03*
X030920D03*
X030611D03*
X032157D03*
X031848D03*
X031539D03*
X028756D03*
X029065D03*
X029374D03*
X027828D03*
X028137D03*
X028446D03*
X027518D03*
X027209D03*
X026900D03*
X035950D03*
X036250D03*
X036550D03*
X035250D03*
X010200Y055669D03*
X010516D03*
X010833D03*
X011782D03*
X011466D03*
X011149D03*
X012732D03*
X012415D03*
X012099D03*
X014947D03*
X015263D03*
X015580D03*
X013997D03*
X014314D03*
X014630D03*
X013681D03*
X013365D03*
X013048D03*
X017795D03*
X018111D03*
X018428D03*
X016846D03*
X017162D03*
X017478D03*
X016529D03*
X016213D03*
X015896D03*
X024441D03*
X024757D03*
X025073D03*
X026023D03*
X025706D03*
X025390D03*
X026972D03*
X026656D03*
X026339D03*
X021592D03*
X021909D03*
X022225D03*
X023175D03*
X022858D03*
X022542D03*
X024124D03*
X023808D03*
X023491D03*
X020643D03*
X020959D03*
X021276D03*
X019694D03*
X020010D03*
X020327D03*
X019377D03*
X019061D03*
X018744D03*
X032985D03*
X033301D03*
X033618D03*
X034567D03*
X034251D03*
X033934D03*
X030137D03*
X030453D03*
X030770D03*
X031719D03*
X031403D03*
X031086D03*
X032668D03*
X032352D03*
X032035D03*
X029187D03*
X029504D03*
X029820D03*
X028238D03*
X028554D03*
X028871D03*
X027922D03*
X027605D03*
X027289D03*
X035930D03*
X036240D03*
X036550D03*
X035200D03*
X034884D03*
X026149Y043465D03*
X026495D03*
X026842D03*
X027882D03*
X027535D03*
X027189D03*
X028922D03*
X028576D03*
X028229D03*
X029962D03*
X029616D03*
X029269D03*
X018521D03*
X018174D03*
X018868D03*
X021988D03*
X022335D03*
X022682D03*
X020948D03*
X021295D03*
X021641D03*
X025455D03*
X025802D03*
X023375D03*
X023028D03*
X015401D03*
X015747D03*
X016094D03*
X017134D03*
X016787D03*
X016441D03*
X017828D03*
X017481D03*
X013320D03*
X013667D03*
X014014D03*
X014361D03*
X015054D03*
X014707D03*
X012280D03*
X012627D03*
X012974D03*
X011240D03*
X011587D03*
X011934D03*
X010893D03*
X010547D03*
X010200D03*
X019561D03*
X019214D03*
X020601D03*
X020255D03*
X019908D03*
X031349D03*
X031696D03*
X032043D03*
X030309D03*
X030656D03*
X031003D03*
X033430D03*
X033776D03*
X033083D03*
X032736D03*
X032389D03*
X025108D03*
X024068D03*
X024415D03*
X024762D03*
X023722D03*
X034123D03*
X034470D03*
X034816D03*
X036550D03*
X036203D03*
X035856D03*
X035510D03*
G54D32*
X028950Y069250D03*
X029950D03*
X030950D03*
X031950D03*
X032950D03*
X028950Y072250D03*
X029950D03*
X030950D03*
X031950D03*
X035384Y021900D03*
X035368Y026200D03*
X027900Y019843D03*
X026900D03*
X025900D03*
X024900D03*
X023900D03*
X022900D03*
X021900D03*
X020900D03*
X019900D03*
X018900D03*
X017900D03*
X018900Y033622D03*
X019900D03*
X020900D03*
X021900D03*
X022900D03*
X023900D03*
X024900D03*
X025900D03*
X026900D03*
X027900D03*
X028900D03*
X020050Y024750D03*
X021050D03*
X028300Y029600D03*
Y027600D03*
Y026600D03*
Y025600D03*
Y024600D03*
Y023600D03*
Y022600D03*
Y021600D03*
Y028600D03*
X027900Y017100D03*
X026900D03*
X025900D03*
X024900D03*
X023900D03*
X022900D03*
X021900D03*
X020900D03*
X019900D03*
X018900D03*
X017900D03*
X018900Y036378D03*
X019900D03*
X020900D03*
X021900D03*
X022900D03*
X023900D03*
X024900D03*
X025900D03*
X026900D03*
X027900D03*
X028900D03*
X018300Y056600D03*
X019300D03*
X020300D03*
X021300D03*
X022300D03*
X023300D03*
X024300D03*
X025300D03*
X026300D03*
X027300D03*
X028300D03*
X020400Y077150D03*
X022400D03*
X023400D03*
X024400D03*
X025400D03*
X026400D03*
X027400D03*
X028400D03*
X021400D03*
X018300Y063500D03*
X019300D03*
X020300D03*
X021300D03*
X022300D03*
X023300D03*
X024300D03*
X025300D03*
X026300D03*
X027300D03*
X028300D03*
X018300Y044500D03*
X019300D03*
X020300D03*
X021300D03*
X022300D03*
X023300D03*
X024300D03*
X025300D03*
X026300D03*
X027300D03*
X028300D03*
X018300Y051300D03*
X019300D03*
X020300D03*
X021300D03*
X022300D03*
X023300D03*
X024300D03*
X025300D03*
X026300D03*
X027300D03*
X028300D03*
X036100Y029500D03*
Y030500D03*
Y031500D03*
Y032500D03*
Y033500D03*
X033100Y029500D03*
Y030500D03*
Y031500D03*
Y032500D03*
G54D33*
X032950Y072250D03*
X028300Y030600D03*
G54D34*
X030806Y022300D03*
G54D35*
X031594Y022300D03*
G54D36*
X033416Y021900D03*
X033400Y026200D03*
X028900Y019843D03*
X017900Y033622D03*
X022050Y024750D03*
X028900Y017100D03*
X017900Y036378D03*
X017300Y056600D03*
X019400Y077150D03*
X017300Y063500D03*
Y044500D03*
Y051300D03*
X033100Y033500D03*
G54D37*
X011200Y063800D03*
X012200D03*
X011200Y051669D03*
X012200D03*
X011200Y066200D03*
X012200D03*
X011200Y054100D03*
X012200D03*
X015391Y066200D03*
X016391D03*
X015440Y054100D03*
X016440D03*
X019582Y066200D03*
X020582D03*
X019680Y054100D03*
X020680D03*
X026018Y066031D03*
X025018D03*
X025920Y053931D03*
X024920D03*
X030209Y066031D03*
X029209D03*
X030160Y053931D03*
X029160D03*
X034400Y066031D03*
X033400D03*
X034400Y053931D03*
X033400D03*
X034400Y063631D03*
X033400D03*
X034400Y051500D03*
X033400D03*
G54D38*
X013200Y063800D03*
Y051669D03*
Y066200D03*
Y054100D03*
X017391Y066200D03*
X017440Y054100D03*
X021582Y066200D03*
X021680Y054100D03*
X024018Y066031D03*
X023920Y053931D03*
X028209Y066031D03*
X028160Y053931D03*
X032400Y066031D03*
Y053931D03*
Y063631D03*
Y051500D03*
G54D39*
X018286Y028176D03*
Y025224D03*
X011987Y028413D03*
X011514Y024987D03*
G54D40*
X032516Y041100D03*
X034484D03*
X024200Y012400D03*
X026200D03*
X028200D03*
X018300D03*
X020300D03*
X022300D03*
X012400D03*
X014400D03*
X016400D03*
Y041100D03*
X014400D03*
X012400D03*
X034469Y012400D03*
X032500D03*
X022300Y041100D03*
X020300D03*
X018300D03*
X026168D03*
X024200D03*
G54D41*
X014814Y074736D03*
X016586D03*
X014814Y072964D03*
X016586D03*
X014814Y077986D03*
X016586D03*
X014814Y076214D03*
X016586D03*
X014814Y071486D03*
X016586D03*
X014814Y069714D03*
X016586D03*
G54D42*
X031400Y025000D03*
G54D43*
X031400Y026000D03*
Y027000D03*
G54D44*
X012700Y061400D03*
X011700D03*
X010700D03*
X012700Y058400D03*
X011700D03*
X012700Y049300D03*
X011700D03*
X010700D03*
X012700Y046300D03*
X011700D03*
X015871Y061400D03*
X014871D03*
X013871D03*
X015871Y058400D03*
X014871D03*
X015871Y049300D03*
X014871D03*
X013871D03*
X015871Y046300D03*
X014871D03*
X019043Y061400D03*
X018043D03*
X017043D03*
X019043Y058400D03*
X018043D03*
X019043Y049300D03*
X018043D03*
X017043D03*
X019043Y046300D03*
X018043D03*
X022214Y061400D03*
X021214D03*
X020214D03*
X022214Y058400D03*
X021214D03*
X022214Y049300D03*
X021214D03*
X020214D03*
X022214Y046300D03*
X021214D03*
X025386Y061400D03*
X024386D03*
X023386D03*
X025386Y058400D03*
X024386D03*
X025386Y049300D03*
X024386D03*
X023386D03*
X025386Y046300D03*
X024386D03*
X028557Y061400D03*
X027557D03*
X026557D03*
X028557Y058400D03*
X027557D03*
X028557Y049300D03*
X027557D03*
X026557D03*
X028557Y046300D03*
X027557D03*
X031729Y061400D03*
X030729D03*
X029729D03*
X031729Y058400D03*
X030729D03*
X031729Y049300D03*
X030729D03*
X029729D03*
X031729Y046300D03*
X030729D03*
X034900Y061400D03*
X033900D03*
X032900D03*
X034900Y058400D03*
X033900D03*
X034900Y049300D03*
X033900D03*
X032900D03*
X034900Y046300D03*
X033900D03*
G54D45*
X010700Y058400D03*
Y046300D03*
X013871Y058400D03*
Y046300D03*
X017043Y058400D03*
Y046300D03*
X020214Y058400D03*
Y046300D03*
X023386Y058400D03*
Y046300D03*
X026557Y058400D03*
Y046300D03*
X029729Y058400D03*
Y046300D03*
X032900Y058400D03*
Y046300D03*
G54D46*
X032900Y073500D03*
X021250D03*
X025600D03*
X026400D03*
X029300Y075100D03*
X017350Y031200D03*
X015200Y020000D03*
X026550Y029350D03*
X027000Y029000D03*
X026050Y029350D03*
X022450Y032050D03*
X016400Y029800D03*
X021200Y023250D03*
X016850Y022600D03*
X026600Y025250D03*
X020950Y029650D03*
X012150Y033150D03*
X025400Y026300D03*
X024950D03*
X024450D03*
X022075Y027025D03*
X021750Y026700D03*
X021450Y026050D03*
X022400Y027300D03*
X021400Y028350D03*
X021750Y027850D03*
X022075Y028200D03*
X023850Y026550D03*
Y027600D03*
X033450Y035050D03*
X034450D03*
X032100Y035350D03*
X026950Y027800D03*
X025150Y027200D03*
X025500Y027900D03*
X019450Y026800D03*
Y027900D03*
X020700Y026800D03*
X016800Y021300D03*
X027600Y026650D03*
X027300Y027400D03*
X027000Y025900D03*
X027300Y026275D03*
X027600Y027100D03*
X024750Y020550D03*
X015950Y025750D03*
X022400Y028550D03*
X023500Y020550D03*
X023000D03*
X021500D03*
X022000D03*
X015000Y026300D03*
X035250Y016594D03*
X031650Y038700D03*
X015450Y034050D03*
X013950D03*
X013450Y030350D03*
X014950D03*
X019250Y030600D03*
Y031150D03*
X024000Y023950D03*
G54D47*
X032800Y015900D03*
Y016800D03*
Y017700D03*
Y018600D03*
X031925Y015900D03*
Y016800D03*
Y017700D03*
Y018600D03*
X031050Y015900D03*
Y016800D03*
Y017700D03*
Y018600D03*
X012950Y022500D03*
X012300D03*
X013500D03*
G54D49*
X018800Y026237D03*
Y027163D03*
G54D50*
X016387Y025026D03*
Y025774D03*
X017213Y025400D03*
G54D51*
X034329Y018406D03*
G54D52*
X034329Y017500D03*
Y016594D03*
G54D53*
X031671Y017500D03*
M02*