%FSDAX24Y24*%
%MOIN*%
%SFA1B1*%

%IPPOS*%
%ADD92C,0.003900*%
%ADD94C,0.002000*%
%LNde-120824-1*%
%LPD*%
G54D92*
X030753Y070750D02*
X031147D01*
X030950Y070553D02*
Y070947D01*
X021169Y020724D02*
X024831D01*
X021169Y023676D02*
X024831D01*
X021169Y020724D02*
Y023676D01*
X024831Y020724D02*
Y023676D01*
X023000Y022003D02*
Y022397D01*
X022803Y022200D02*
X023197D01*
X012003Y063800D02*
X012397D01*
X012200Y063603D02*
Y063997D01*
X012003Y051669D02*
X012397D01*
X012200Y051472D02*
Y051866D01*
X012003Y066200D02*
X012397D01*
X012200Y066003D02*
Y066397D01*
X012003Y054100D02*
X012397D01*
X012200Y053903D02*
Y054297D01*
X016194Y066200D02*
X016588D01*
X016391Y066003D02*
Y066397D01*
X016243Y054100D02*
X016637D01*
X016440Y053903D02*
Y054297D01*
X020385Y066200D02*
X020778D01*
X020582Y066003D02*
Y066397D01*
X020483Y054100D02*
X020877D01*
X020680Y053903D02*
Y054297D01*
X024822Y066031D02*
X025215D01*
X025018Y065834D02*
Y066228D01*
X024723Y053931D02*
X025117D01*
X024920Y053734D02*
Y054128D01*
X029012Y066031D02*
X029406D01*
X029209Y065834D02*
Y066228D01*
X028963Y053931D02*
X029357D01*
X029160Y053734D02*
Y054128D01*
X033203Y066031D02*
X033597D01*
X033400Y065834D02*
Y066228D01*
X033203Y053931D02*
X033597D01*
X033400Y053734D02*
Y054128D01*
X033203Y063631D02*
X033597D01*
X033400Y063434D02*
Y063828D01*
X033203Y051500D02*
X033597D01*
X033400Y051303D02*
Y051697D01*
X019746Y026662D02*
Y026938D01*
X020454Y026662D02*
Y026938D01*
X019746D02*
X020454D01*
X019746Y026662D02*
X020454D01*
X019982Y026800D02*
X020218D01*
X020100Y026682D02*
Y026918D01*
X015546Y021812D02*
Y022088D01*
X016254Y021812D02*
Y022088D01*
X015546D02*
X016254D01*
X015546Y021812D02*
X016254D01*
X015782Y021950D02*
X016018D01*
X015900Y021832D02*
Y022068D01*
X034600Y031303D02*
Y031697D01*
X034403Y031500D02*
X034797D01*
X024503Y027100D02*
X024897D01*
X024700Y026903D02*
Y027297D01*
X033503Y037000D02*
X033897D01*
X033700Y036803D02*
Y037197D01*
X034783Y035524D02*
Y038476D01*
X032617Y035524D02*
Y038476D01*
X034783*
X032617Y035524D02*
X034783D01*
X012119Y030574D02*
X015781D01*
X012119Y033526D02*
X015781D01*
X012119Y030574D02*
Y033526D01*
X015781Y030574D02*
Y033526D01*
X013950Y031853D02*
Y032247D01*
X013753Y032050D02*
X014147D01*
X018172Y029927D02*
Y030321D01*
X017976Y030124D02*
X018369D01*
X017385Y030833D02*
X018960D01*
X017385Y029415D02*
X018960D01*
X017385D02*
Y030833D01*
X018960Y029415D02*
Y030833D01*
X020203Y029300D02*
X020597D01*
X020400Y029103D02*
Y029497D01*
X012324Y019967D02*
Y022133D01*
X015276Y019967D02*
Y022133D01*
X012324D02*
X015276D01*
X012324Y019967D02*
X015276D01*
X013603Y021050D02*
X013997D01*
X013800Y020853D02*
Y021247D01*
X031203Y026000D02*
X031597D01*
X031400Y025803D02*
Y026197D01*
X016032Y024711D02*
Y026089D01*
X017568Y024711D02*
Y026089D01*
X016032Y024711D02*
X017568D01*
X016032Y026089D02*
X017568D01*
X016603Y025400D02*
X016997D01*
X016800Y025203D02*
Y025597D01*
G54D94*
X010074Y062662D02*
Y064769D01*
X014326Y062662D02*
Y064769D01*
X010074Y062662D02*
X014326D01*
X010074Y064769D02*
X014326D01*
X010074Y050532D02*
Y052638D01*
X014326Y050532D02*
Y052638D01*
X010074Y050532D02*
X014326D01*
X010074Y052638D02*
X014326D01*
X010074Y065062D02*
Y067168D01*
X014326Y065062D02*
Y067168D01*
X010074Y065062D02*
X014326D01*
X010074Y067168D02*
X014326D01*
X010074Y052962D02*
Y055068D01*
X014326Y052962D02*
Y055068D01*
X010074Y052962D02*
X014326D01*
X010074Y055068D02*
X014326D01*
X014265Y065062D02*
Y067168D01*
X018517Y065062D02*
Y067168D01*
X014265Y065062D02*
X018517D01*
X014265Y067168D02*
X018517D01*
X014314Y052962D02*
Y055068D01*
X018566Y052962D02*
Y055068D01*
X014314Y052962D02*
X018566D01*
X014314Y055068D02*
X018566D01*
X018456Y065062D02*
Y067168D01*
X022708Y065062D02*
Y067168D01*
X018456Y065062D02*
X022708D01*
X018456Y067168D02*
X022708D01*
X018554Y052962D02*
Y055068D01*
X022806Y052962D02*
Y055068D01*
X018554Y052962D02*
X022806D01*
X018554Y055068D02*
X022806D01*
X027144Y065062D02*
Y067168D01*
X022892Y065062D02*
Y067168D01*
X027144*
X022892Y065062D02*
X027144D01*
X027046Y052962D02*
Y055068D01*
X022794Y052962D02*
Y055068D01*
X027046*
X022794Y052962D02*
X027046D01*
X031335Y065062D02*
Y067168D01*
X027083Y065062D02*
Y067168D01*
X031335*
X027083Y065062D02*
X031335D01*
X031286Y052962D02*
Y055068D01*
X027034Y052962D02*
Y055068D01*
X031286*
X027034Y052962D02*
X031286D01*
X035526Y065062D02*
Y067168D01*
X031274Y065062D02*
Y067168D01*
X035526*
X031274Y065062D02*
X035526D01*
Y052962D02*
Y055068D01*
X031274Y052962D02*
Y055068D01*
X035526*
X031274Y052962D02*
X035526D01*
Y062662D02*
Y064769D01*
X031274Y062662D02*
Y064769D01*
X035526*
X031274Y062662D02*
X035526D01*
Y050532D02*
Y052638D01*
X031274Y050532D02*
Y052638D01*
X035526*
X031274Y050532D02*
X035526D01*
X026747Y025053D02*
Y029147D01*
X022653Y025053D02*
Y029147D01*
Y025053D02*
X026747D01*
X022653Y029147D02*
X026747D01*
X021089Y028532D02*
Y030068D01*
X019711Y028532D02*
Y030068D01*
X021089*
X019711Y028532D02*
X021089D01*
M02*