G04*
G04 #@! TF.GenerationSoftware,Altium Limited,Altium Designer,24.5.2 (23)*
G04*
G04 Layer_Physical_Order=2*
G04 Layer_Color=16711680*
%FSLAX25Y25*%
%MOIN*%
G70*
G04*
G04 #@! TF.SameCoordinates,1E1250FC-479B-4AD5-BC39-25AF0FE23E56*
G04*
G04*
G04 #@! TF.FilePolarity,Positive*
G04*
G01*
G75*
%ADD13C,0.01000*%
%ADD23C,0.05906*%
%ADD24R,0.05906X0.05906*%
%ADD25C,0.06000*%
%ADD26R,0.05906X0.05906*%
%ADD27C,0.03000*%
%ADD28R,0.04331X0.03937*%
%ADD29C,0.02000*%
D13*
X174500Y88000D02*
Y101000D01*
Y88000D02*
X182000Y80500D01*
X193500D01*
X164500Y64500D02*
Y101000D01*
X154500Y66500D02*
Y101000D01*
Y66500D02*
X156500Y64500D01*
X226500D02*
X229500D01*
X113000D02*
X120000D01*
X161500Y59500D02*
X164500Y62500D01*
Y63000D02*
Y64500D01*
Y63000D02*
X168000Y59500D01*
X164500Y62500D02*
Y63000D01*
X120000Y64500D02*
X125000Y59500D01*
X161500D01*
X221500D02*
X226500Y64500D01*
X168000Y59500D02*
X221500D01*
D23*
X195000Y20500D02*
D03*
X205000D02*
D03*
X215000D02*
D03*
X225000D02*
D03*
X235000D02*
D03*
X195000Y50500D02*
D03*
X205000D02*
D03*
X215000D02*
D03*
X225000D02*
D03*
X104500Y101000D02*
D03*
X124500D02*
D03*
X134500D02*
D03*
X144500D02*
D03*
X154500D02*
D03*
X164500D02*
D03*
X174500D02*
D03*
X184500D02*
D03*
X114500D02*
D03*
D24*
X235000Y50500D02*
D03*
D25*
X48642Y109358D02*
D03*
X66358D02*
D03*
X48642Y91642D02*
D03*
X66358D02*
D03*
X48642Y76858D02*
D03*
X66358D02*
D03*
X48642Y59142D02*
D03*
X66358D02*
D03*
X48642Y44358D02*
D03*
X66358D02*
D03*
X48642Y26642D02*
D03*
X66358D02*
D03*
D26*
X94500Y101000D02*
D03*
D27*
X229500Y64500D02*
D03*
X193500Y80500D02*
D03*
X164500Y64500D02*
D03*
X156500D02*
D03*
X113000D02*
D03*
D28*
X60847Y35500D02*
D03*
X54154D02*
D03*
X60847Y100500D02*
D03*
X54154D02*
D03*
X60847Y67500D02*
D03*
X54154D02*
D03*
D29*
X94500Y96000D02*
Y101000D01*
X66358Y76858D02*
X75358D01*
X94500Y96000D01*
X66358Y44358D02*
X72358D01*
X114500Y86500D02*
Y101000D01*
X72358Y44358D02*
X114500Y86500D01*
X51000Y118500D02*
X181000D01*
X48642Y116142D02*
X51000Y118500D01*
X181000D02*
X184500Y115000D01*
Y101000D02*
Y115000D01*
X48642Y109358D02*
Y116142D01*
X60847Y67500D02*
X65858D01*
X66358Y67000D01*
X60847Y35500D02*
X66358D01*
Y26642D02*
Y35500D01*
Y44358D01*
X48642Y35500D02*
X54154D01*
X48642Y67500D02*
X54154D01*
X48642Y59142D02*
Y67500D01*
Y76858D01*
X66358Y59142D02*
Y67000D01*
X48642Y35500D02*
Y44358D01*
Y91642D02*
Y100500D01*
X54154D01*
X48642D02*
Y109358D01*
X60847Y100500D02*
X66358D01*
Y91642D02*
Y100500D01*
Y109358D01*
X102142D01*
X104500Y107000D01*
Y101000D02*
Y107000D01*
X66358Y67000D02*
Y76858D01*
X48642D02*
Y91642D01*
Y26642D02*
Y35500D01*
Y44358D02*
Y59142D01*
M02*
