G04*
G04 #@! TF.GenerationSoftware,Altium Limited,Altium Designer,24.5.2 (23)*
G04*
G04 Layer_Color=8388736*
%FSLAX25Y25*%
%MOIN*%
G70*
G04*
G04 #@! TF.SameCoordinates,1E1250FC-479B-4AD5-BC39-25AF0FE23E56*
G04*
G04*
G04 #@! TF.FilePolarity,Negative*
G04*
G01*
G75*
%ADD16R,0.06706X0.05918*%
%ADD17R,0.03950X0.03950*%
%ADD18C,0.06706*%
%ADD19R,0.06706X0.06706*%
%ADD20C,0.06800*%
%ADD21R,0.06706X0.06706*%
%ADD22C,0.03800*%
D16*
X144500Y83260D02*
D03*
Y90740D02*
D03*
X134500Y83760D02*
D03*
Y91240D02*
D03*
X124500Y83760D02*
D03*
Y91240D02*
D03*
D17*
X29500Y64547D02*
D03*
Y70453D02*
D03*
X85500Y64547D02*
D03*
Y70453D02*
D03*
X107071Y64547D02*
D03*
Y70453D02*
D03*
X128643Y64547D02*
D03*
Y70453D02*
D03*
X150214Y64547D02*
D03*
Y70453D02*
D03*
X171786Y64547D02*
D03*
Y70453D02*
D03*
X236500Y64547D02*
D03*
Y70453D02*
D03*
X214929Y64547D02*
D03*
Y70453D02*
D03*
X193357Y64547D02*
D03*
Y70453D02*
D03*
D18*
X195000Y20500D02*
D03*
X205000D02*
D03*
X215000D02*
D03*
X225000D02*
D03*
X235000D02*
D03*
X195000Y50500D02*
D03*
X205000D02*
D03*
X215000D02*
D03*
X225000D02*
D03*
X104500Y101000D02*
D03*
X124500D02*
D03*
X134500D02*
D03*
X144500D02*
D03*
X154500D02*
D03*
X164500D02*
D03*
X174500D02*
D03*
X184500D02*
D03*
X114500D02*
D03*
D19*
X235000Y50500D02*
D03*
D20*
X48642Y109358D02*
D03*
X66358D02*
D03*
X48642Y91642D02*
D03*
X66358D02*
D03*
X48642Y76858D02*
D03*
X66358D02*
D03*
X48642Y59142D02*
D03*
X66358D02*
D03*
X48642Y44358D02*
D03*
X66358D02*
D03*
X48642Y26642D02*
D03*
X66358D02*
D03*
D21*
X94500Y101000D02*
D03*
D22*
X229500Y64500D02*
D03*
X193500Y80500D02*
D03*
X164500Y64500D02*
D03*
X156500D02*
D03*
X113000D02*
D03*
M02*
