M48
;Layer_Color=9474304
;FILE_FORMAT=2:4
INCH
;TYPE=PLATED
T01F00S00C0.0100
T02F00S00C0.0300
T03F00S00C0.0354
%
T01
X032950Y016450
X029350Y018050
X026450Y016450
X025650
X021300
T02
X014864Y012664
Y014436
X016636
Y012664
Y015914
Y017686
Y019164
Y020936
X014864
Y019164
Y017686
Y015914
T03
X029500Y012050
X030500
Y015050
X029500
X031500
X032500
X033500
Y012050
X032500
X031500
X028450Y020100
X027450
X026450
X025450
X024450
X023450
X022450
X021450
X020450
X019450
M30
