G04*
G04 #@! TF.GenerationSoftware,Altium Limited,Altium Designer,24.5.2 (23)*
G04*
G04 Layer_Color=65535*
%FSLAX25Y25*%
%MOIN*%
G70*
G04*
G04 #@! TF.SameCoordinates,1E1250FC-479B-4AD5-BC39-25AF0FE23E56*
G04*
G04*
G04 #@! TF.FilePolarity,Positive*
G04*
G01*
G75*
%ADD10C,0.02362*%
%ADD11C,0.00984*%
%ADD12C,0.00787*%
%ADD13C,0.01000*%
D10*
X240787Y41996D02*
G03*
X240787Y41996I-1181J0D01*
G01*
D11*
X240610Y50500D02*
G03*
X240610Y50500I-492J0D01*
G01*
D12*
X243543Y38000D02*
G03*
X243543Y33000I0J-2500D01*
G01*
X186457Y25067D02*
Y45933D01*
X243543Y25067D02*
Y33000D01*
Y38000D02*
Y45933D01*
X186457Y25067D02*
X243543D01*
X186457Y45933D02*
X243543D01*
X189500Y96000D02*
Y106000D01*
X89500Y96000D02*
X189500D01*
X89500D02*
Y106000D01*
X97000D01*
X189500D01*
X26350Y68878D02*
Y73602D01*
X32650Y68878D02*
Y73602D01*
X26350D02*
X32650D01*
X27925Y60216D02*
X31075D01*
X26350Y62185D02*
Y66122D01*
X31075Y60216D02*
X32650Y62185D01*
X26350D02*
X27925Y60216D01*
X32650Y62185D02*
Y66122D01*
X82350Y68878D02*
Y73602D01*
X88650Y68878D02*
Y73602D01*
X82350D02*
X88650D01*
X83925Y60216D02*
X87075D01*
X82350Y62185D02*
Y66122D01*
X87075Y60216D02*
X88650Y62185D01*
X82350D02*
X83925Y60216D01*
X88650Y62185D02*
Y66122D01*
X103922Y68878D02*
Y73602D01*
X110221Y68878D02*
Y73602D01*
X103922D02*
X110221D01*
X105497Y60216D02*
X108646D01*
X103922Y62185D02*
Y66122D01*
X108646Y60216D02*
X110221Y62185D01*
X103922D02*
X105497Y60216D01*
X110221Y62185D02*
Y66122D01*
X125493Y68878D02*
Y73602D01*
X131792Y68878D02*
Y73602D01*
X125493D02*
X131792D01*
X127068Y60216D02*
X130218D01*
X125493Y62185D02*
Y66122D01*
X130218Y60216D02*
X131792Y62185D01*
X125493D02*
X127068Y60216D01*
X131792Y62185D02*
Y66122D01*
X147065Y68878D02*
Y73602D01*
X153364Y68878D02*
Y73602D01*
X147065D02*
X153364D01*
X148640Y60216D02*
X151789D01*
X147065Y62185D02*
Y66122D01*
X151789Y60216D02*
X153364Y62185D01*
X147065D02*
X148640Y60216D01*
X153364Y62185D02*
Y66122D01*
X168636Y68878D02*
Y73602D01*
X174935Y68878D02*
Y73602D01*
X168636D02*
X174935D01*
X170211Y60216D02*
X173361D01*
X168636Y62185D02*
Y66122D01*
X173361Y60216D02*
X174935Y62185D01*
X168636D02*
X170211Y60216D01*
X174935Y62185D02*
Y66122D01*
X233350Y68878D02*
Y73602D01*
X239650Y68878D02*
Y73602D01*
X233350D02*
X239650D01*
X234925Y60216D02*
X238075D01*
X233350Y62185D02*
Y66122D01*
X238075Y60216D02*
X239650Y62185D01*
X233350D02*
X234925Y60216D01*
X239650Y62185D02*
Y66122D01*
X211779Y68878D02*
Y73602D01*
X218078Y68878D02*
Y73602D01*
X211779D02*
X218078D01*
X213354Y60216D02*
X216503D01*
X211779Y62185D02*
Y66122D01*
X216503Y60216D02*
X218078Y62185D01*
X211779D02*
X213354Y60216D01*
X218078Y62185D02*
Y66122D01*
X190208Y68878D02*
Y73602D01*
X196507Y68878D02*
Y73602D01*
X190208D02*
X196507D01*
X191782Y60216D02*
X194932D01*
X190208Y62185D02*
Y66122D01*
X194932Y60216D02*
X196507Y62185D01*
X190208D02*
X191782Y60216D01*
X196507Y62185D02*
Y66122D01*
D13*
X62815Y100500D02*
G03*
X62815Y100500I-5315J0D01*
G01*
Y68000D02*
G03*
X62815Y68000I-5315J0D01*
G01*
Y35500D02*
G03*
X62815Y35500I-5315J0D01*
G01*
X68500Y90000D02*
Y111500D01*
X46000D02*
X68500D01*
X46000Y90000D02*
Y111500D01*
Y90000D02*
X68500D01*
Y57500D02*
Y79000D01*
X46000D02*
X68500D01*
X46000Y57500D02*
Y79000D01*
Y57500D02*
X68500D01*
Y25000D02*
Y46500D01*
X46000D02*
X68500D01*
X46000Y25000D02*
Y46500D01*
Y25000D02*
X68500D01*
X70500Y39498D02*
Y33500D01*
X73499D01*
X74499Y34500D01*
Y38498D01*
X73499Y39498D01*
X70500D01*
X76498Y33500D02*
Y39498D01*
X80497Y33500D01*
Y39498D01*
X70500Y65500D02*
Y71498D01*
X72499Y69499D01*
X74499Y71498D01*
Y65500D01*
X76498Y71498D02*
Y67499D01*
X78497Y65500D01*
X80497Y67499D01*
Y71498D01*
X83999Y80998D02*
X81999D01*
X82999D01*
Y76000D01*
X81999Y75000D01*
X81000D01*
X80000Y76000D01*
X85998Y79998D02*
X86998Y80998D01*
X88997D01*
X89997Y79998D01*
Y76000D01*
X88997Y75000D01*
X86998D01*
X85998Y76000D01*
Y79998D01*
X106999Y80998D02*
X104999D01*
X105999D01*
Y76000D01*
X104999Y75000D01*
X104000D01*
X103000Y76000D01*
X108998Y75000D02*
X110997D01*
X109998D01*
Y80998D01*
X108998Y79998D01*
X127499Y80998D02*
X125499D01*
X126499D01*
Y76000D01*
X125499Y75000D01*
X124500D01*
X123500Y76000D01*
X133497Y75000D02*
X129498D01*
X133497Y78999D01*
Y79998D01*
X132497Y80998D01*
X130498D01*
X129498Y79998D01*
X70500Y103498D02*
Y98500D01*
X71500Y97500D01*
X73499D01*
X74499Y98500D01*
Y103498D01*
X76498Y97500D02*
Y103498D01*
X79497D01*
X80497Y102498D01*
Y100499D01*
X79497Y99499D01*
X76498D01*
X136500Y32000D02*
Y35999D01*
X138499Y37998D01*
X140499Y35999D01*
Y32000D01*
Y34999D01*
X136500D01*
X142498Y37998D02*
Y32000D01*
X145497D01*
X146497Y33000D01*
Y36998D01*
X145497Y37998D01*
X142498D01*
X148496D02*
Y32000D01*
X151495D01*
X152495Y33000D01*
Y36998D01*
X151495Y37998D01*
X148496D01*
X154494Y32000D02*
Y37998D01*
X157493D01*
X158493Y36998D01*
Y34999D01*
X157493Y33999D01*
X154494D01*
X156493D02*
X158493Y32000D01*
X164491Y37998D02*
X160492D01*
Y32000D01*
X164491D01*
X160492Y34999D02*
X162492D01*
X170489Y36998D02*
X169489Y37998D01*
X167490D01*
X166490Y36998D01*
Y35999D01*
X167490Y34999D01*
X169489D01*
X170489Y33999D01*
Y33000D01*
X169489Y32000D01*
X167490D01*
X166490Y33000D01*
X176487Y36998D02*
X175487Y37998D01*
X173488D01*
X172488Y36998D01*
Y35999D01*
X173488Y34999D01*
X175487D01*
X176487Y33999D01*
Y33000D01*
X175487Y32000D01*
X173488D01*
X172488Y33000D01*
X148999Y80998D02*
X146999D01*
X147999D01*
Y76000D01*
X146999Y75000D01*
X146000D01*
X145000Y76000D01*
X150998Y79998D02*
X151998Y80998D01*
X153997D01*
X154997Y79998D01*
Y78999D01*
X153997Y77999D01*
X152997D01*
X153997D01*
X154997Y76999D01*
Y76000D01*
X153997Y75000D01*
X151998D01*
X150998Y76000D01*
X169999Y80998D02*
X167999D01*
X168999D01*
Y76000D01*
X167999Y75000D01*
X167000D01*
X166000Y76000D01*
X174997Y75000D02*
Y80998D01*
X171998Y77999D01*
X175997D01*
X191999Y80998D02*
X189999D01*
X190999D01*
Y76000D01*
X189999Y75000D01*
X189000D01*
X188000Y76000D01*
X197997Y80998D02*
X193998D01*
Y77999D01*
X195997Y78999D01*
X196997D01*
X197997Y77999D01*
Y76000D01*
X196997Y75000D01*
X194998D01*
X193998Y76000D01*
X213499Y80998D02*
X211499D01*
X212499D01*
Y76000D01*
X211499Y75000D01*
X210500D01*
X209500Y76000D01*
X219497Y80998D02*
X217497Y79998D01*
X215498Y77999D01*
Y76000D01*
X216498Y75000D01*
X218497D01*
X219497Y76000D01*
Y76999D01*
X218497Y77999D01*
X215498D01*
X236499Y81498D02*
X234499D01*
X235499D01*
Y76500D01*
X234499Y75500D01*
X233500D01*
X232500Y76500D01*
X238498Y81498D02*
X242497D01*
Y80498D01*
X238498Y76500D01*
Y75500D01*
X12500Y58498D02*
Y52500D01*
X16499D01*
X22497Y58498D02*
X18498D01*
Y52500D01*
X22497D01*
X18498Y55499D02*
X20497D01*
X24496Y52500D02*
Y56499D01*
X26496Y58498D01*
X28495Y56499D01*
Y52500D01*
Y55499D01*
X24496D01*
X30494Y52500D02*
Y58498D01*
X33493D01*
X34493Y57498D01*
Y55499D01*
X33493Y54499D01*
X30494D01*
X32493D02*
X34493Y52500D01*
X36492D02*
Y58498D01*
X40491Y52500D01*
Y58498D01*
M02*
