G04*
G04 #@! TF.GenerationSoftware,Altium Limited,Altium Designer,24.5.2 (23)*
G04*
G04 Layer_Physical_Order=1*
G04 Layer_Color=255*
%FSLAX25Y25*%
%MOIN*%
G70*
G04*
G04 #@! TF.SameCoordinates,1E1250FC-479B-4AD5-BC39-25AF0FE23E56*
G04*
G04*
G04 #@! TF.FilePolarity,Positive*
G04*
G01*
G75*
%ADD13C,0.01000*%
%ADD14R,0.05906X0.05118*%
%ADD15R,0.03150X0.03150*%
%ADD23C,0.05906*%
%ADD24R,0.05906X0.05906*%
%ADD25C,0.06000*%
%ADD26R,0.05906X0.05906*%
%ADD27C,0.03000*%
D13*
X30000Y114500D02*
X129500D01*
X23500Y108000D02*
X30000Y114500D01*
X206347Y84654D02*
X214929Y76072D01*
Y70453D02*
Y76072D01*
X107071Y70453D02*
X128643D01*
X208547Y64547D02*
X214929D01*
X229500Y64500D02*
X229547Y64547D01*
X201000Y66000D02*
Y79000D01*
X144500Y84654D02*
X206347D01*
X199500Y80500D02*
X201000Y79000D01*
X193500Y80500D02*
X199500D01*
X134000Y66000D02*
Y74000D01*
X129500Y78500D02*
X134000Y74000D01*
X240000Y57500D02*
X242500Y60000D01*
X229547Y64547D02*
X236500D01*
X68047Y70453D02*
X86000Y52500D01*
X236500Y70453D02*
X240547D01*
X242500Y60000D02*
Y68500D01*
X240547Y70453D02*
X242500Y68500D01*
X86000Y52500D02*
X149500D01*
X154500Y57500D01*
X240000D01*
X85500Y70453D02*
X107071D01*
X150214Y57714D02*
Y64547D01*
X147500Y55000D02*
X150214Y57714D01*
X89000Y55000D02*
X147500D01*
X85500Y58500D02*
X89000Y55000D01*
X85500Y58500D02*
Y64547D01*
X107071D02*
X112953D01*
X113000Y64500D01*
X128643Y64547D02*
X132547D01*
X134000Y66000D01*
X124500Y91847D02*
Y101000D01*
X156500Y64500D02*
X161500Y59500D01*
X203500D01*
X208547Y64547D01*
X23500Y66000D02*
Y108000D01*
X24953Y64547D02*
X29500D01*
X23500Y66000D02*
X24953Y64547D01*
X174500Y101000D02*
Y111000D01*
X129500Y114500D02*
X171000D01*
X174500Y111000D01*
X124500Y74596D02*
Y85154D01*
X150214Y70453D02*
X171786D01*
X193357D01*
Y64547D02*
X199547D01*
X201000Y66000D01*
X171738Y64500D02*
X171786Y64547D01*
X164500Y64500D02*
X171738D01*
X150214Y64547D02*
X150261Y64500D01*
X156500D01*
X143547Y70453D02*
X150214D01*
X29500D02*
X68047D01*
X214929D02*
X236500D01*
X134500Y91847D02*
Y101000D01*
X144500Y91347D02*
Y101000D01*
X124500Y74596D02*
X128643Y70453D01*
X134500Y79500D02*
Y85154D01*
Y79500D02*
X143547Y70453D01*
X129500Y78500D02*
Y114500D01*
D14*
X144500Y83260D02*
D03*
Y90740D02*
D03*
X134500Y83760D02*
D03*
Y91240D02*
D03*
X124500Y83760D02*
D03*
Y91240D02*
D03*
D15*
X29500Y64547D02*
D03*
Y70453D02*
D03*
X85500Y64547D02*
D03*
Y70453D02*
D03*
X107071Y64547D02*
D03*
Y70453D02*
D03*
X128643Y64547D02*
D03*
Y70453D02*
D03*
X150214Y64547D02*
D03*
Y70453D02*
D03*
X171786Y64547D02*
D03*
Y70453D02*
D03*
X236500Y64547D02*
D03*
Y70453D02*
D03*
X214929Y64547D02*
D03*
Y70453D02*
D03*
X193357Y64547D02*
D03*
Y70453D02*
D03*
D23*
X195000Y20500D02*
D03*
X205000D02*
D03*
X215000D02*
D03*
X225000D02*
D03*
X235000D02*
D03*
X195000Y50500D02*
D03*
X205000D02*
D03*
X215000D02*
D03*
X225000D02*
D03*
X104500Y101000D02*
D03*
X124500D02*
D03*
X134500D02*
D03*
X144500D02*
D03*
X154500D02*
D03*
X164500D02*
D03*
X174500D02*
D03*
X184500D02*
D03*
X114500D02*
D03*
D24*
X235000Y50500D02*
D03*
D25*
X48642Y109358D02*
D03*
X66358D02*
D03*
X48642Y91642D02*
D03*
X66358D02*
D03*
X48642Y76858D02*
D03*
X66358D02*
D03*
X48642Y59142D02*
D03*
X66358D02*
D03*
X48642Y44358D02*
D03*
X66358D02*
D03*
X48642Y26642D02*
D03*
X66358D02*
D03*
D26*
X94500Y101000D02*
D03*
D27*
X229500Y64500D02*
D03*
X193500Y80500D02*
D03*
X164500Y64500D02*
D03*
X156500D02*
D03*
X113000D02*
D03*
M02*
